<?xml version="1.0" encoding="UTF-8" standalone="no"?>
<!DOCTYPE svg PUBLIC "-//W3C//DTD SVG 1.1//EN"
 "http://www.w3.org/Graphics/SVG/1.1/DTD/svg11.dtd">
<!-- Generated by graphviz version 2.40.1 (20161225.0304)
 -->
<!-- Title: cgamma_cytok Pages: 1 -->
<svg width="1063pt" height="382pt"
 viewBox="0.00 0.00 1063.00 382.06" xmlns="http://www.w3.org/2000/svg" xmlns:xlink="http://www.w3.org/1999/xlink">
<g id="graph0" class="graph" transform="scale(1 1) rotate(0) translate(0 382.0592)">
<title>cgamma_cytok</title>
<polygon fill="#ffffff" stroke="transparent" points="0,0 0,-382.0592 1063,-382.0592 1063,0 0,0"/>
<g id="clust3" class="cluster">
<title>cluster_IL2</title>
<polygon fill="none" stroke="#000000" stroke-width="0" points="8,-8 8,-371.456 236,-371.456 236,-8 8,-8"/>
</g>
<g id="clust4" class="cluster">
<title>cluster_IL15</title>
<polygon fill="none" stroke="#000000" stroke-width="0" points="256,-8 256,-374.0592 515,-374.0592 515,-8 256,-8"/>
</g>
<g id="clust5" class="cluster">
<title>cluster_IL7</title>
<polygon fill="none" stroke="#000000" stroke-width="0" points="585,-116.4264 585,-371.456 695,-371.456 695,-116.4264 585,-116.4264"/>
</g>
<g id="clust6" class="cluster">
<title>cluster_IL9</title>
<polygon fill="none" stroke="#000000" stroke-width="0" points="703,-116.4264 703,-371.456 813,-371.456 813,-116.4264 703,-116.4264"/>
</g>
<g id="clust7" class="cluster">
<title>cluster_IL4</title>
<polygon fill="none" stroke="#000000" stroke-width="0" points="821,-116.4264 821,-371.456 931,-371.456 931,-116.4264 821,-116.4264"/>
</g>
<g id="clust8" class="cluster">
<title>cluster_IL21</title>
<polygon fill="none" stroke="#000000" stroke-width="0" points="939,-116.4264 939,-374.0592 1055,-374.0592 1055,-116.4264 939,-116.4264"/>
</g>
<!-- gc -->
<g id="node1" class="node">
<title>gc</title>
<polygon fill="#d3d3d3" stroke="#000000" points="577,-266.8528 523,-266.8528 523,-230.8528 577,-230.8528 577,-266.8528"/>
<text text-anchor="start" x="542.5" y="-246.1528" font-family="Helvetica,sans-Serif" font-size="14.00" fill="#000000">γ</text>
<text text-anchor="start" x="550.5" y="-246.1528" font-family="Helvetica,sans-Serif" baseline-shift="sub" font-size="14.00" fill="#000000">c</text>
</g>
<!-- 4 -->
<g id="node37" class="node">
<title>4</title>
<polygon fill="#d15fee" stroke="#d15fee" points="204.1767,-190.889 204.1767,-200.3902 200.5585,-207.1086 195.4415,-207.1086 191.8233,-200.3902 191.8233,-190.889 195.4415,-184.1706 200.5585,-184.1706 204.1767,-190.889"/>
<polygon fill="none" stroke="#d15fee" points="208.2118,-189.89 208.2118,-201.3892 202.9795,-211.1046 193.0205,-211.1046 187.7882,-201.3892 187.7882,-189.89 193.0205,-180.1746 202.9795,-180.1746 208.2118,-189.89"/>
<polygon fill="none" stroke="#d15fee" points="212.2469,-188.891 212.2469,-202.3882 205.4006,-215.1006 190.5994,-215.1006 183.7531,-202.3882 183.7531,-188.891 190.5994,-176.1786 205.4006,-176.1786 212.2469,-188.891"/>
<text text-anchor="middle" x="198" y="-191.9396" font-family="Helvetica,sans-Serif" font-size="14.00" fill="#000000">4</text>
</g>
<!-- gc&#45;&gt;4 -->
<g id="edge8" class="edge">
<title>gc&#45;&gt;4</title>
<path fill="none" stroke="#000000" d="M522.9618,-233.2428C520.655,-232.312 518.3172,-231.4947 516,-230.8528 404.0494,-199.8402 368.7359,-240.4931 255,-216.8528 239.9066,-213.7156 223.4895,-207.2571 212.1677,-202.286"/>
</g>
<!-- 5 -->
<g id="node38" class="node">
<title>5</title>
<polygon fill="#d15fee" stroke="#d15fee" points="83.1767,-190.889 83.1767,-200.3902 79.5585,-207.1086 74.4415,-207.1086 70.8233,-200.3902 70.8233,-190.889 74.4415,-184.1706 79.5585,-184.1706 83.1767,-190.889"/>
<polygon fill="none" stroke="#d15fee" points="87.2118,-189.89 87.2118,-201.3892 81.9795,-211.1046 72.0205,-211.1046 66.7882,-201.3892 66.7882,-189.89 72.0205,-180.1746 81.9795,-180.1746 87.2118,-189.89"/>
<polygon fill="none" stroke="#d15fee" points="91.2469,-188.891 91.2469,-202.3882 84.4006,-215.1006 69.5994,-215.1006 62.7531,-202.3882 62.7531,-188.891 69.5994,-176.1786 84.4006,-176.1786 91.2469,-188.891"/>
<text text-anchor="middle" x="77" y="-191.9396" font-family="Helvetica,sans-Serif" font-size="14.00" fill="#000000">5</text>
</g>
<!-- gc&#45;&gt;5 -->
<g id="edge11" class="edge">
<title>gc&#45;&gt;5</title>
<path fill="none" stroke="#000000" d="M522.9756,-233.1919C520.6657,-232.2726 518.3234,-231.4718 516,-230.8528 427.0496,-207.1566 187.8656,-250.0307 102,-216.8528 97.0089,-214.9243 92.3125,-211.5519 88.3673,-208.0561"/>
</g>
<!-- 10 -->
<g id="node41" class="node">
<title>10</title>
<polygon fill="#d15fee" stroke="#d15fee" points="159,-108.6418 136.2444,-76.4989 181.7556,-76.4989 159,-108.6418"/>
<text text-anchor="middle" x="159" y="-83.5132" font-family="Helvetica,sans-Serif" font-size="14.00" fill="#000000">10</text>
</g>
<!-- gc&#45;&gt;10 -->
<g id="edge20" class="edge">
<title>gc&#45;&gt;10</title>
<path fill="none" stroke="#000000" d="M541.3785,-230.6021C539.2765,-226.1135 537.0448,-221.3151 535,-216.8528 526.3929,-198.0703 533.0325,-186.1207 516,-174.4264 468.1164,-141.5502 304.4004,-190.976 255,-160.4264 235.8706,-148.5966 246.8764,-131.2946 230,-116.4264 213.1979,-101.6236 187.8714,-93.6684 172.4448,-89.9484"/>
</g>
<!-- 16 -->
<g id="node46" class="node">
<title>16</title>
<polygon fill="#eeb422" stroke="#eeb422" points="356.3964,-190.889 356.3964,-200.3902 349.1348,-207.1086 338.8652,-207.1086 331.6036,-200.3902 331.6036,-190.889 338.8652,-184.1706 349.1348,-184.1706 356.3964,-190.889"/>
<polygon fill="none" stroke="#eeb422" points="360.4456,-189.1578 360.4456,-202.1214 350.736,-211.1046 337.264,-211.1046 327.5544,-202.1214 327.5544,-189.1578 337.264,-180.1746 350.736,-180.1746 360.4456,-189.1578"/>
<polygon fill="none" stroke="#eeb422" points="364.4948,-187.4266 364.4948,-203.8526 352.3372,-215.1006 335.6628,-215.1006 323.5052,-203.8526 323.5052,-187.4266 335.6628,-176.1786 352.3372,-176.1786 364.4948,-187.4266"/>
<text text-anchor="middle" x="344" y="-191.9396" font-family="Helvetica,sans-Serif" font-size="14.00" fill="#000000">16</text>
</g>
<!-- gc&#45;&gt;16 -->
<g id="edge35" class="edge">
<title>gc&#45;&gt;16</title>
<path fill="none" stroke="#000000" d="M522.9271,-233.3625C520.6281,-232.4049 518.3015,-231.5487 516,-230.8528 456.5673,-212.8815 435.6214,-237.3159 377,-216.8528 371.0842,-214.7878 365.1584,-211.4673 359.9938,-208.0604"/>
</g>
<!-- 17 -->
<g id="node47" class="node">
<title>17</title>
<polygon fill="#eeb422" stroke="#eeb422" points="485.3964,-190.889 485.3964,-200.3902 478.1348,-207.1086 467.8652,-207.1086 460.6036,-200.3902 460.6036,-190.889 467.8652,-184.1706 478.1348,-184.1706 485.3964,-190.889"/>
<polygon fill="none" stroke="#eeb422" points="489.4456,-189.1578 489.4456,-202.1214 479.736,-211.1046 466.264,-211.1046 456.5544,-202.1214 456.5544,-189.1578 466.264,-180.1746 479.736,-180.1746 489.4456,-189.1578"/>
<polygon fill="none" stroke="#eeb422" points="493.4948,-187.4266 493.4948,-203.8526 481.3372,-215.1006 464.6628,-215.1006 452.5052,-203.8526 452.5052,-187.4266 464.6628,-176.1786 481.3372,-176.1786 493.4948,-187.4266"/>
<text text-anchor="middle" x="473" y="-191.9396" font-family="Helvetica,sans-Serif" font-size="14.00" fill="#000000">17</text>
</g>
<!-- gc&#45;&gt;17 -->
<g id="edge38" class="edge">
<title>gc&#45;&gt;17</title>
<path fill="none" stroke="#000000" d="M523.9313,-230.8373C512.7622,-223.1185 500.0293,-214.3191 490.0888,-207.4493"/>
</g>
<!-- 22 -->
<g id="node50" class="node">
<title>22</title>
<polygon fill="#eeb422" stroke="#eeb422" points="482.3964,-82.4626 482.3964,-91.9638 475.1348,-98.6822 464.8652,-98.6822 457.6036,-91.9638 457.6036,-82.4626 464.8652,-75.7442 475.1348,-75.7442 482.3964,-82.4626"/>
<polygon fill="none" stroke="#eeb422" points="486.4456,-80.7314 486.4456,-93.695 476.736,-102.6782 463.264,-102.6782 453.5544,-93.695 453.5544,-80.7314 463.264,-71.7482 476.736,-71.7482 486.4456,-80.7314"/>
<polygon fill="none" stroke="#eeb422" points="490.4948,-79.0002 490.4948,-95.4262 478.3372,-106.6742 461.6628,-106.6742 449.5052,-95.4262 449.5052,-79.0002 461.6628,-67.7522 478.3372,-67.7522 490.4948,-79.0002"/>
<text text-anchor="middle" x="470" y="-83.5132" font-family="Helvetica,sans-Serif" font-size="14.00" fill="#000000">22</text>
</g>
<!-- gc&#45;&gt;22 -->
<g id="edge47" class="edge">
<title>gc&#45;&gt;22</title>
<path fill="none" stroke="#000000" d="M548.1822,-230.4267C544.6905,-203.1345 534.9326,-151.4285 509,-116.4264 503.4603,-108.9493 495.4807,-102.5041 488.1807,-97.5846"/>
</g>
<!-- 27 -->
<g id="node54" class="node">
<title>27</title>
<polygon fill="#1c86ee" stroke="#1c86ee" points="633.3964,-190.889 633.3964,-200.3902 626.1348,-207.1086 615.8652,-207.1086 608.6036,-200.3902 608.6036,-190.889 615.8652,-184.1706 626.1348,-184.1706 633.3964,-190.889"/>
<polygon fill="none" stroke="#1c86ee" points="637.4456,-189.1578 637.4456,-202.1214 627.736,-211.1046 614.264,-211.1046 604.5544,-202.1214 604.5544,-189.1578 614.264,-180.1746 627.736,-180.1746 637.4456,-189.1578"/>
<polygon fill="none" stroke="#1c86ee" points="641.4948,-187.4266 641.4948,-203.8526 629.3372,-215.1006 612.6628,-215.1006 600.5052,-203.8526 600.5052,-187.4266 612.6628,-176.1786 629.3372,-176.1786 641.4948,-187.4266"/>
<text text-anchor="middle" x="621" y="-191.9396" font-family="Helvetica,sans-Serif" font-size="14.00" fill="#000000">27</text>
</g>
<!-- gc&#45;&gt;27 -->
<g id="edge59" class="edge">
<title>gc&#45;&gt;27</title>
<path fill="none" stroke="#000000" d="M574.0374,-230.8373C584.0143,-223.3597 595.3445,-214.868 604.3761,-208.0989"/>
</g>
<!-- 31 -->
<g id="node56" class="node">
<title>31</title>
<polygon fill="#a2cd5a" stroke="#a2cd5a" points="750.3964,-190.889 750.3964,-200.3902 743.1348,-207.1086 732.8652,-207.1086 725.6036,-200.3902 725.6036,-190.889 732.8652,-184.1706 743.1348,-184.1706 750.3964,-190.889"/>
<polygon fill="none" stroke="#a2cd5a" points="754.4456,-189.1578 754.4456,-202.1214 744.736,-211.1046 731.264,-211.1046 721.5544,-202.1214 721.5544,-189.1578 731.264,-180.1746 744.736,-180.1746 754.4456,-189.1578"/>
<polygon fill="none" stroke="#a2cd5a" points="758.4948,-187.4266 758.4948,-203.8526 746.3372,-215.1006 729.6628,-215.1006 717.5052,-203.8526 717.5052,-187.4266 729.6628,-176.1786 746.3372,-176.1786 758.4948,-187.4266"/>
<text text-anchor="middle" x="738" y="-191.9396" font-family="Helvetica,sans-Serif" font-size="14.00" fill="#000000">31</text>
</g>
<!-- gc&#45;&gt;31 -->
<g id="edge65" class="edge">
<title>gc&#45;&gt;31</title>
<path fill="none" stroke="#000000" d="M577.0917,-233.4235C579.3865,-232.4522 581.707,-231.5763 584,-230.8528 631.8404,-215.7586 648.0169,-231.4871 696,-216.8528 704.2824,-214.3268 712.9068,-210.2556 720.1699,-206.352"/>
</g>
<!-- 33 -->
<g id="node58" class="node">
<title>33</title>
<polygon fill="#d1eeee" stroke="#d1eeee" points="869.3964,-190.889 869.3964,-200.3902 862.1348,-207.1086 851.8652,-207.1086 844.6036,-200.3902 844.6036,-190.889 851.8652,-184.1706 862.1348,-184.1706 869.3964,-190.889"/>
<polygon fill="none" stroke="#d1eeee" points="873.4456,-189.1578 873.4456,-202.1214 863.736,-211.1046 850.264,-211.1046 840.5544,-202.1214 840.5544,-189.1578 850.264,-180.1746 863.736,-180.1746 873.4456,-189.1578"/>
<polygon fill="none" stroke="#d1eeee" points="877.4948,-187.4266 877.4948,-203.8526 865.3372,-215.1006 848.6628,-215.1006 836.5052,-203.8526 836.5052,-187.4266 848.6628,-176.1786 865.3372,-176.1786 877.4948,-187.4266"/>
<text text-anchor="middle" x="857" y="-191.9396" font-family="Helvetica,sans-Serif" font-size="14.00" fill="#000000">33</text>
</g>
<!-- gc&#45;&gt;33 -->
<g id="edge71" class="edge">
<title>gc&#45;&gt;33</title>
<path fill="none" stroke="#000000" d="M577.0433,-233.2612C579.349,-232.3264 581.6852,-231.5031 584,-230.8528 682.5953,-203.157 715.0187,-243.1359 814,-216.8528 822.6891,-214.5455 831.6999,-210.4095 839.2144,-206.3984"/>
</g>
<!-- 35 -->
<g id="node60" class="node">
<title>35</title>
<polygon fill="#9fb6cd" stroke="#9fb6cd" points="991.3964,-190.889 991.3964,-200.3902 984.1348,-207.1086 973.8652,-207.1086 966.6036,-200.3902 966.6036,-190.889 973.8652,-184.1706 984.1348,-184.1706 991.3964,-190.889"/>
<polygon fill="none" stroke="#9fb6cd" points="995.4456,-189.1578 995.4456,-202.1214 985.736,-211.1046 972.264,-211.1046 962.5544,-202.1214 962.5544,-189.1578 972.264,-180.1746 985.736,-180.1746 995.4456,-189.1578"/>
<polygon fill="none" stroke="#9fb6cd" points="999.4948,-187.4266 999.4948,-203.8526 987.3372,-215.1006 970.6628,-215.1006 958.5052,-203.8526 958.5052,-187.4266 970.6628,-176.1786 987.3372,-176.1786 999.4948,-187.4266"/>
<text text-anchor="middle" x="979" y="-191.9396" font-family="Helvetica,sans-Serif" font-size="14.00" fill="#000000">35</text>
</g>
<!-- gc&#45;&gt;35 -->
<g id="edge77" class="edge">
<title>gc&#45;&gt;35</title>
<path fill="none" stroke="#000000" d="M577.0288,-233.2084C579.3377,-232.2854 581.6786,-231.4792 584,-230.8528 658.7234,-210.6902 856.6793,-234.6548 932,-216.8528 941.7578,-214.5466 951.9736,-210.198 960.379,-206.0355"/>
</g>
<!-- IL&#45;2 -->
<g id="node2" class="node">
<title>IL&#45;2</title>
<ellipse fill="#e066ff" stroke="#000000" cx="113" cy="-345.456" rx="18" ry="18"/>
<text text-anchor="middle" x="113" y="-341.756" font-family="Helvetica,sans-Serif" font-size="14.00" fill="#000000">IL&#45;2</text>
</g>
<!-- 1 -->
<g id="node35" class="node">
<title>1</title>
<polygon fill="#d15fee" stroke="#d15fee" points="103,-310.8528 95,-295.8528 103,-280.8528 111,-295.8528 103,-310.8528"/>
<text text-anchor="middle" x="103" y="-292.1528" font-family="Helvetica,sans-Serif" font-size="14.00" fill="#000000">1</text>
</g>
<!-- IL&#45;2&#45;&gt;1 -->
<g id="edge1" class="edge">
<title>IL&#45;2&#45;&gt;1</title>
<path fill="none" stroke="#000000" d="M109.3898,-327.5481C108.0023,-320.666 106.4598,-313.0146 105.238,-306.9539"/>
</g>
<!-- 2 -->
<g id="node36" class="node">
<title>2</title>
<polygon fill="#d15fee" stroke="#d15fee" points="123,-310.8528 115,-295.8528 123,-280.8528 131,-295.8528 123,-310.8528"/>
<text text-anchor="middle" x="123" y="-292.1528" font-family="Helvetica,sans-Serif" font-size="14.00" fill="#000000">2</text>
</g>
<!-- IL&#45;2&#45;&gt;2 -->
<g id="edge4" class="edge">
<title>IL&#45;2&#45;&gt;2</title>
<path fill="none" stroke="#000000" d="M116.6102,-327.5481C117.9977,-320.666 119.5402,-313.0146 120.762,-306.9539"/>
</g>
<!-- 2Rα -->
<g id="node3" class="node">
<title>2Rα</title>
<polygon fill="#e066ff" stroke="#000000" points="70,-363.456 16,-363.456 16,-327.456 70,-327.456 70,-363.456"/>
<text text-anchor="middle" x="43" y="-341.756" font-family="Helvetica,sans-Serif" font-size="14.00" fill="#000000">2Rα</text>
</g>
<!-- 2Rα&#45;&gt;1 -->
<g id="edge2" class="edge">
<title>2Rα&#45;&gt;1</title>
<path fill="none" stroke="#000000" d="M65.0011,-327.2673C76.64,-317.6451 90.0118,-306.5904 97.384,-300.4957"/>
</g>
<!-- 8 -->
<g id="node39" class="node">
<title>8</title>
<polygon fill="#d15fee" stroke="#d15fee" points="106.2484,-82.4659 106.2484,-91.9605 102.5882,-98.6742 97.4118,-98.6742 93.7516,-91.9605 93.7516,-82.4659 97.4118,-75.7522 102.5882,-75.7522 106.2484,-82.4659"/>
<text text-anchor="middle" x="100" y="-83.5132" font-family="Helvetica,sans-Serif" font-size="14.00" fill="#000000">8</text>
</g>
<!-- 2Rα&#45;&gt;8 -->
<g id="edge14" class="edge">
<title>2Rα&#45;&gt;8</title>
<path fill="none" stroke="#000000" d="M35.0579,-327.3276C27.4117,-308.2005 17,-276.9893 17,-248.8528 17,-248.8528 17,-248.8528 17,-195.6396 17,-160.3637 .9974,-144.7687 22,-116.4264 30.9537,-104.3437 76.8498,-92.6101 93.7461,-88.6348"/>
</g>
<!-- 12 -->
<g id="node43" class="node">
<title>12</title>
<polygon fill="#d15fee" stroke="#d15fee" points="59.4968,-190.8923 59.4968,-200.3869 52.1763,-207.1006 41.8237,-207.1006 34.5032,-200.3869 34.5032,-190.8923 41.8237,-184.1786 52.1763,-184.1786 59.4968,-190.8923"/>
<text text-anchor="middle" x="47" y="-191.9396" font-family="Helvetica,sans-Serif" font-size="14.00" fill="#000000">12</text>
</g>
<!-- 2Rα&#45;&gt;12 -->
<g id="edge26" class="edge">
<title>2Rα&#45;&gt;12</title>
<path fill="none" stroke="#000000" d="M41.1248,-327.1451C39.1246,-304.4791 36.666,-264.7236 40,-230.8528 40.7815,-222.9129 42.5315,-214.1096 44.0862,-207.2913"/>
</g>
<!-- 2Rβ -->
<g id="node4" class="node">
<title>2Rβ</title>
<defs>
<linearGradient id="l_0" gradientUnits="userSpaceOnUse" x1="146" y1="-345.456" x2="200" y2="-345.456" >
<stop offset="0" style="stop-color:#ffc125;stop-opacity:1.;"/>
<stop offset="1" style="stop-color:#e066ff;stop-opacity:1.;"/>
</linearGradient>
</defs>
<polygon fill="url(#l_0)" stroke="#000000" points="200,-363.456 146,-363.456 146,-327.456 200,-327.456 200,-363.456"/>
<text text-anchor="middle" x="173" y="-341.756" font-family="Helvetica,sans-Serif" font-size="14.00" fill="#000000">2Rβ</text>
</g>
<!-- 2Rβ&#45;&gt;2 -->
<g id="edge5" class="edge">
<title>2Rβ&#45;&gt;2</title>
<path fill="none" stroke="#000000" d="M154.6658,-327.2673C145.3011,-317.9769 134.5902,-307.3511 128.3331,-301.1436"/>
</g>
<!-- 9 -->
<g id="node40" class="node">
<title>9</title>
<polygon fill="#d15fee" stroke="#d15fee" points="132.2484,-82.4659 132.2484,-91.9605 128.5882,-98.6742 123.4118,-98.6742 119.7516,-91.9605 119.7516,-82.4659 123.4118,-75.7522 128.5882,-75.7522 132.2484,-82.4659"/>
<text text-anchor="middle" x="126" y="-83.5132" font-family="Helvetica,sans-Serif" font-size="14.00" fill="#000000">9</text>
</g>
<!-- 2Rβ&#45;&gt;9 -->
<g id="edge17" class="edge">
<title>2Rβ&#45;&gt;9</title>
<path fill="none" stroke="#000000" d="M169.9997,-327.3531C167.0541,-307.9852 163,-276.3363 163,-248.8528 163,-248.8528 163,-248.8528 163,-195.6396 163,-178.0016 168.5691,-130.547 158,-116.4264 151.7656,-108.097 143.6865,-115.4382 136,-108.4264 132.992,-105.6824 130.8081,-101.8453 129.2635,-98.1878"/>
</g>
<!-- 11 -->
<g id="node42" class="node">
<title>11</title>
<polygon fill="#d15fee" stroke="#d15fee" points="124,-217.0682 104.4,-184.9253 143.6,-184.9253 124,-217.0682"/>
<text text-anchor="middle" x="124" y="-191.9396" font-family="Helvetica,sans-Serif" font-size="14.00" fill="#000000">11</text>
</g>
<!-- 2Rβ&#45;&gt;11 -->
<g id="edge23" class="edge">
<title>2Rβ&#45;&gt;11</title>
<path fill="none" stroke="#000000" d="M166.5424,-327.3087C164.8608,-322.0532 163.1893,-316.2711 162,-310.8528 154.3178,-275.8538 165.8899,-263.8834 152,-230.8528 147.5191,-220.1971 138.8608,-210.0928 132.3529,-203.4638"/>
</g>
<!-- 14 -->
<g id="node45" class="node">
<title>14</title>
<polygon fill="#eeb422" stroke="#eeb422" points="324,-310.8528 308,-295.8528 324,-280.8528 340,-295.8528 324,-310.8528"/>
<text text-anchor="middle" x="324" y="-292.1528" font-family="Helvetica,sans-Serif" font-size="14.00" fill="#000000">14</text>
</g>
<!-- 2Rβ&#45;&gt;14 -->
<g id="edge32" class="edge">
<title>2Rβ&#45;&gt;14</title>
<path fill="none" stroke="#000000" d="M200.345,-336.4733C233.4904,-325.585 287.8874,-307.7157 311.929,-299.8181"/>
</g>
<!-- 21 -->
<g id="node49" class="node">
<title>21</title>
<polygon fill="#eeb422" stroke="#eeb422" points="313.4968,-82.4659 313.4968,-91.9605 306.1763,-98.6742 295.8237,-98.6742 288.5032,-91.9605 288.5032,-82.4659 295.8237,-75.7522 306.1763,-75.7522 313.4968,-82.4659"/>
<text text-anchor="middle" x="301" y="-83.5132" font-family="Helvetica,sans-Serif" font-size="14.00" fill="#000000">21</text>
</g>
<!-- 2Rβ&#45;&gt;21 -->
<g id="edge44" class="edge">
<title>2Rβ&#45;&gt;21</title>
<path fill="none" stroke="#000000" d="M193.6451,-327.3259C211.6809,-309.3856 235,-280.1404 235,-248.8528 235,-248.8528 235,-248.8528 235,-195.6396 235,-158.4448 240.141,-146.5202 262,-116.4264 269.2587,-106.4332 280.9229,-98.3367 289.6067,-93.2239"/>
</g>
<!-- 23 -->
<g id="node51" class="node">
<title>23</title>
<polygon fill="#eeb422" stroke="#eeb422" points="312.3964,-190.889 312.3964,-200.3902 305.1348,-207.1086 294.8652,-207.1086 287.6036,-200.3902 287.6036,-190.889 294.8652,-184.1706 305.1348,-184.1706 312.3964,-190.889"/>
<polygon fill="none" stroke="#eeb422" points="316.4456,-189.1578 316.4456,-202.1214 306.736,-211.1046 293.264,-211.1046 283.5544,-202.1214 283.5544,-189.1578 293.264,-180.1746 306.736,-180.1746 316.4456,-189.1578"/>
<polygon fill="none" stroke="#eeb422" points="320.4948,-187.4266 320.4948,-203.8526 308.3372,-215.1006 291.6628,-215.1006 279.5052,-203.8526 279.5052,-187.4266 291.6628,-176.1786 308.3372,-176.1786 320.4948,-187.4266"/>
<text text-anchor="middle" x="300" y="-191.9396" font-family="Helvetica,sans-Serif" font-size="14.00" fill="#000000">23</text>
</g>
<!-- 2Rβ&#45;&gt;23 -->
<g id="edge50" class="edge">
<title>2Rβ&#45;&gt;23</title>
<path fill="none" stroke="#000000" d="M200.1024,-335.6672C213.0633,-329.9583 228.0915,-321.7173 239,-310.8528 266.7425,-283.2222 284.8468,-240.3205 293.67,-215.4059"/>
</g>
<!-- 2·2Rα -->
<g id="node5" class="node">
<title>2·2Rα</title>
<polygon fill="#e066ff" stroke="#000000" points="152,-266.8528 98,-266.8528 98,-230.8528 152,-230.8528 152,-266.8528"/>
<text text-anchor="middle" x="125" y="-245.1528" font-family="Helvetica,sans-Serif" font-size="14.00" fill="#000000">2·2Rα</text>
</g>
<!-- 2·2Rα&#45;&gt;4 -->
<g id="edge7" class="edge">
<title>2·2Rα&#45;&gt;4</title>
<path fill="none" stroke="#000000" d="M149.7145,-230.8373C161.4616,-222.2742 175.0331,-212.3813 184.7908,-205.2684"/>
</g>
<!-- 2·2Rα&#45;&gt;11 -->
<g id="edge22" class="edge">
<title>2·2Rα&#45;&gt;11</title>
<path fill="none" stroke="#000000" d="M124.6614,-230.8373C124.5753,-226.2542 124.482,-221.2902 124.3934,-216.5754"/>
</g>
<!-- 2·2Rβ -->
<g id="node6" class="node">
<title>2·2Rβ</title>
<polygon fill="#e066ff" stroke="#000000" points="94,-266.8528 40,-266.8528 40,-230.8528 94,-230.8528 94,-266.8528"/>
<text text-anchor="middle" x="67" y="-245.1528" font-family="Helvetica,sans-Serif" font-size="14.00" fill="#000000">2·2Rβ</text>
</g>
<!-- 2·2Rβ&#45;&gt;5 -->
<g id="edge10" class="edge">
<title>2·2Rβ&#45;&gt;5</title>
<path fill="none" stroke="#000000" d="M70.3855,-230.8373C71.3148,-225.8924 72.3274,-220.5041 73.2746,-215.4637"/>
</g>
<!-- 2·2Rβ&#45;&gt;12 -->
<g id="edge25" class="edge">
<title>2·2Rβ&#45;&gt;12</title>
<path fill="none" stroke="#000000" d="M60.2289,-230.8373C57.2825,-222.9979 53.9172,-214.0438 51.3182,-207.1288"/>
</g>
<!-- 2·2Rα·2Rβ -->
<g id="node7" class="node">
<title>2·2Rα·2Rβ</title>
<polygon fill="#e066ff" stroke="#000000" points="157.5,-160.4264 86.5,-160.4264 86.5,-124.4264 157.5,-124.4264 157.5,-160.4264"/>
<text text-anchor="middle" x="122" y="-138.7264" font-family="Helvetica,sans-Serif" font-size="14.00" fill="#000000">2·2Rα·2Rβ</text>
</g>
<!-- 2·2Rα·2Rβ&#45;&gt;10 -->
<g id="edge19" class="edge">
<title>2·2Rα·2Rβ&#45;&gt;10</title>
<path fill="none" stroke="#000000" d="M134.1152,-124.3475C139.8478,-115.7931 146.5126,-105.8474 151.5014,-98.403"/>
</g>
<!-- 2·2Rα·gc -->
<g id="node8" class="node">
<title>2·2Rα·gc</title>
<polygon fill="#e066ff" stroke="#000000" points="228,-160.4264 168,-160.4264 168,-124.4264 228,-124.4264 228,-160.4264"/>
<text text-anchor="start" x="170" y="-139.7264" font-family="Helvetica,sans-Serif" font-size="14.00" fill="#000000">2·2Rα·γ</text>
<text text-anchor="start" x="219" y="-139.7264" font-family="Helvetica,sans-Serif" baseline-shift="sub" font-size="14.00" fill="#000000">c</text>
</g>
<!-- 2·2Rα·gc&#45;&gt;9 -->
<g id="edge16" class="edge">
<title>2·2Rα·gc&#45;&gt;9</title>
<path fill="none" stroke="#000000" d="M176.8564,-124.3582C172.765,-121.4228 168.3824,-118.6282 164,-116.4264 152.4351,-110.6161 145.863,-116.8066 136,-108.4264 132.8972,-105.7901 130.6926,-101.9765 129.1579,-98.3077"/>
</g>
<!-- 2·2Rβ·gc -->
<g id="node9" class="node">
<title>2·2Rβ·gc</title>
<polygon fill="#e066ff" stroke="#ff0000" stroke-width="2.5" points="82,-160.4264 22,-160.4264 22,-124.4264 82,-124.4264 82,-160.4264"/>
<text text-anchor="start" x="24" y="-139.7264" font-family="Helvetica,sans-Serif" font-size="14.00" fill="#000000">2·2Rβ·γ</text>
<text text-anchor="start" x="73" y="-139.7264" font-family="Helvetica,sans-Serif" baseline-shift="sub" font-size="14.00" fill="#000000">c</text>
</g>
<!-- 2·2Rβ·gc&#45;&gt;8 -->
<g id="edge13" class="edge">
<title>2·2Rβ·gc&#45;&gt;8</title>
<path fill="none" stroke="#000000" d="M67.717,-124.3475C76.9037,-113.7803 87.936,-101.0901 94.4352,-93.6143"/>
</g>
<!-- 2·2Rα·2Rβ·gc -->
<g id="node10" class="node">
<title>2·2Rα·2Rβ·gc</title>
<polygon fill="#e066ff" stroke="#ff0000" stroke-width="2.5" points="170.5,-52 81.5,-52 81.5,-16 170.5,-16 170.5,-52"/>
<text text-anchor="start" x="83.5" y="-31.3" font-family="Helvetica,sans-Serif" font-size="14.00" fill="#000000">2·2Rα·2Rβ·γ</text>
<text text-anchor="start" x="161.5" y="-31.3" font-family="Helvetica,sans-Serif" baseline-shift="sub" font-size="14.00" fill="#000000">c</text>
</g>
<!-- IL&#45;15 -->
<g id="node11" class="node">
<title>IL&#45;15</title>
<ellipse fill="#ffc125" stroke="#000000" cx="342" cy="-345.456" rx="20.7069" ry="20.7069"/>
<text text-anchor="middle" x="342" y="-341.756" font-family="Helvetica,sans-Serif" font-size="14.00" fill="#000000">IL&#45;15</text>
</g>
<!-- 13 -->
<g id="node44" class="node">
<title>13</title>
<polygon fill="#eeb422" stroke="#eeb422" points="360,-310.8528 344,-295.8528 360,-280.8528 376,-295.8528 360,-310.8528"/>
<text text-anchor="middle" x="360" y="-292.1528" font-family="Helvetica,sans-Serif" font-size="14.00" fill="#000000">13</text>
</g>
<!-- IL&#45;15&#45;&gt;13 -->
<g id="edge28" class="edge">
<title>IL&#45;15&#45;&gt;13</title>
<path fill="none" stroke="#000000" d="M349.1141,-325.8515C351.3939,-319.569 353.8427,-312.8206 355.8393,-307.3185"/>
</g>
<!-- IL&#45;15&#45;&gt;14 -->
<g id="edge31" class="edge">
<title>IL&#45;15&#45;&gt;14</title>
<path fill="none" stroke="#000000" d="M334.8859,-325.8515C332.6061,-319.569 330.1573,-312.8206 328.1607,-307.3185"/>
</g>
<!-- 15Rα -->
<g id="node12" class="node">
<title>15Rα</title>
<polygon fill="#ffc125" stroke="#000000" points="450,-363.456 396,-363.456 396,-327.456 450,-327.456 450,-363.456"/>
<text text-anchor="middle" x="423" y="-341.756" font-family="Helvetica,sans-Serif" font-size="14.00" fill="#000000">15Rα</text>
</g>
<!-- 15Rα&#45;&gt;13 -->
<g id="edge29" class="edge">
<title>15Rα&#45;&gt;13</title>
<path fill="none" stroke="#000000" d="M399.8989,-327.2673C389.0827,-318.7511 376.8412,-309.1128 368.8034,-302.7842"/>
</g>
<!-- 20 -->
<g id="node48" class="node">
<title>20</title>
<polygon fill="#eeb422" stroke="#eeb422" points="446.4968,-82.4659 446.4968,-91.9605 439.1763,-98.6742 428.8237,-98.6742 421.5032,-91.9605 421.5032,-82.4659 428.8237,-75.7522 439.1763,-75.7522 446.4968,-82.4659"/>
<text text-anchor="middle" x="434" y="-83.5132" font-family="Helvetica,sans-Serif" font-size="14.00" fill="#000000">20</text>
</g>
<!-- 15Rα&#45;&gt;20 -->
<g id="edge41" class="edge">
<title>15Rα&#45;&gt;20</title>
<path fill="none" stroke="#000000" d="M426.4888,-327.1854C427.4055,-321.928 428.3253,-316.1757 429,-310.8528 432.4762,-283.4272 434,-276.4978 434,-248.8528 434,-248.8528 434,-248.8528 434,-195.6396 434,-160.4387 434,-118.8094 434,-98.9259"/>
</g>
<!-- 24 -->
<g id="node52" class="node">
<title>24</title>
<polygon fill="#eeb422" stroke="#eeb422" points="403.4968,-190.8923 403.4968,-200.3869 396.1763,-207.1006 385.8237,-207.1006 378.5032,-200.3869 378.5032,-190.8923 385.8237,-184.1786 396.1763,-184.1786 403.4968,-190.8923"/>
<text text-anchor="middle" x="391" y="-191.9396" font-family="Helvetica,sans-Serif" font-size="14.00" fill="#000000">24</text>
</g>
<!-- 15Rα&#45;&gt;24 -->
<g id="edge53" class="edge">
<title>15Rα&#45;&gt;24</title>
<path fill="none" stroke="#000000" d="M425.4781,-327.3376C427.9204,-304.1849 429.7775,-263.2308 418,-230.8528 414.2079,-220.4278 406.139,-210.5893 399.8044,-203.9759"/>
</g>
<!-- 15·15Rα -->
<g id="node13" class="node">
<title>15·15Rα</title>
<polygon fill="#ffc125" stroke="#000000" points="360,-266.8528 304,-266.8528 304,-230.8528 360,-230.8528 360,-266.8528"/>
<text text-anchor="middle" x="332" y="-245.1528" font-family="Helvetica,sans-Serif" font-size="14.00" fill="#000000">15·15Rα</text>
</g>
<!-- 15·15Rα&#45;&gt;16 -->
<g id="edge34" class="edge">
<title>15·15Rα&#45;&gt;16</title>
<path fill="none" stroke="#000000" d="M336.0627,-230.8373C337.1778,-225.8924 338.3929,-220.5041 339.5295,-215.4637"/>
</g>
<!-- 15·15Rα&#45;&gt;23 -->
<g id="edge49" class="edge">
<title>15·15Rα&#45;&gt;23</title>
<path fill="none" stroke="#000000" d="M321.1663,-230.8373C317.7575,-225.1688 313.9983,-218.9175 310.6055,-213.2757"/>
</g>
<!-- 15·2Rβ -->
<g id="node14" class="node">
<title>15·2Rβ</title>
<polygon fill="#ffc125" stroke="#000000" points="418,-266.8528 364,-266.8528 364,-230.8528 418,-230.8528 418,-266.8528"/>
<text text-anchor="middle" x="391" y="-245.1528" font-family="Helvetica,sans-Serif" font-size="14.00" fill="#000000">15·2Rβ</text>
</g>
<!-- 15·2Rβ&#45;&gt;17 -->
<g id="edge37" class="edge">
<title>15·2Rβ&#45;&gt;17</title>
<path fill="none" stroke="#000000" d="M418.3048,-231.1336C430.6045,-223.1518 444.7619,-213.9645 455.5911,-206.937"/>
</g>
<!-- 15·2Rβ&#45;&gt;24 -->
<g id="edge52" class="edge">
<title>15·2Rβ&#45;&gt;24</title>
<path fill="none" stroke="#000000" d="M391,-230.8373C391,-222.9979 391,-214.0438 391,-207.1288"/>
</g>
<!-- 15·15Rα·2Rβ -->
<g id="node15" class="node">
<title>15·15Rα·2Rβ</title>
<polygon fill="#ffc125" stroke="#000000" points="429,-160.4264 343,-160.4264 343,-124.4264 429,-124.4264 429,-160.4264"/>
<text text-anchor="middle" x="386" y="-138.7264" font-family="Helvetica,sans-Serif" font-size="14.00" fill="#000000">15·15Rα·2Rβ</text>
</g>
<!-- 15·15Rα·2Rβ&#45;&gt;22 -->
<g id="edge46" class="edge">
<title>15·15Rα·2Rβ&#45;&gt;22</title>
<path fill="none" stroke="#000000" d="M420.7132,-124.3801C429.1996,-119.5309 438.1053,-114.0589 446,-108.4264 449.1689,-106.1656 452.3992,-103.5551 455.4204,-100.9552"/>
</g>
<!-- 15·15Rα·gc -->
<g id="node16" class="node">
<title>15·15Rα·gc</title>
<polygon fill="#ffc125" stroke="#000000" points="338.5,-160.4264 263.5,-160.4264 263.5,-124.4264 338.5,-124.4264 338.5,-160.4264"/>
<text text-anchor="start" x="265.5" y="-139.7264" font-family="Helvetica,sans-Serif" font-size="14.00" fill="#000000">15·15Rα·γ</text>
<text text-anchor="start" x="329.5" y="-139.7264" font-family="Helvetica,sans-Serif" baseline-shift="sub" font-size="14.00" fill="#000000">c</text>
</g>
<!-- 15·15Rα·gc&#45;&gt;21 -->
<g id="edge43" class="edge">
<title>15·15Rα·gc&#45;&gt;21</title>
<path fill="none" stroke="#000000" d="M301,-124.3475C301,-115.9189 301,-106.1397 301,-98.7331"/>
</g>
<!-- 15·2Rβ·gc -->
<g id="node17" class="node">
<title>15·2Rβ·gc</title>
<polygon fill="#ffc125" stroke="#ff0000" stroke-width="2.5" points="506.5,-160.4264 439.5,-160.4264 439.5,-124.4264 506.5,-124.4264 506.5,-160.4264"/>
<text text-anchor="start" x="441.5" y="-139.7264" font-family="Helvetica,sans-Serif" font-size="14.00" fill="#000000">15·2Rβ·γ</text>
<text text-anchor="start" x="497.5" y="-139.7264" font-family="Helvetica,sans-Serif" baseline-shift="sub" font-size="14.00" fill="#000000">c</text>
</g>
<!-- 15·2Rβ·gc&#45;&gt;20 -->
<g id="edge40" class="edge">
<title>15·2Rβ·gc&#45;&gt;20</title>
<path fill="none" stroke="#000000" d="M460.2299,-124.3475C453.832,-115.2899 446.3325,-104.6726 440.9949,-97.1161"/>
</g>
<!-- 15·15Rα·2Rβ·gc -->
<g id="node18" class="node">
<title>15·15Rα·2Rβ·gc</title>
<polygon fill="#ffc125" stroke="#ff0000" stroke-width="2.5" points="486,-52 382,-52 382,-16 486,-16 486,-52"/>
<text text-anchor="start" x="384" y="-31.3" font-family="Helvetica,sans-Serif" font-size="14.00" fill="#000000">15·15Rα·2Rβ·γ</text>
<text text-anchor="start" x="477" y="-31.3" font-family="Helvetica,sans-Serif" baseline-shift="sub" font-size="14.00" fill="#000000">c</text>
</g>
<!-- IL&#45;7 -->
<g id="node19" class="node">
<title>IL&#45;7</title>
<ellipse fill="#1e90ff" stroke="#000000" cx="669" cy="-345.456" rx="18" ry="18"/>
<text text-anchor="middle" x="669" y="-341.756" font-family="Helvetica,sans-Serif" font-size="14.00" fill="#000000">IL&#45;7</text>
</g>
<!-- 25 -->
<g id="node53" class="node">
<title>25</title>
<polygon fill="#1c86ee" stroke="#1c86ee" points="621,-310.8528 605,-295.8528 621,-280.8528 637,-295.8528 621,-310.8528"/>
<text text-anchor="middle" x="621" y="-292.1528" font-family="Helvetica,sans-Serif" font-size="14.00" fill="#000000">25</text>
</g>
<!-- IL&#45;7&#45;&gt;25 -->
<g id="edge55" class="edge">
<title>IL&#45;7&#45;&gt;25</title>
<path fill="none" stroke="#000000" d="M656.3886,-332.4234C647.6112,-323.3528 636.1882,-311.5483 628.7287,-303.8396"/>
</g>
<!-- 7Rα -->
<g id="node20" class="node">
<title>7Rα</title>
<polygon fill="#1e90ff" stroke="#000000" points="647,-363.456 593,-363.456 593,-327.456 647,-327.456 647,-363.456"/>
<text text-anchor="middle" x="620" y="-341.756" font-family="Helvetica,sans-Serif" font-size="14.00" fill="#000000">7Rα</text>
</g>
<!-- 7Rα&#45;&gt;25 -->
<g id="edge56" class="edge">
<title>7Rα&#45;&gt;25</title>
<path fill="none" stroke="#000000" d="M620.3667,-327.2673C620.4759,-321.8479 620.5944,-315.9741 620.6989,-310.788"/>
</g>
<!-- 7·7Rα -->
<g id="node21" class="node">
<title>7·7Rα</title>
<polygon fill="#1e90ff" stroke="#000000" points="648,-266.8528 594,-266.8528 594,-230.8528 648,-230.8528 648,-266.8528"/>
<text text-anchor="middle" x="621" y="-245.1528" font-family="Helvetica,sans-Serif" font-size="14.00" fill="#000000">7·7Rα</text>
</g>
<!-- 7·7Rα&#45;&gt;27 -->
<g id="edge58" class="edge">
<title>7·7Rα&#45;&gt;27</title>
<path fill="none" stroke="#000000" d="M621,-230.8373C621,-225.8924 621,-220.5041 621,-215.4637"/>
</g>
<!-- 7·7Rα·gc -->
<g id="node22" class="node">
<title>7·7Rα·gc</title>
<polygon fill="#1e90ff" stroke="#ff0000" stroke-width="2.5" points="653,-160.4264 593,-160.4264 593,-124.4264 653,-124.4264 653,-160.4264"/>
<text text-anchor="start" x="595" y="-139.7264" font-family="Helvetica,sans-Serif" font-size="14.00" fill="#000000">7·7Rα·γ</text>
<text text-anchor="start" x="644" y="-139.7264" font-family="Helvetica,sans-Serif" baseline-shift="sub" font-size="14.00" fill="#000000">c</text>
</g>
<!-- IL&#45;9 -->
<g id="node23" class="node">
<title>IL&#45;9</title>
<ellipse fill="#bcee68" stroke="#000000" cx="787" cy="-345.456" rx="18" ry="18"/>
<text text-anchor="middle" x="787" y="-341.756" font-family="Helvetica,sans-Serif" font-size="14.00" fill="#000000">IL&#45;9</text>
</g>
<!-- 29 -->
<g id="node55" class="node">
<title>29</title>
<polygon fill="#a2cd5a" stroke="#a2cd5a" points="738,-310.8528 722,-295.8528 738,-280.8528 754,-295.8528 738,-310.8528"/>
<text text-anchor="middle" x="738" y="-292.1528" font-family="Helvetica,sans-Serif" font-size="14.00" fill="#000000">29</text>
</g>
<!-- IL&#45;9&#45;&gt;29 -->
<g id="edge61" class="edge">
<title>IL&#45;9&#45;&gt;29</title>
<path fill="none" stroke="#000000" d="M774.1258,-332.4234C765.1656,-323.3528 753.5046,-311.5483 745.8897,-303.8396"/>
</g>
<!-- 9R -->
<g id="node24" class="node">
<title>9R</title>
<polygon fill="#bcee68" stroke="#000000" points="765,-363.456 711,-363.456 711,-327.456 765,-327.456 765,-363.456"/>
<text text-anchor="middle" x="738" y="-341.756" font-family="Helvetica,sans-Serif" font-size="14.00" fill="#000000">9R</text>
</g>
<!-- 9R&#45;&gt;29 -->
<g id="edge62" class="edge">
<title>9R&#45;&gt;29</title>
<path fill="none" stroke="#000000" d="M738,-327.2673C738,-321.9585 738,-316.2136 738,-311.1063"/>
</g>
<!-- 9·9R -->
<g id="node25" class="node">
<title>9·9R</title>
<polygon fill="#bcee68" stroke="#000000" points="765,-266.8528 711,-266.8528 711,-230.8528 765,-230.8528 765,-266.8528"/>
<text text-anchor="middle" x="738" y="-245.1528" font-family="Helvetica,sans-Serif" font-size="14.00" fill="#000000">9·9R</text>
</g>
<!-- 9·9R&#45;&gt;31 -->
<g id="edge64" class="edge">
<title>9·9R&#45;&gt;31</title>
<path fill="none" stroke="#000000" d="M738,-230.8373C738,-225.8924 738,-220.5041 738,-215.4637"/>
</g>
<!-- 9·9R·gc -->
<g id="node26" class="node">
<title>9·9R·gc</title>
<polygon fill="#bcee68" stroke="#ff0000" stroke-width="2.5" points="765,-160.4264 711,-160.4264 711,-124.4264 765,-124.4264 765,-160.4264"/>
<text text-anchor="start" x="714.5" y="-139.7264" font-family="Helvetica,sans-Serif" font-size="14.00" fill="#000000">9·9R·γ</text>
<text text-anchor="start" x="754.5" y="-139.7264" font-family="Helvetica,sans-Serif" baseline-shift="sub" font-size="14.00" fill="#000000">c</text>
</g>
<!-- IL&#45;4 -->
<g id="node27" class="node">
<title>IL&#45;4</title>
<ellipse fill="#e0ffff" stroke="#000000" cx="905" cy="-345.456" rx="18" ry="18"/>
<text text-anchor="middle" x="905" y="-341.756" font-family="Helvetica,sans-Serif" font-size="14.00" fill="#000000">IL&#45;4</text>
</g>
<!-- 32 -->
<g id="node57" class="node">
<title>32</title>
<polygon fill="#d1eeee" stroke="#d1eeee" points="857,-310.8528 841,-295.8528 857,-280.8528 873,-295.8528 857,-310.8528"/>
<text text-anchor="middle" x="857" y="-292.1528" font-family="Helvetica,sans-Serif" font-size="14.00" fill="#000000">32</text>
</g>
<!-- IL&#45;4&#45;&gt;32 -->
<g id="edge67" class="edge">
<title>IL&#45;4&#45;&gt;32</title>
<path fill="none" stroke="#000000" d="M892.3886,-332.4234C883.6112,-323.3528 872.1882,-311.5483 864.7287,-303.8396"/>
</g>
<!-- 4Rα -->
<g id="node28" class="node">
<title>4Rα</title>
<polygon fill="#e0ffff" stroke="#000000" points="883,-363.456 829,-363.456 829,-327.456 883,-327.456 883,-363.456"/>
<text text-anchor="middle" x="856" y="-341.756" font-family="Helvetica,sans-Serif" font-size="14.00" fill="#000000">4Rα</text>
</g>
<!-- 4Rα&#45;&gt;32 -->
<g id="edge68" class="edge">
<title>4Rα&#45;&gt;32</title>
<path fill="none" stroke="#000000" d="M856.3667,-327.2673C856.4759,-321.8479 856.5944,-315.9741 856.6989,-310.788"/>
</g>
<!-- 4·4Rα -->
<g id="node29" class="node">
<title>4·4Rα</title>
<polygon fill="#e0ffff" stroke="#000000" points="884,-266.8528 830,-266.8528 830,-230.8528 884,-230.8528 884,-266.8528"/>
<text text-anchor="middle" x="857" y="-245.1528" font-family="Helvetica,sans-Serif" font-size="14.00" fill="#000000">4·4Rα</text>
</g>
<!-- 4·4Rα&#45;&gt;33 -->
<g id="edge70" class="edge">
<title>4·4Rα&#45;&gt;33</title>
<path fill="none" stroke="#000000" d="M857,-230.8373C857,-225.8924 857,-220.5041 857,-215.4637"/>
</g>
<!-- 4·4Rα·gc -->
<g id="node30" class="node">
<title>4·4Rα·gc</title>
<polygon fill="#e0ffff" stroke="#ff0000" stroke-width="2.5" points="889,-160.4264 829,-160.4264 829,-124.4264 889,-124.4264 889,-160.4264"/>
<text text-anchor="start" x="831" y="-139.7264" font-family="Helvetica,sans-Serif" font-size="14.00" fill="#000000">4·4Rα·γ</text>
<text text-anchor="start" x="880" y="-139.7264" font-family="Helvetica,sans-Serif" baseline-shift="sub" font-size="14.00" fill="#000000">c</text>
</g>
<!-- IL&#45;21 -->
<g id="node31" class="node">
<title>IL&#45;21</title>
<ellipse fill="#b9d3ee" stroke="#000000" cx="1026" cy="-345.456" rx="20.7069" ry="20.7069"/>
<text text-anchor="middle" x="1026" y="-341.756" font-family="Helvetica,sans-Serif" font-size="14.00" fill="#000000">IL&#45;21</text>
</g>
<!-- 34 -->
<g id="node59" class="node">
<title>34</title>
<polygon fill="#9fb6cd" stroke="#9fb6cd" points="979,-310.8528 963,-295.8528 979,-280.8528 995,-295.8528 979,-310.8528"/>
<text text-anchor="middle" x="979" y="-292.1528" font-family="Helvetica,sans-Serif" font-size="14.00" fill="#000000">34</text>
</g>
<!-- IL&#45;21&#45;&gt;34 -->
<g id="edge73" class="edge">
<title>IL&#45;21&#45;&gt;34</title>
<path fill="none" stroke="#000000" d="M1011.6431,-330.3039C1003.4364,-321.6426 993.4672,-311.1213 986.7216,-304.0021"/>
</g>
<!-- 21Rα -->
<g id="node32" class="node">
<title>21Rα</title>
<polygon fill="#b9d3ee" stroke="#000000" points="1001,-363.456 947,-363.456 947,-327.456 1001,-327.456 1001,-363.456"/>
<text text-anchor="middle" x="974" y="-341.756" font-family="Helvetica,sans-Serif" font-size="14.00" fill="#000000">21Rα</text>
</g>
<!-- 21Rα&#45;&gt;34 -->
<g id="edge74" class="edge">
<title>21Rα&#45;&gt;34</title>
<path fill="none" stroke="#000000" d="M975.8334,-327.2673C976.4131,-321.5161 977.0444,-315.2531 977.5898,-309.8434"/>
</g>
<!-- 21·21Rα -->
<g id="node33" class="node">
<title>21·21Rα</title>
<polygon fill="#b9d3ee" stroke="#000000" points="1007,-266.8528 951,-266.8528 951,-230.8528 1007,-230.8528 1007,-266.8528"/>
<text text-anchor="middle" x="979" y="-245.1528" font-family="Helvetica,sans-Serif" font-size="14.00" fill="#000000">21·21Rα</text>
</g>
<!-- 21·21Rα&#45;&gt;35 -->
<g id="edge76" class="edge">
<title>21·21Rα&#45;&gt;35</title>
<path fill="none" stroke="#000000" d="M979,-230.8373C979,-225.8924 979,-220.5041 979,-215.4637"/>
</g>
<!-- 21·21Rα·gc -->
<g id="node34" class="node">
<title>21·21Rα·gc</title>
<polygon fill="#b9d3ee" stroke="#ff0000" stroke-width="2.5" points="1021.5,-160.4264 946.5,-160.4264 946.5,-124.4264 1021.5,-124.4264 1021.5,-160.4264"/>
<text text-anchor="start" x="948.5" y="-139.7264" font-family="Helvetica,sans-Serif" font-size="14.00" fill="#000000">21·21Rα·γ</text>
<text text-anchor="start" x="1012.5" y="-139.7264" font-family="Helvetica,sans-Serif" baseline-shift="sub" font-size="14.00" fill="#000000">c</text>
</g>
<!-- 1&#45;&gt;2·2Rα -->
<g id="edge3" class="edge">
<title>1&#45;&gt;2·2Rα</title>
<path fill="none" stroke="#000000" d="M106.8321,-287.666C109.4912,-281.9851 113.1402,-274.1896 116.4706,-267.0747"/>
</g>
<!-- 2&#45;&gt;2·2Rβ -->
<g id="edge6" class="edge">
<title>2&#45;&gt;2·2Rβ</title>
<path fill="none" stroke="#000000" d="M118.2168,-289.1036C116.1474,-286.3988 113.6047,-283.3405 111,-280.8528 105.9453,-276.0252 100.1364,-271.3148 94.4316,-267.0571"/>
</g>
<!-- 4&#45;&gt;2·2Rα·gc -->
<g id="edge9" class="edge">
<title>4&#45;&gt;2·2Rα·gc</title>
<path fill="none" stroke="#000000" d="M198,-176.1271C198,-171.0252 198,-165.5479 198,-160.5232"/>
</g>
<!-- 5&#45;&gt;2·2Rβ·gc -->
<g id="edge12" class="edge">
<title>5&#45;&gt;2·2Rβ·gc</title>
<path fill="none" stroke="#000000" d="M68.5361,-177.624C65.9864,-172.1968 63.1856,-166.2353 60.6255,-160.7859"/>
</g>
<!-- 8&#45;&gt;2·2Rα·2Rβ·gc -->
<g id="edge15" class="edge">
<title>8&#45;&gt;2·2Rα·2Rβ·gc</title>
<path fill="none" stroke="#000000" d="M104.2934,-78.4261C107.755,-71.3414 112.7408,-61.137 117.0614,-52.2943"/>
</g>
<!-- 9&#45;&gt;2·2Rα·2Rβ·gc -->
<g id="edge18" class="edge">
<title>9&#45;&gt;2·2Rα·2Rβ·gc</title>
<path fill="none" stroke="#000000" d="M126,-75.6667C126,-68.8197 126,-59.9885 126,-52.2199"/>
</g>
<!-- 10&#45;&gt;2·2Rα·2Rβ·gc -->
<g id="edge21" class="edge">
<title>10&#45;&gt;2·2Rα·2Rβ·gc</title>
<path fill="none" stroke="#000000" d="M152.322,-76.4447C148.0279,-69.5205 142.3386,-60.3463 137.3481,-52.299"/>
</g>
<!-- 11&#45;&gt;2·2Rα·2Rβ -->
<g id="edge24" class="edge">
<title>11&#45;&gt;2·2Rα·2Rβ</title>
<path fill="none" stroke="#000000" d="M123.5953,-184.8711C123.335,-177.9469 122.9902,-168.7727 122.6878,-160.7254"/>
</g>
<!-- 12&#45;&gt;2·2Rα·2Rβ -->
<g id="edge27" class="edge">
<title>12&#45;&gt;2·2Rα·2Rβ</title>
<path fill="none" stroke="#000000" d="M53.6886,-184.961C56.2979,-181.3312 59.504,-177.436 63,-174.4264 69.9765,-168.4205 78.2658,-163.074 86.3932,-158.5518"/>
</g>
<!-- 13&#45;&gt;15·15Rα -->
<g id="edge30" class="edge">
<title>13&#45;&gt;15·15Rα</title>
<path fill="none" stroke="#000000" d="M354.0619,-285.8853C350.7871,-280.3883 346.6195,-273.3927 342.7905,-266.9654"/>
</g>
<!-- 14&#45;&gt;15·2Rβ -->
<g id="edge33" class="edge">
<title>14&#45;&gt;15·2Rβ</title>
<path fill="none" stroke="#000000" d="M332.8959,-289.0444C336.3386,-286.4456 340.3279,-283.4779 344,-280.8528 350.4244,-276.2602 357.4234,-271.413 364.0105,-266.9188"/>
</g>
<!-- 16&#45;&gt;15·15Rα·gc -->
<g id="edge36" class="edge">
<title>16&#45;&gt;15·15Rα·gc</title>
<path fill="none" stroke="#000000" d="M331.3312,-179.9617C326.4756,-173.9529 320.8927,-167.0439 315.8508,-160.8046"/>
</g>
<!-- 17&#45;&gt;15·2Rβ·gc -->
<g id="edge39" class="edge">
<title>17&#45;&gt;15·2Rβ·gc</title>
<path fill="none" stroke="#000000" d="M473,-176.1271C473,-171.0252 473,-165.5479 473,-160.5232"/>
</g>
<!-- 20&#45;&gt;15·15Rα·2Rβ·gc -->
<g id="edge42" class="edge">
<title>20&#45;&gt;15·15Rα·2Rβ·gc</title>
<path fill="none" stroke="#000000" d="M434,-75.6667C434,-68.8197 434,-59.9885 434,-52.2199"/>
</g>
<!-- 21&#45;&gt;15·15Rα·2Rβ·gc -->
<g id="edge45" class="edge">
<title>21&#45;&gt;15·15Rα·2Rβ·gc</title>
<path fill="none" stroke="#000000" d="M313.2739,-82.3024C330.3153,-75.4842 362.0572,-62.7843 388.717,-52.1177"/>
</g>
<!-- 22&#45;&gt;15·15Rα·2Rβ·gc -->
<g id="edge48" class="edge">
<title>22&#45;&gt;15·15Rα·2Rβ·gc</title>
<path fill="none" stroke="#000000" d="M458.6094,-70.3762C454.6543,-64.53 450.2048,-57.9531 446.188,-52.0156"/>
</g>
<!-- 23&#45;&gt;15·15Rα·2Rβ -->
<g id="edge51" class="edge">
<title>23&#45;&gt;15·15Rα·2Rβ</title>
<path fill="none" stroke="#000000" d="M314.5106,-181.7989C317.5375,-179.2071 320.7876,-176.6249 324,-174.4264 331.2973,-169.4324 339.4743,-164.6845 347.436,-160.4484"/>
</g>
<!-- 24&#45;&gt;15·15Rα·2Rβ -->
<g id="edge54" class="edge">
<title>24&#45;&gt;15·15Rα·2Rβ</title>
<path fill="none" stroke="#000000" d="M389.9151,-184.0931C389.2717,-177.2461 388.4419,-168.4149 387.712,-160.6463"/>
</g>
<!-- 25&#45;&gt;7·7Rα -->
<g id="edge57" class="edge">
<title>25&#45;&gt;7·7Rα</title>
<path fill="none" stroke="#000000" d="M621,-280.723C621,-276.322 621,-271.4706 621,-266.9087"/>
</g>
<!-- 27&#45;&gt;7·7Rα·gc -->
<g id="edge60" class="edge">
<title>27&#45;&gt;7·7Rα·gc</title>
<path fill="none" stroke="#000000" d="M621.7334,-176.1271C621.9251,-171.0252 622.131,-165.5479 622.3198,-160.5232"/>
</g>
<!-- 29&#45;&gt;9·9R -->
<g id="edge63" class="edge">
<title>29&#45;&gt;9·9R</title>
<path fill="none" stroke="#000000" d="M738,-280.723C738,-276.322 738,-271.4706 738,-266.9087"/>
</g>
<!-- 31&#45;&gt;9·9R·gc -->
<g id="edge66" class="edge">
<title>31&#45;&gt;9·9R·gc</title>
<path fill="none" stroke="#000000" d="M738,-176.1271C738,-171.0252 738,-165.5479 738,-160.5232"/>
</g>
<!-- 32&#45;&gt;4·4Rα -->
<g id="edge69" class="edge">
<title>32&#45;&gt;4·4Rα</title>
<path fill="none" stroke="#000000" d="M857,-280.723C857,-276.322 857,-271.4706 857,-266.9087"/>
</g>
<!-- 33&#45;&gt;4·4Rα·gc -->
<g id="edge72" class="edge">
<title>33&#45;&gt;4·4Rα·gc</title>
<path fill="none" stroke="#000000" d="M857.7334,-176.1271C857.9251,-171.0252 858.131,-165.5479 858.3198,-160.5232"/>
</g>
<!-- 34&#45;&gt;21·21Rα -->
<g id="edge75" class="edge">
<title>34&#45;&gt;21·21Rα</title>
<path fill="none" stroke="#000000" d="M979,-280.723C979,-276.322 979,-271.4706 979,-266.9087"/>
</g>
<!-- 35&#45;&gt;21·21Rα·gc -->
<g id="edge78" class="edge">
<title>35&#45;&gt;21·21Rα·gc</title>
<path fill="none" stroke="#000000" d="M980.8334,-176.1271C981.3128,-171.0252 981.8275,-165.5479 982.2996,-160.5232"/>
</g>
</g>
</svg>
