<?xml version="1.0" encoding="UTF-8" standalone="no"?>
<!-- Created with Inkscape (http://www.inkscape.org/) -->

<svg
   xmlns:dc="http://purl.org/dc/elements/1.1/"
   xmlns:cc="http://creativecommons.org/ns#"
   xmlns:rdf="http://www.w3.org/1999/02/22-rdf-syntax-ns#"
   xmlns:svg="http://www.w3.org/2000/svg"
   xmlns="http://www.w3.org/2000/svg"
   xmlns:sodipodi="http://sodipodi.sourceforge.net/DTD/sodipodi-0.dtd"
   xmlns:inkscape="http://www.inkscape.org/namespaces/inkscape"
   width="210mm"
   height="297mm"
   viewBox="0 0 210 297"
   version="1.1"
   id="svg8"
   inkscape:version="0.92.3 (2405546, 2018-03-11)"
   sodipodi:docname="tensor3D.svg">
  <defs
     id="defs2" />
  <sodipodi:namedview
     id="base"
     pagecolor="#ffffff"
     bordercolor="#666666"
     borderopacity="1.0"
     inkscape:pageopacity="0.0"
     inkscape:pageshadow="2"
     inkscape:zoom="1.4"
     inkscape:cx="346.19932"
     inkscape:cy="907.40588"
     inkscape:document-units="mm"
     inkscape:current-layer="layer1-4"
     showgrid="false"
     inkscape:window-width="1920"
     inkscape:window-height="1001"
     inkscape:window-x="-9"
     inkscape:window-y="-9"
     inkscape:window-maximized="1" />
  <metadata
     id="metadata5">
    <rdf:RDF>
      <cc:Work
         rdf:about="">
        <dc:format>image/svg+xml</dc:format>
        <dc:type
           rdf:resource="http://purl.org/dc/dcmitype/StillImage" />
        <dc:title></dc:title>
      </cc:Work>
    </rdf:RDF>
  </metadata>
  <g
     inkscape:label="Layer 1"
     inkscape:groupmode="layer"
     id="layer1">
    <g
       id="layer1-6"
       inkscape:label="Layer 1"
       transform="translate(2.9162258,4.7453128)">
      <g
         transform="translate(-241.51297,55.298492)"
         inkscape:label="Layer 1"
         id="layer1-4">
        <g
           id="g1261"
           transform="matrix(1.0810455,0,0,1.1645487,-19.558987,5.1773089)">
          <g
             transform="matrix(0.53181387,0,0,0.53360655,547.61188,1.4611623)"
             id="g827"
             style="fill:none">
            <ellipse
               id="ellipse817"
               ry="2.0243001"
               rx="2.8619001"
               cy="-51.608002"
               cx="-512.21997"
               style="opacity:0.831;stroke:#000000;stroke-width:1.27489996;stroke-linecap:round" />
            <g
               id="g825"
               style="stroke-width:1.24179995">
              <path
                 id="path819"
                 d="m -512.7,-48.34 -0.0189,26.661"
                 inkscape:connector-curvature="0"
                 style="stroke:#ff3b3b" />
              <path
                 id="path821"
                 d="m -481.69,-51.419 -26.466,-0.01904"
                 inkscape:connector-curvature="0"
                 style="stroke:#38d370" />
              <path
                 id="path823"
                 d="M -490.82,-73.186 -509.196,-54"
                 inkscape:connector-curvature="0"
                 style="stroke:#479afe" />
            </g>
          </g>
          <g
             transform="matrix(0.53181387,0,0,0.53360655,547.61188,1.4611623)"
             id="g847"
             style="stroke-width:0.13221">
            <g
               id="g833"
               aria-label="b1"
               style="font-variant-ligatures:normal;font-variant-caps:normal;font-variant-numeric:normal;font-feature-settings:normal"
               transform="matrix(1.3216,0,0,1.3313,-713.84,-428.97)">
              <path
                 id="path829"
                 d="m 172.33,285.71 -0.6252,2.1827 q 0.47438,-0.51825 0.89392,-0.51825 0.41954,0 0.65262,0.31808 0.21114,0.28243 0.21114,0.71843 0,0.97892 -0.70746,1.744 -0.62794,0.67729 -1.4341,0.67729 -0.59778,0 -1.2641,-0.35099 l 1.1078,-3.8417 q 0.0795,-0.27421 0.0795,-0.37293 0,-0.21936 -0.38115,-0.19743 l 0.0411,-0.14533 1.2093,-0.21388 z m -1.3902,4.8069 q 0.17001,0.10968 0.30711,0.10968 0.19469,0 0.32357,-0.0768 0.5018,-0.29615 0.81166,-1.223 0.15081,-0.45518 0.15081,-0.91037 0,-0.52374 -0.38389,-0.52374 -0.24953,0 -0.44148,0.24679 -0.12613,0.16178 -0.27421,0.6773 z"
                 inkscape:connector-curvature="0" />
              <path
                 id="path831"
                 baseline-shift="sub"
                 d="m 175.84,289.72 -0.77889,2.6771 q -0.0624,0.21032 -0.0624,0.26557 0,0.14615 0.13902,0.19428 0.0499,0.0178 0.30301,0.0321 l -0.025,0.0873 h -1.6077 l 0.0267,-0.0873 q 0.18715,-0.004 0.26557,-0.0214 0.14616,-0.0321 0.2228,-0.13368 0.0606,-0.082 0.13546,-0.33686 l 0.57035,-1.9731 q 0.0143,-0.0624 0.0143,-0.11586 0,-0.22992 -0.24953,-0.22992 -0.0588,0 -0.23171,0.0178 l -0.0196,-0.0873 1.1977,-0.28874 z"
                 inkscape:connector-curvature="0"
                 style="baseline-shift:sub" />
            </g>
            <g
               id="g839"
               aria-label="c1"
               style="font-variant-ligatures:normal;font-variant-caps:normal;font-variant-numeric:normal;font-feature-settings:normal"
               transform="matrix(1.3216,0,0,1.3313,-713.84,-428.97)">
              <path
                 id="path835"
                 d="m 173.16,271.89 0.10968,0.0987 q -0.35099,0.41679 -0.69101,0.61422 -0.45518,0.2605 -0.93779,0.2605 -0.69649,0 -0.94876,-0.52922 -0.12066,-0.25227 -0.12066,-0.51826 0,-0.606 0.32906,-1.1818 0.32356,-0.56212 0.8473,-0.89392 0.52648,-0.33453 1.0365,-0.33453 0.81988,0 0.81988,0.63068 0,0.21937 -0.1371,0.39486 -0.15081,0.1892 -0.3647,0.1892 -0.38663,0 -0.38663,-0.36744 0,-0.19468 0.19469,-0.34002 0.13436,-0.0987 0.13436,-0.17823 0,-0.0631 -0.0548,-0.1042 -0.074,-0.0576 -0.18921,-0.0576 -0.30163,0 -0.57035,0.24678 -0.73214,0.67182 -0.73214,1.7741 0,0.30986 0.16453,0.53197 0.18097,0.24405 0.4826,0.24405 0.53471,0 1.0146,-0.47987 z"
                 inkscape:connector-curvature="0" />
              <path
                 id="path837"
                 baseline-shift="sub"
                 d="m 175.81,271.76 -0.77889,2.6771 q -0.0624,0.21032 -0.0624,0.26557 0,0.14615 0.13902,0.19428 0.0499,0.0178 0.303,0.0321 l -0.0249,0.0873 h -1.6077 l 0.0267,-0.0873 q 0.18714,-0.004 0.26557,-0.0214 0.14615,-0.0321 0.22279,-0.13368 0.0606,-0.082 0.13546,-0.33686 l 0.57036,-1.9731 q 0.0143,-0.0624 0.0143,-0.11586 0,-0.22992 -0.24953,-0.22992 -0.0588,0 -0.23171,0.0178 l -0.0196,-0.0873 1.1978,-0.28874 z"
                 inkscape:connector-curvature="0"
                 style="baseline-shift:sub" />
            </g>
            <g
               id="g845"
               aria-label="a1"
               style="font-variant-ligatures:normal;font-variant-caps:normal;font-variant-numeric:normal;font-feature-settings:normal"
               transform="matrix(1.3216,0,0,1.3313,-713.84,-428.97)">
              <path
                 id="path841"
                 d="m 147.47,299.97 -0.77601,2.701 q -0.008,0.0439 -0.008,0.0795 0,0.10694 0.0932,0.10694 0.0768,0 0.2084,-0.11517 0.0548,-0.0466 0.2605,-0.33179 l 0.12887,0.0631 q -0.49357,0.90215 -1.1764,0.90215 -0.42503,0 -0.42503,-0.37567 0,-0.13436 0.11517,-0.52648 l 0.0877,-0.2934 q -0.41954,0.72117 -0.80618,1.0228 -0.22485,0.17276 -0.47986,0.17276 -0.62794,0 -0.62794,-0.89118 0,-0.5731 0.33728,-1.2285 0.32905,-0.63616 0.79246,-1.0036 0.4168,-0.33454 0.7815,-0.33454 0.40583,0 0.50728,0.54842 l 0.12888,-0.44696 z m -1.1572,0.68827 q 0,-0.51552 -0.26872,-0.51552 -0.33728,0 -0.75408,1.0201 -0.28243,0.68552 -0.28243,1.1846 0,0.36196 0.20291,0.36196 0.16179,0 0.32905,-0.18921 0.23857,-0.26598 0.43051,-0.65261 0.34276,-0.68552 0.34276,-1.2093 z"
                 inkscape:connector-curvature="0" />
              <path
                 id="path843"
                 baseline-shift="sub"
                 d="m 149.77,302.26 -0.77889,2.6771 q -0.0624,0.21032 -0.0624,0.26557 0,0.14616 0.13902,0.19428 0.0499,0.0178 0.303,0.0321 l -0.0249,0.0873 h -1.6077 l 0.0267,-0.0873 q 0.18714,-0.004 0.26557,-0.0214 0.14615,-0.0321 0.22279,-0.13367 0.0606,-0.082 0.13546,-0.33687 l 0.57036,-1.9731 q 0.0143,-0.0624 0.0143,-0.11585 0,-0.22993 -0.24953,-0.22993 -0.0588,0 -0.23171,0.0178 l -0.0196,-0.0873 1.1978,-0.28874 z"
                 inkscape:connector-curvature="0"
                 style="baseline-shift:sub" />
            </g>
          </g>
          <g
             id="g949"
             transform="matrix(0.53181387,0,0,0.53360655,574.75943,12.199209)">
            <g
               id="g899"
               style="stroke-width:1.24179995">
              <path
                 id="path881"
                 d="m -626.51,-76.756 h 24.174"
                 inkscape:connector-curvature="0"
                 style="fill:#008000;stroke:#38d370" />
              <path
                 id="path883"
                 d="m -627.13,-77.376 v 24.351"
                 inkscape:connector-curvature="0"
                 style="fill:#c83737;stroke:#ff3b3b" />
              <path
                 id="path885"
                 d="m -602.34,-53.67 h -24.174"
                 inkscape:connector-curvature="0"
                 style="fill:#0000ff;stroke:#38d370" />
              <path
                 id="path887"
                 d="m -602.95,-77.376 v 24.351"
                 inkscape:connector-curvature="0"
                 style="fill:#c83737;stroke:#ff3b3b" />
              <path
                 id="path889"
                 d="m -615.03,-88.849 h 24.174"
                 inkscape:connector-curvature="0"
                 style="fill:#008000;stroke:#38d370" />
              <path
                 id="path891"
                 d="m -615.64,-89.469 v 24.351"
                 inkscape:connector-curvature="0"
                 style="fill:#c83737;stroke:#ff3b3b" />
              <path
                 id="path893"
                 d="m -590.85,-65.763 h -24.174"
                 inkscape:connector-curvature="0"
                 style="fill:#0000ff;stroke:#38d370" />
              <path
                 id="path895"
                 d="m -591.47,-89.469 v 24.351"
                 inkscape:connector-curvature="0"
                 style="fill:#c83737;stroke:#ff3b3b" />
              <path
                 id="path897"
                 d="m -615.71,-89.206 -11.483,12.093"
                 inkscape:connector-curvature="0"
                 style="fill:#00ffff;stroke:#69adfe" />
            </g>
            <g
               id="g907"
               style="fill:#69adfe;stroke:#479afe;stroke-width:1.24179995">
              <path
                 id="path901"
                 d="m -591.44,-89.206 -11.483,12.093"
                 inkscape:connector-curvature="0" />
              <path
                 id="path903"
                 d="m -615.71,-65.599 -11.483,12.093"
                 inkscape:connector-curvature="0" />
              <path
                 id="path905"
                 d="m -591.44,-65.599 -11.483,12.093"
                 inkscape:connector-curvature="0" />
            </g>
            <g
               id="g933"
               style="stroke-width:1.00450003">
              <g
                 id="g913"
                 transform="matrix(0.41059,0,0,0.41361,-705.6,-125.89)">
                <circle
                   id="circle909"
                   r="4.4942999"
                   cy="118.88"
                   cx="191.67999" />
                <circle
                   id="circle911"
                   r="4.4942999"
                   cy="118.88"
                   cx="250.11" />
              </g>
              <g
                 id="g919"
                 transform="matrix(0.41059,0,0,0.41361,-694.51,-138.38)">
                <circle
                   id="circle915"
                   r="4.4942999"
                   cy="118.88"
                   cx="191.67999" />
                <circle
                   id="circle917"
                   r="4.4942999"
                   cy="118.88"
                   cx="250.11" />
              </g>
              <g
                 id="g925"
                 transform="matrix(0.41059,0,0,0.41361,-694.51,-138.38)">
                <circle
                   id="circle921"
                   r="4.4942999"
                   cy="174.81"
                   cx="191.67999" />
                <circle
                   id="circle923"
                   r="4.4942999"
                   cy="174.81"
                   cx="250.11" />
              </g>
              <g
                 id="g931"
                 transform="matrix(0.41059,0,0,0.41361,-705.6,-103.28)">
                <circle
                   id="circle927"
                   r="4.4942999"
                   cy="118.88"
                   cx="191.67999" />
                <circle
                   id="circle929"
                   r="4.4942999"
                   cy="118.88"
                   cx="250.11" />
              </g>
            </g>
            <g
               transform="matrix(1.3216,0,0,1.3313,-700.31996,-428.97)"
               style="font-variant-ligatures:normal;font-variant-caps:normal;font-variant-numeric:normal;font-feature-settings:normal"
               aria-label="K"
               id="g937">
              <path
                 style="stroke-width:0.083048"
                 inkscape:connector-curvature="0"
                 d="m 54.729,256.23 h 0.10334 q 0.1309,0 0.2377,-0.0413 0.11024,-0.0413 0.24458,-0.15502 0.13435,-0.11368 0.40994,-0.42372 0.3307,-0.36859 0.45128,-0.53395 0.15157,-0.19635 0.20325,-0.3307 0.04134,-0.0999 0.04134,-0.19291 0,-0.1378 -0.07923,-0.1998 -0.07923,-0.0655 -0.21702,-0.0792 v -0.16879 h 1.502 v 0.16879 q -0.11024,0.0241 -0.21702,0.0861 -0.10679,0.0586 -0.22047,0.16535 -0.11024,0.10334 -0.32726,0.34448 l -1.1575,1.3022 1.2539,1.8223 q 0.1998,0.28936 0.31348,0.40649 0.11368,0.11368 0.21702,0.1688 0.10335,0.0517 0.22047,0.0689 v 0.1688 h -1.5192 v -0.1688 q 0.12746,-0.0103 0.18602,-0.0482 0.05856,-0.0379 0.05856,-0.11368 0,-0.062 -0.04134,-0.14812 -0.03789,-0.0896 -0.12401,-0.21358 l -0.80265,-1.1954 q -0.14124,-0.21359 -0.20669,-0.28248 -0.06545,-0.0689 -0.14124,-0.0999 -0.07579,-0.0344 -0.20325,-0.0344 h -0.18258 v 1.4434 q 0,0.2308 0.01378,0.33759 0.01723,0.10679 0.05167,0.1688 0.03789,0.062 0.10679,0.10335 0.07234,0.0413 0.2308,0.0827 v 0.1688 h -1.4503 v -0.1688 q 0.21358,-0.0551 0.28592,-0.12057 0.07234,-0.0689 0.09301,-0.19291 0.02411,-0.12401 0.02411,-0.37893 v -2.9798 q 0,-0.2377 -0.01722,-0.34449 -0.01722,-0.11023 -0.05856,-0.16879 -0.03789,-0.062 -0.10334,-0.0965 -0.06545,-0.0379 -0.22392,-0.0827 v -0.16879 h 1.4503 v 0.16879 q -0.15157,0.0379 -0.22047,0.0758 -0.06545,0.0379 -0.10679,0.0965 -0.03789,0.0551 -0.05856,0.16879 -0.01722,0.11368 -0.01722,0.35138 z"
                 id="path935" />
            </g>
            <g
               transform="matrix(1.3216,0,0,1.3313,-697.3349,-429.96168)"
               style="font-variant-ligatures:normal;font-variant-caps:normal;font-variant-numeric:normal;font-feature-settings:normal"
               aria-label="I"
               id="g941">
              <path
                 style="stroke-width:0.083048"
                 inkscape:connector-curvature="0"
                 d="m 51.121,273.77 q 0,0.2308 0.01378,0.33759 0.01722,0.10679 0.05167,0.1688 0.03789,0.062 0.10679,0.10335 0.07234,0.0413 0.2308,0.0827 v 0.1688 h -1.4537 v -0.1688 q 0.21358,-0.0551 0.28592,-0.12057 0.07234,-0.0689 0.09301,-0.19291 0.02411,-0.12401 0.02411,-0.37893 v -2.9798 q 0,-0.2377 -0.01722,-0.34449 -0.01722,-0.11023 -0.05856,-0.16879 -0.03789,-0.062 -0.10334,-0.0965 -0.06545,-0.0379 -0.22392,-0.0827 v -0.16879 h 1.4537 v 0.16879 q -0.15157,0.0379 -0.22047,0.0758 -0.06545,0.0379 -0.10679,0.0965 -0.03789,0.0551 -0.05856,0.16879 -0.01722,0.11368 -0.01722,0.35138 z"
                 id="path939" />
            </g>
            <g
               transform="matrix(1.3216,0,0,1.3313,-702.31,-428.97)"
               style="font-variant-ligatures:normal;font-variant-caps:normal;font-variant-numeric:normal;font-feature-settings:normal"
               aria-label="J"
               id="g945">
              <path
                 style="stroke-width:0.083048"
                 inkscape:connector-curvature="0"
                 d="m 64.498,288.77 q 0,0.46505 -0.11024,0.75442 -0.10679,0.28937 -0.36515,0.48917 -0.25492,0.1998 -0.71653,0.34104 l -0.11368,-0.30315 q 0.30315,-0.11712 0.43061,-0.23769 0.12746,-0.11713 0.17569,-0.29626 0.05167,-0.17913 0.05167,-0.48228 v -3.872 q 0,-0.2997 -0.031,-0.40994 -0.02756,-0.11023 -0.09646,-0.1688 -0.06545,-0.0586 -0.27559,-0.11368 v -0.16879 h 1.4537 v 0.16879 q -0.15157,0.0379 -0.22047,0.0758 -0.06545,0.0379 -0.10679,0.0965 -0.03789,0.0551 -0.05856,0.16879 -0.01722,0.11368 -0.01722,0.35138 z"
                 id="path943" />
            </g>
          </g>
          <g
             id="g953"
             aria-label="="
             style="font-variant-ligatures:normal;font-variant-caps:normal;font-variant-numeric:normal;font-feature-settings:normal"
             transform="matrix(0.70284519,0,0,0.7103904,178.93322,-227.44002)">
            <path
               id="path951"
               d="m 121.41,282.54 v -0.91253 h 5.8166 V 282.54 Z m 0,2.7245 v -0.91253 h 5.8166 v 0.91253 z"
               inkscape:connector-curvature="0"
               style="stroke-width:0.15827" />
          </g>
          <g
             id="g961"
             transform="matrix(0.70284519,0,0,0.7103904,112.45718,-227.44002)"
             style="stroke-width:1.00450003">
            <path
               id="path955"
               d="m 272.63,283.44 a 0.97737,0.97737 0 0 1 -0.97737,0.97737 0.97737,0.97737 0 0 1 -0.97737,-0.97737 0.97737,0.97737 0 0 1 0.97737,-0.97737 0.97737,0.97737 0 0 1 0.97737,0.97737 z"
               inkscape:connector-curvature="0" />
            <path
               id="path957"
               d="m 277.44,283.44 a 0.97737,0.97737 0 0 1 -0.97737,0.97737 0.97737,0.97737 0 0 1 -0.97737,-0.97737 0.97737,0.97737 0 0 1 0.97737,-0.97737 0.97737,0.97737 0 0 1 0.97737,0.97737 z"
               inkscape:connector-curvature="0" />
            <path
               id="path959"
               d="m 282.26,283.44 a 0.97737,0.97737 0 0 1 -0.97737,0.97737 0.97737,0.97737 0 0 1 -0.97737,-0.97737 0.97737,0.97737 0 0 1 0.97737,-0.97737 0.97737,0.97737 0 0 1 0.97737,0.97737 z"
               inkscape:connector-curvature="0" />
          </g>
          <g
             transform="matrix(0.53181387,0,0,0.53360655,485.58139,1.4611623)"
             id="g973"
             style="fill:none">
            <ellipse
               id="ellipse963"
               ry="2.0243001"
               rx="2.8619001"
               cy="-51.608002"
               cx="-302.88"
               style="opacity:0.831;stroke:#000000;stroke-width:1.27489996;stroke-linecap:round" />
            <g
               id="g971"
               style="stroke-width:1.24179995">
              <path
                 id="path965"
                 d="m -303.36,-48.34 -0.0189,26.661"
                 inkscape:connector-curvature="0"
                 style="stroke:#ff3b3b" />
              <path
                 id="path967"
                 d="m -272.35,-51.419 -26.466,-0.01904"
                 inkscape:connector-curvature="0"
                 style="stroke:#38d370" />
              <path
                 id="path969"
                 d="M -281.48,-73.186 -299.856,-54"
                 inkscape:connector-curvature="0"
                 style="stroke:#479afe" />
            </g>
          </g>
          <g
             transform="matrix(0.7028452,0,0,0.7103904,98.21884,-227.44002)"
             style="font-variant-ligatures:normal;font-variant-caps:normal;font-variant-numeric:normal;font-feature-settings:normal;stroke-width:0.13221"
             aria-label="bR"
             id="g979">
            <path
               inkscape:connector-curvature="0"
               d="m 341.72,285.71 -0.6252,2.1827 q 0.47438,-0.51825 0.89392,-0.51825 0.41954,0 0.65262,0.31808 0.21114,0.28243 0.21114,0.71843 0,0.97892 -0.70746,1.744 -0.62794,0.67729 -1.4341,0.67729 -0.59778,0 -1.2641,-0.35099 l 1.1078,-3.8417 q 0.0795,-0.27421 0.0795,-0.37293 0,-0.21936 -0.38115,-0.19743 l 0.0411,-0.14533 1.2093,-0.21388 z m -1.3902,4.8069 q 0.17001,0.10968 0.30711,0.10968 0.19469,0 0.32357,-0.0768 0.5018,-0.29615 0.81166,-1.223 0.15081,-0.45518 0.15081,-0.91037 0,-0.52374 -0.38389,-0.52374 -0.24953,0 -0.44148,0.24679 -0.12613,0.16178 -0.2742,0.6773 z"
               id="path975" />
            <path
               style="baseline-shift:sub"
               inkscape:connector-curvature="0"
               d="m 344.47,291.42 -0.28161,0.96782 q -0.0624,0.20854 -0.0624,0.30122 0,0.19428 0.37786,0.20141 l -0.0339,0.0873 h -1.5364 l 0.0285,-0.0873 q 0.25488,0 0.36895,-0.1212 0.0856,-0.0927 0.16576,-0.36717 l 0.59174,-2.0479 q 0.0499,-0.1711 0.0499,-0.27092 0,-0.18358 -0.34578,-0.20853 l 0.0232,-0.0873 h 1.3225 q 1.0284,0 1.0284,0.70582 0,0.32795 -0.26913,0.58996 -0.16754,0.16576 -0.59888,0.28517 l 0.28696,0.96782 q 0.0945,0.31905 0.14081,0.39034 0.10338,0.15507 0.34578,0.16398 v 0.0873 h -0.99278 l -0.45093,-1.5578 -0.0784,0.005 q -0.0143,0 -0.0802,-0.005 z m 0.0339,-0.1408 q 0.082,0.005 0.13903,0.005 0.36003,0 0.57748,-0.24953 0.20675,-0.23705 0.20675,-0.60243 0,-0.46163 -0.42776,-0.46163 -0.0463,0 -0.11051,0.002 z"
               baseline-shift="sub"
               id="path977" />
          </g>
          <g
             transform="matrix(0.7028452,0,0,0.7103904,98.21884,-227.44002)"
             style="font-variant-ligatures:normal;font-variant-caps:normal;font-variant-numeric:normal;font-feature-settings:normal;stroke-width:0.13221"
             aria-label="cR"
             id="g985">
            <path
               inkscape:connector-curvature="0"
               d="m 342.56,271.89 0.10969,0.0987 q -0.35099,0.41679 -0.69101,0.61422 -0.45519,0.2605 -0.93779,0.2605 -0.6965,0 -0.94877,-0.52922 -0.12065,-0.25227 -0.12065,-0.51826 0,-0.606 0.32905,-1.1818 0.32357,-0.56212 0.84731,-0.89392 0.52648,-0.33453 1.0365,-0.33453 0.81988,0 0.81988,0.63068 0,0.21937 -0.1371,0.39486 -0.15082,0.1892 -0.3647,0.1892 -0.38664,0 -0.38664,-0.36744 0,-0.19468 0.19469,-0.34002 0.13436,-0.0987 0.13436,-0.17823 0,-0.0631 -0.0548,-0.1042 -0.074,-0.0576 -0.1892,-0.0576 -0.30163,0 -0.57036,0.24678 -0.73213,0.67182 -0.73213,1.7741 0,0.30986 0.16452,0.53197 0.18098,0.24405 0.48261,0.24405 0.53471,0 1.0146,-0.47987 z"
               id="path981" />
            <path
               style="baseline-shift:sub"
               inkscape:connector-curvature="0"
               d="m 344.45,273.45 -0.28161,0.96782 q -0.0624,0.20854 -0.0624,0.30122 0,0.19428 0.37786,0.20141 l -0.0339,0.0873 h -1.5364 l 0.0285,-0.0873 q 0.25488,0 0.36895,-0.1212 0.0856,-0.0927 0.16576,-0.36717 l 0.59174,-2.0479 q 0.0499,-0.1711 0.0499,-0.27092 0,-0.18358 -0.34578,-0.20853 l 0.0232,-0.0873 h 1.3225 q 1.0284,0 1.0284,0.70582 0,0.32795 -0.26913,0.58996 -0.16754,0.16576 -0.59888,0.28517 l 0.28696,0.96782 q 0.0945,0.31905 0.14081,0.39034 0.10338,0.15507 0.34578,0.16398 v 0.0873 h -0.99278 l -0.45093,-1.5578 -0.0784,0.005 q -0.0143,0 -0.0802,-0.005 z m 0.0339,-0.1408 q 0.082,0.005 0.13903,0.005 0.36003,0 0.57748,-0.24953 0.20675,-0.23705 0.20675,-0.60243 0,-0.46163 -0.42776,-0.46163 -0.0463,0 -0.11051,0.002 z"
               baseline-shift="sub"
               id="path983" />
          </g>
          <g
             transform="matrix(0.7028452,0,0,0.7103904,98.21884,-227.44002)"
             style="font-variant-ligatures:normal;font-variant-caps:normal;font-variant-numeric:normal;font-feature-settings:normal;stroke-width:0.13221"
             aria-label="aR"
             id="g991">
            <path
               inkscape:connector-curvature="0"
               d="m 316.87,299.97 -0.77602,2.701 q -0.008,0.0439 -0.008,0.0795 0,0.10694 0.0932,0.10694 0.0768,0 0.2084,-0.11517 0.0548,-0.0466 0.2605,-0.33179 l 0.12887,0.0631 q -0.49357,0.90215 -1.1764,0.90215 -0.42503,0 -0.42503,-0.37567 0,-0.13436 0.11517,-0.52648 l 0.0878,-0.2934 q -0.41954,0.72117 -0.80617,1.0228 -0.22486,0.17276 -0.47987,0.17276 -0.62794,0 -0.62794,-0.89118 0,-0.5731 0.33728,-1.2285 0.32905,-0.63616 0.79246,-1.0036 0.4168,-0.33454 0.7815,-0.33454 0.40583,0 0.50728,0.54842 l 0.12888,-0.44696 z m -1.1572,0.68827 q 0,-0.51552 -0.26872,-0.51552 -0.33728,0 -0.75407,1.0201 -0.28244,0.68552 -0.28244,1.1846 0,0.36196 0.20291,0.36196 0.16179,0 0.32906,-0.18921 0.23856,-0.26598 0.4305,-0.65261 0.34276,-0.68552 0.34276,-1.2093 z"
               id="path987" />
            <path
               style="baseline-shift:sub"
               inkscape:connector-curvature="0"
               d="m 318.41,303.96 -0.28161,0.96782 q -0.0624,0.20853 -0.0624,0.30122 0,0.19427 0.37786,0.2014 l -0.0339,0.0873 h -1.5364 l 0.0285,-0.0873 q 0.25488,0 0.36895,-0.1212 0.0856,-0.0927 0.16576,-0.36716 l 0.59174,-2.0479 q 0.0499,-0.17111 0.0499,-0.27092 0,-0.18358 -0.34578,-0.20854 l 0.0232,-0.0873 h 1.3225 q 1.0284,0 1.0284,0.70581 0,0.32796 -0.26914,0.58996 -0.16754,0.16576 -0.59887,0.28518 l 0.28696,0.96782 q 0.0945,0.31904 0.14081,0.39034 0.10337,0.15506 0.34577,0.16397 v 0.0873 h -0.99277 l -0.45094,-1.5578 -0.0784,0.005 q -0.0143,0 -0.0802,-0.005 z m 0.0339,-0.14081 q 0.082,0.005 0.13902,0.005 0.36004,0 0.57749,-0.24953 0.20675,-0.23706 0.20675,-0.60244 0,-0.46163 -0.42777,-0.46163 -0.0463,0 -0.1105,0.002 z"
               baseline-shift="sub"
               id="path989" />
          </g>
          <g
             transform="matrix(0.7028452,0,0,0.7103904,117.06866,-227.44002)"
             style="font-variant-ligatures:normal;font-variant-caps:normal;font-variant-numeric:normal;font-feature-settings:normal"
             aria-label="+"
             id="g999">
            <path
               style="stroke-width:0.15827"
               inkscape:connector-curvature="0"
               d="m 256.02,283.9 v 2.4881 h -0.96505 V 283.9 h -2.4225 v -0.91253 h 2.4225 v -2.4816 H 256.02 v 2.4816 h 2.429 V 283.9 Z"
               id="path997" />
          </g>
          <g
             transform="matrix(0.72432011,0,0,0.78634752,75.672304,-248.91169)"
             style="font-variant-ligatures:normal;font-variant-caps:normal;font-variant-numeric:normal;font-feature-settings:normal"
             aria-label="Σ"
             id="g1005">
            <path
               style="stroke-width:0.21494"
               inkscape:connector-curvature="0"
               d="m 379.25,278.18 3.0581,4.6183 v 0.52603 l -3.4326,4.7342 h 4.0388 q 0.77567,0 1.1234,-0.34771 0.34773,-0.34771 0.5706,-1.5781 h 0.89157 l -0.19614,3.3969 h -8.4521 v -0.43687 l 3.9942,-5.4921 -3.7446,-5.8041 v -0.43687 h 8.2381 v 3.1116 h -0.83807 q -0.36555,-1.4354 -0.75784,-1.8634 -0.38337,-0.42796 -1.1145,-0.42796 z"
               id="path1003" />
          </g>
          <g
             transform="matrix(0.72432011,0,0,0.78634752,75.672304,-248.91169)"
             style="font-variant-ligatures:normal;font-variant-caps:normal;font-variant-numeric:normal;font-feature-settings:normal"
             aria-label="R"
             id="g1009">
            <path
               style="stroke-width:0.13221"
               inkscape:connector-curvature="0"
               d="m 381.05,272.79 -0.43325,1.489 q -0.096,0.32082 -0.096,0.46341 0,0.29889 0.58132,0.30986 l -0.0521,0.13436 h -2.3637 l 0.0439,-0.13436 q 0.39212,0 0.56761,-0.18647 0.13162,-0.14258 0.25501,-0.56487 l 0.91038,-3.1507 q 0.0768,-0.26324 0.0768,-0.41679 0,-0.28244 -0.53196,-0.32083 l 0.0356,-0.13436 h 2.0346 q 1.5822,0 1.5822,1.0859 0,0.50454 -0.41405,0.90763 -0.25776,0.25501 -0.92135,0.43873 l 0.44148,1.489 q 0.14533,0.49083 0.21663,0.60051 0.15904,0.23857 0.53196,0.25228 v 0.13436 h -1.5273 l -0.69375,-2.3966 -0.12065,0.008 q -0.0219,0 -0.1234,-0.008 z m 0.0521,-0.21662 q 0.12614,0.008 0.21389,0.008 0.5539,0 0.88843,-0.38389 0.31808,-0.3647 0.31808,-0.92682 0,-0.71021 -0.6581,-0.71021 -0.0713,0 -0.17001,0.003 z"
               id="path1007" />
          </g>
          <path
             inkscape:connector-curvature="0"
             d="m 349.14921,-18.308677 -0.39529,1.599978 q 0.48666,-1.168736 0.73494,-1.440381 0.14301,-0.15956 0.30389,-0.15956 0.24629,0 0.24629,0.334225 0,0.276007 -0.12318,0.463603 -0.0799,0.1186 -0.17676,0.1186 -0.0953,0 -0.14897,-0.09062 -0.0778,-0.133685 -0.0817,-0.137997 -0.0201,-0.01716 -0.0434,-0.01716 -0.0779,0 -0.20656,0.183287 -0.2006,0.284626 -0.44098,0.966028 -0.0776,0.215637 -0.21251,0.81942 h -0.63558 l 0.43302,-1.886746 q 0.0474,-0.207005 0.0474,-0.280317 0,-0.138008 -0.0933,-0.181132 -0.0437,-0.01935 -0.18077,-0.01935 l 0.024,-0.08418 0.7925,-0.1876 z"
             style="font-variant-ligatures:normal;font-variant-caps:normal;font-variant-numeric:normal;font-feature-settings:normal;stroke-width:0.56896377"
             id="path1011" />
          <path
             inkscape:connector-curvature="0"
             d="m 350.25742,-18.241933 h 2.86802 v 0.36872 h -2.86802 z m 0,0.929345 h 2.86802 v 0.370876 h -2.86802 z"
             style="font-variant-ligatures:normal;font-variant-caps:normal;font-variant-numeric:normal;font-feature-settings:normal;stroke-width:0.56896377"
             id="path1013" />
          <path
             inkscape:connector-curvature="0"
             d="m 355.50783,-19.608724 -0.86797,3.238779 q -0.0693,0.254428 -0.0693,0.321282 0,0.176819 0.15493,0.235043 0.0559,0.02147 0.3377,0.0389 l -0.0279,0.10566 h -1.79159 l 0.0298,-0.10566 q 0.20856,-0.0036 0.29597,-0.0259 0.16281,-0.0389 0.24821,-0.161725 0.0673,-0.0992 0.15097,-0.407543 l 0.63561,-2.387035 q 0.016,-0.07542 0.016,-0.140165 0,-0.278165 -0.2781,-0.278165 -0.0653,0 -0.25819,0.02146 l -0.0221,-0.105651 1.33469,-0.349324 z"
             style="font-variant-ligatures:normal;font-variant-caps:normal;font-variant-numeric:normal;font-feature-settings:normal;stroke-width:0.56896377"
             id="path1015" />
          <ellipse
             id="ellipse1019"
             ry="1.151376"
             rx="1.294251"
             cy="-26.567307"
             cx="363.70724"
             style="opacity:0.831;fill:none;stroke:#000000;stroke-width:0.32702896;stroke-linecap:round" />
          <g
             id="g1025"
             aria-label="ar"
             style="font-variant-ligatures:normal;font-variant-caps:normal;font-variant-numeric:normal;font-feature-settings:normal;stroke-width:0.13221"
             transform="matrix(0.72432009,0,0,0.78634752,76.193045,-248.91169)">
            <path
               id="path1021"
               d="m 392.08,280.69 -0.77601,2.701 q -0.008,0.0439 -0.008,0.0795 0,0.10694 0.0932,0.10694 0.0768,0 0.2084,-0.11516 0.0548,-0.0466 0.2605,-0.3318 l 0.12888,0.0631 q -0.49358,0.90215 -1.1764,0.90215 -0.42502,0 -0.42502,-0.37567 0,-0.13436 0.11516,-0.52648 l 0.0877,-0.2934 q -0.41954,0.72117 -0.80617,1.0228 -0.22485,0.17275 -0.47987,0.17275 -0.62794,0 -0.62794,-0.89118 0,-0.5731 0.33728,-1.2284 0.32905,-0.63617 0.79246,-1.0036 0.4168,-0.33453 0.7815,-0.33453 0.40583,0 0.50729,0.54841 l 0.12887,-0.44696 z m -1.1572,0.68826 q 0,-0.51551 -0.26873,-0.51551 -0.33728,0 -0.75407,1.02 -0.28244,0.68553 -0.28244,1.1846 0,0.36195 0.20292,0.36195 0.16178,0 0.32905,-0.1892 0.23856,-0.26598 0.43051,-0.65262 0.34276,-0.68552 0.34276,-1.2093 z"
               inkscape:connector-curvature="0" />
            <path
               id="path1023"
               baseline-shift="sub"
               d="m 393.38,284.06 -0.35469,1.3225 q 0.43667,-0.96604 0.65947,-1.1906 0.12833,-0.13189 0.2727,-0.13189 0.22101,0 0.22101,0.27626 0,0.22814 -0.1105,0.38321 -0.0713,0.098 -0.15863,0.098 -0.0856,0 -0.13368,-0.0749 -0.0695,-0.11051 -0.0731,-0.11407 -0.0178,-0.0143 -0.0392,-0.0143 -0.0695,0 -0.18536,0.1515 -0.18002,0.23527 -0.39569,0.7985 -0.0695,0.17823 -0.19071,0.67729 h -0.57035 l 0.38855,-1.5596 q 0.0428,-0.17111 0.0428,-0.23171 0,-0.11407 -0.0838,-0.14972 -0.0392,-0.016 -0.16219,-0.016 l 0.0214,-0.0695 0.71116,-0.15506 z"
               inkscape:connector-curvature="0"
               style="baseline-shift:sub" />
          </g>
          <g
             id="g1031"
             transform="matrix(0.72432009,0,0,0.78634752,96.679624,-248.91169)"
             style="stroke-width:1.00450003">
            <path
               id="path1027"
               style="font-variant-ligatures:normal;font-variant-caps:normal;font-variant-numeric:normal;font-feature-settings:normal"
               d="m 374.58,279.81 -0.62519,2.1827 q 0.47438,-0.51826 0.89392,-0.51826 0.41954,0 0.65262,0.31808 0.21114,0.28244 0.21114,0.71843 0,0.97893 -0.70746,1.744 -0.62794,0.67729 -1.4341,0.67729 -0.59777,0 -1.2641,-0.35098 l 1.1078,-3.8417 q 0.0795,-0.27421 0.0795,-0.37292 0,-0.21937 -0.38115,-0.19743 l 0.0411,-0.14533 1.2093,-0.21389 z m -1.3902,4.8069 q 0.17001,0.10969 0.30712,0.10969 0.19469,0 0.32356,-0.0768 0.50181,-0.29615 0.81166,-1.223 0.15082,-0.45519 0.15082,-0.91038 0,-0.52373 -0.38389,-0.52373 -0.24953,0 -0.44148,0.24678 -0.12614,0.16179 -0.27421,0.6773 z"
               inkscape:connector-curvature="0" />
            <path
               id="path1029"
               style="font-variant-ligatures:normal;font-variant-caps:normal;font-variant-numeric:normal;font-feature-settings:normal;baseline-shift:sub"
               baseline-shift="sub"
               d="m 376.77,284.9 -0.35469,1.3225 q 0.43668,-0.96604 0.65948,-1.1906 0.12833,-0.13189 0.2727,-0.13189 0.22101,0 0.22101,0.27627 0,0.22814 -0.11051,0.3832 -0.0713,0.098 -0.15863,0.098 -0.0856,0 -0.13367,-0.0749 -0.0695,-0.1105 -0.0731,-0.11407 -0.0178,-0.0143 -0.0392,-0.0143 -0.0695,0 -0.18537,0.1515 -0.18002,0.23528 -0.39568,0.7985 -0.0695,0.17824 -0.19071,0.6773 h -0.57036 l 0.38856,-1.5596 q 0.0428,-0.1711 0.0428,-0.2317 0,-0.11407 -0.0838,-0.14972 -0.0392,-0.016 -0.16219,-0.016 l 0.0214,-0.0695 0.71116,-0.15507 z"
               inkscape:connector-curvature="0" />
          </g>
          <g
             id="g1037"
             transform="matrix(0.72432009,0,0,0.78634752,96.679624,-248.91169)"
             style="stroke-width:1.00450003">
            <path
               id="path1033"
               style="font-variant-ligatures:normal;font-variant-caps:normal;font-variant-numeric:normal;font-feature-settings:normal"
               d="m 386.64,283.13 0.10968,0.0987 q -0.35098,0.4168 -0.691,0.61423 -0.45519,0.2605 -0.9378,0.2605 -0.69649,0 -0.94876,-0.52922 -0.12065,-0.25228 -0.12065,-0.51826 0,-0.606 0.32905,-1.1818 0.32357,-0.56213 0.8473,-0.89392 0.52649,-0.33453 1.0365,-0.33453 0.81989,0 0.81989,0.63068 0,0.21936 -0.13711,0.39486 -0.15081,0.1892 -0.36469,0.1892 -0.38664,0 -0.38664,-0.36744 0,-0.19469 0.19469,-0.34002 0.13436,-0.0987 0.13436,-0.17823 0,-0.0631 -0.0548,-0.1042 -0.074,-0.0576 -0.1892,-0.0576 -0.30163,0 -0.57036,0.24679 -0.73214,0.67181 -0.73214,1.7741 0,0.30986 0.16453,0.53197 0.18098,0.24404 0.48261,0.24404 0.5347,0 1.0146,-0.47986 z"
               inkscape:connector-curvature="0" />
            <path
               id="path1035"
               style="font-variant-ligatures:normal;font-variant-caps:normal;font-variant-numeric:normal;font-feature-settings:normal;baseline-shift:sub"
               baseline-shift="sub"
               d="m 388.05,284.06 -0.35469,1.3225 q 0.43667,-0.96604 0.65947,-1.1906 0.12833,-0.13189 0.2727,-0.13189 0.22101,0 0.22101,0.27626 0,0.22814 -0.1105,0.38321 -0.0713,0.098 -0.15863,0.098 -0.0856,0 -0.13368,-0.0749 -0.0695,-0.11051 -0.0731,-0.11407 -0.0178,-0.0143 -0.0392,-0.0143 -0.0695,0 -0.18536,0.1515 -0.18002,0.23527 -0.39569,0.7985 -0.0695,0.17823 -0.19071,0.67729 h -0.57035 l 0.38855,-1.5596 q 0.0428,-0.17111 0.0428,-0.23171 0,-0.11407 -0.0838,-0.14972 -0.0392,-0.016 -0.1622,-0.016 l 0.0214,-0.0695 0.71116,-0.15506 z"
               inkscape:connector-curvature="0" />
          </g>
          <ellipse
             id="ellipse1039"
             ry="1.151376"
             rx="1.294251"
             cy="-26.567307"
             cx="372.16385"
             style="opacity:0.831;fill:none;stroke:#000000;stroke-width:0.32702896;stroke-linecap:round" />
          <g
             transform="matrix(0.70284519,0,0,0.7103904,108.45043,-227.44002)"
             style="font-variant-ligatures:normal;font-variant-caps:normal;font-variant-numeric:normal;font-feature-settings:normal"
             aria-label="+"
             id="g1043">
            <path
               style="stroke-width:0.15827"
               inkscape:connector-curvature="0"
               d="m 297.88,283.9 v 2.4881 h -0.96505 V 283.9 h -2.4225 v -0.91253 h 2.4225 v -2.4816 H 297.88 v 2.4816 h 2.429 V 283.9 Z"
               id="path1041" />
          </g>
          <g
             transform="matrix(0.70284519,0,0,0.7103904,94.596795,-227.44002)"
             style="font-variant-ligatures:normal;font-variant-caps:normal;font-variant-numeric:normal;font-feature-settings:normal"
             aria-label="="
             id="g1047">
            <path
               style="stroke-width:0.15827"
               inkscape:connector-curvature="0"
               d="m 354.78,282.54 v -0.91253 h 5.8166 V 282.54 Z m 0,2.7245 v -0.91253 h 5.8166 v 0.91253 z"
               id="path1045" />
          </g>
          <g
             transform="matrix(0.70284519,0,0,0.7103904,66.332365,-227.44002)"
             style="font-variant-ligatures:normal;font-variant-caps:normal;font-variant-numeric:normal;font-feature-settings:normal"
             aria-label="="
             id="g1051">
            <path
               style="stroke-width:0.15827"
               inkscape:connector-curvature="0"
               d="m 445.59,282.54 v -0.91253 h 5.8166 V 282.54 Z m 0,2.7245 v -0.91253 h 5.8166 v 0.91253 z"
               id="path1049" />
          </g>
          <rect
             style="fill:none;stroke:#ff3b3b;stroke-width:0.66151857;stroke-linecap:round"
             transform="rotate(90)"
             x="-29.375427"
             y="-403.88647"
             width="25.767328"
             height="11.702032"
             id="rect1055" />
          <g
             transform="matrix(0.70284521,0,0,0.7103904,38.078973,-227.44004)"
             style="font-variant-ligatures:normal;font-variant-caps:normal;font-variant-numeric:normal;font-feature-settings:normal"
             aria-label="A"
             id="g1059">
            <path
               style="stroke-width:0.19275001"
               inkscape:connector-curvature="0"
               d="m 513.45,302.46 v -0.39177 q 0.39976,-0.0799 0.59164,-0.17589 0.19988,-0.0959 0.29583,-0.26384 0.0959,-0.1759 0.0959,-0.46373 0,-0.27183 -0.064,-0.58365 -0.064,-0.31981 -0.18389,-0.71157 l -0.29583,-1.0314 h -3.7258 l -0.27184,0.78353 q -0.20788,0.59164 -0.27184,0.89546 -0.064,0.30382 -0.064,0.55167 0,0.47971 0.23986,0.70358 0.24785,0.22386 0.75155,0.29582 v 0.39177 h -3.414 v -0.39177 q 0.44773,-0.072 0.77554,-0.51969 0.3358,-0.44773 0.64761,-1.2792 l 3.334,-8.8507 h 1.2632 l 2.7184,8.9147 q 0.19188,0.62363 0.3358,0.95143 0.1519,0.3278 0.35978,0.51169 0.20788,0.18389 0.56766,0.27184 v 0.39177 z m -3.0702,-4.3174 h 3.342 l -1.5191,-5.1569 z"
               id="path1057" />
          </g>
          <rect
             style="fill:none;stroke:#38d370;stroke-width:0.66151857;stroke-linecap:round"
             x="406.62616"
             y="-29.375427"
             width="25.493031"
             height="11.827923"
             id="rect1061" />
          <g
             transform="matrix(0.70284521,0,0,0.7103904,32.258136,-227.44004)"
             style="font-variant-ligatures:normal;font-variant-caps:normal;font-variant-numeric:normal;font-feature-settings:normal"
             aria-label="B"
             id="g1065">
            <path
               style="stroke-width:0.17004"
               inkscape:connector-curvature="0"
               d="m 547.16,292.01 v -0.34561 q 0.43729,-0.11285 0.58541,-0.24686 0.14812,-0.14106 0.19043,-0.39497 0.0494,-0.25392 0.0494,-0.77585 v -6.101 q 0,-0.48667 -0.0353,-0.70532 -0.0353,-0.2257 -0.1199,-0.3456 -0.0776,-0.12696 -0.2116,-0.19749 -0.13401,-0.0776 -0.45845,-0.16928 v -0.3456 h 3.8581 q 1.1214,0 1.7986,0.23981 0.68416,0.2398 1.0157,0.71237 0.33149,0.4655 0.33149,1.2061 0,0.61363 -0.2398,1.065 -0.23276,0.4514 -0.61363,0.74763 -0.38087,0.29624 -0.98038,0.55015 v 0.0635 q 0.95922,0.28918 1.4529,0.89575 0.49372,0.59951 0.49372,1.4318 0,0.95922 -0.43024,1.5658 -0.42319,0.60658 -1.192,0.88165 -0.76879,0.26802 -1.862,0.26802 z m 3.3785,-5.311 q 1.0721,0 1.6363,-0.51488 0.5713,-0.52194 0.5713,-1.5094 0,-0.48666 -0.16222,-0.80406 -0.15517,-0.32444 -0.4373,-0.51488 -0.27507,-0.19043 -0.65594,-0.26801 -0.38087,-0.0846 -0.82522,-0.0846 -0.26802,0 -0.70531,0.0141 -0.4373,0.0141 -0.65595,0.0282 v 3.6535 z m -1.2343,4.641 q 0.51488,0.0494 1.1497,0.0494 0.92396,0 1.4318,-0.23275 0.51488,-0.23276 0.74058,-0.68416 0.23275,-0.45845 0.23275,-1.1426 0,-0.68415 -0.25391,-1.1285 -0.24686,-0.44435 -0.76879,-0.663 -0.52194,-0.21865 -1.4388,-0.21865 h -1.0932 z"
               id="path1063" />
          </g>
          <rect
             style="fill:none;stroke:#479afe;stroke-width:0.66157889;stroke-linecap:round"
             transform="matrix(0.81620353,-0.57776448,0.56953891,0.82196437,0,0)"
             x="352.48953"
             y="198.63031"
             width="25.583412"
             height="11.786659"
             id="rect1067" />
          <path
             id="path1069"
             d="m 383.79869,-15.409817 q -0.0357,0.16373 -0.0467,0.260862 -0.011,0.09436 -0.011,0.172064 0,0.124879 0.0604,0.177612 0.0632,0.04994 0.20867,0.06102 l -0.0302,0.135983 h -1.09827 l 0.0302,-0.135983 q 0.10434,-0.01662 0.15651,-0.05271 0.0521,-0.03886 0.0879,-0.105457 0.0357,-0.06663 0.0659,-0.160961 0.0302,-0.09713 0.0906,-0.371875 l 0.46677,-2.136854 q 0.0275,-0.127664 0.0439,-0.244218 0.0164,-0.119331 0.0164,-0.202589 0,-0.130435 -0.0659,-0.18039 -0.0659,-0.05271 -0.20318,-0.06102 l 0.0302,-0.135983 h 1.09827 l -0.0302,0.135983 q -0.10433,0.02216 -0.15101,0.04994 -0.0439,0.02778 -0.0824,0.08326 -0.0357,0.05548 -0.0741,0.174834 -0.0357,0.116554 -0.0934,0.382972 z"
             inkscape:connector-curvature="0"
             style="font-variant-ligatures:normal;font-variant-caps:normal;font-variant-numeric:normal;font-feature-settings:normal;stroke-width:0.06654761" />
          <path
             id="path1071"
             d="m 385.80975,-16.510922 0.94729,-0.821425 0.23339,0.305269 -0.961,0.818654 0.60405,0.829807 -0.313,0.249766 -0.59033,-0.824195 -0.95278,0.824195 -0.23338,-0.305269 0.96648,-0.824195 -0.59856,-0.824195 0.31301,-0.249766 z"
             inkscape:connector-curvature="0"
             style="font-variant-ligatures:normal;font-variant-caps:normal;font-variant-numeric:normal;font-feature-settings:normal;stroke-width:0.06654761" />
          <path
             id="path1073"
             d="m 389.07187,-16.326221 q 0.1318,0.0999 0.21142,0.238663 0.0824,0.13876 0.13179,0.385749 l 0.0631,0.32192 q 0.0193,0.09991 0.0412,0.185938 0.0247,0.08604 0.0549,0.166516 0.033,0.0777 0.0687,0.124879 0.0385,0.04717 0.0796,0.0777 0.0439,0.03055 0.0961,0.04994 0.0549,0.01662 0.13728,0.03055 l -0.0275,0.135983 h -0.76055 q -0.0879,-0.246989 -0.1565,-0.588331 l -0.12082,-0.588339 q -0.0302,-0.152634 -0.0741,-0.255321 -0.0412,-0.105457 -0.10159,-0.16096 -0.0576,-0.05825 -0.13729,-0.07493 -0.0769,-0.01947 -0.18945,-0.01947 h -0.313 l -0.1922,0.879748 q -0.0247,0.108228 -0.0357,0.172056 -0.008,0.06379 -0.0165,0.13599 -0.006,0.0694 -0.006,0.12488 0,0.08603 0.0275,0.135983 0.0275,0.04717 0.0824,0.0694 0.0549,0.02216 0.18945,0.03332 l -0.0302,0.135983 h -1.12849 l 0.0302,-0.135983 q 0.10434,-0.01662 0.1565,-0.05271 0.0521,-0.03886 0.0879,-0.105457 0.0357,-0.06663 0.0659,-0.160961 0.0302,-0.09713 0.0906,-0.371875 l 0.46677,-2.136854 q 0.0604,-0.277521 0.0604,-0.438481 0,-0.135983 -0.0632,-0.188716 -0.0632,-0.05271 -0.20593,-0.06102 l 0.0302,-0.135983 h 1.22183 q 0.29105,0 0.475,0.03609 0.18397,0.03332 0.31302,0.102687 0.13179,0.0694 0.21966,0.180382 0.0879,0.108235 0.13179,0.246996 0.0439,0.135983 0.0439,0.291388 0,0.246995 -0.0824,0.438481 -0.0796,0.191486 -0.21966,0.335794 -0.14003,0.144309 -0.32674,0.244218 -0.18395,0.09991 -0.38989,0.163738 z m -0.62053,-0.208137 q 0.29929,0 0.49698,-0.05825 0.19768,-0.06102 0.32948,-0.18316 0.13179,-0.122109 0.21691,-0.321921 0.0851,-0.199818 0.0851,-0.432933 0,-0.119331 -0.022,-0.210908 -0.0219,-0.09436 -0.0576,-0.155412 -0.0357,-0.06102 -0.0906,-0.108235 -0.0549,-0.04717 -0.13729,-0.08048 -0.0824,-0.03609 -0.1922,-0.04994 -0.10708,-0.01662 -0.29379,-0.01662 -0.14552,0 -0.30752,0.01108 l -0.35145,1.606833 z"
             inkscape:connector-curvature="0"
             style="font-variant-ligatures:normal;font-variant-caps:normal;font-variant-numeric:normal;font-feature-settings:normal;stroke-width:0.06654761" />
          <g
             id="g1079"
             aria-label="C"
             style="font-variant-ligatures:normal;font-variant-caps:normal;font-variant-numeric:normal;font-feature-settings:normal"
             transform="matrix(0.57568851,-0.40753133,0.4032,0.58189794,24.832476,-220.91219)">
            <path
               id="path1077"
               d="m 311.07,516.26 v 2.1015 h -0.75108 q -0.18208,-0.66004 -0.46278,-1.047 -0.2807,-0.3945 -0.65245,-0.56141 -0.37174,-0.1669 -0.89522,-0.1669 -0.78142,0 -1.3959,0.52348 -0.60693,0.51588 -0.95592,1.5628 -0.34898,1.0394 -0.34898,2.5188 0,1.487 0.28829,2.5415 0.28829,1.047 0.8497,1.5856 0.56141,0.53106 1.3808,0.53106 0.62211,0 1.0166,-0.17449 0.3945,-0.18208 0.66003,-0.56899 0.27312,-0.38692 0.51589,-1.138 h 0.75108 v 2.1698 q -0.71314,0.18966 -1.4642,0.2807 -0.74349,0.0986 -1.6387,0.0986 -1.927,0 -2.9132,-1.3049 -0.9862,-1.3049 -0.98626,-3.8919 0,-1.6235 0.5083,-2.845 0.51589,-1.2214 1.5097,-1.8891 0.99384,-0.66762 2.3746,-0.66762 0.69039,0 1.2746,0.0759 0.58417,0.0683 1.3352,0.26554 z"
               inkscape:connector-curvature="0"
               style="stroke-width:0.1829" />
          </g>
          <path
             inkscape:connector-curvature="0"
             d="m 397.80635,-48.998425 h 0.0906 q 0.11531,0 0.20867,-0.03886 0.0961,-0.03886 0.2224,-0.141531 0.1263,-0.102687 0.40087,-0.377431 0.27732,-0.274736 0.39264,-0.416274 0.11806,-0.144309 0.17023,-0.246989 0.0549,-0.105457 0.0549,-0.191485 0,-0.06941 -0.0549,-0.111013 -0.0549,-0.0444 -0.15651,-0.05271 l 0.0302,-0.135983 h 1.17789 l -0.0302,0.135983 q -0.10983,0.01662 -0.24986,0.116554 -0.13729,0.09713 -0.42284,0.382978 l -1.0653,1.049034 0.58483,1.420923 q 0.0741,0.180389 0.11807,0.266417 0.0467,0.08326 0.0988,0.141531 0.0521,0.05548 0.11807,0.09158 0.0659,0.03332 0.15925,0.04717 l -0.0302,0.135983 h -1.05982 l 0.0302,-0.135983 q 0.14827,-0.01385 0.14827,-0.133205 0,-0.03609 -0.008,-0.07493 -0.006,-0.03886 -0.0302,-0.113784 -0.022,-0.07492 -0.0631,-0.180382 l -0.35695,-0.882518 q -0.0631,-0.158183 -0.10983,-0.222011 -0.0467,-0.06379 -0.0988,-0.08881 -0.0522,-0.02501 -0.162,-0.02501 h -0.15376 l -0.22789,1.049034 q -0.0357,0.166508 -0.0467,0.26364 -0.011,0.09435 -0.011,0.169286 0,0.124879 0.0604,0.177612 0.0631,0.04994 0.20868,0.06102 l -0.0302,0.135983 h -1.09827 l 0.0302,-0.135983 q 0.10434,-0.01662 0.1565,-0.05271 0.0522,-0.03886 0.0879,-0.105457 0.0357,-0.06663 0.0659,-0.160961 0.0302,-0.09713 0.0906,-0.371875 l 0.46677,-2.136854 q 0.0275,-0.127657 0.0439,-0.244211 0.0165,-0.119331 0.0165,-0.202589 0,-0.130435 -0.0659,-0.180389 -0.0659,-0.05271 -0.20319,-0.06102 l 0.0302,-0.135983 h 1.09826 l -0.0302,0.135983 q -0.10434,0.02216 -0.15102,0.04994 -0.0439,0.02778 -0.0824,0.08325 -0.0357,0.05548 -0.0741,0.174841 -0.0357,0.116554 -0.0934,0.382972 z"
             id="path1081"
             style="font-variant-ligatures:normal;font-variant-caps:normal;font-variant-numeric:normal;font-feature-settings:normal;stroke-width:0.06654761" />
          <path
             inkscape:connector-curvature="0"
             d="m 401.13875,-48.827931 0.9473,-0.821424 0.23338,0.305269 -0.961,0.818653 0.60405,0.829807 -0.31301,0.249767 -0.59032,-0.824195 -0.95278,0.824195 -0.23338,-0.305269 0.96648,-0.824195 -0.59856,-0.824195 0.31301,-0.249766 z"
             id="path1083"
             style="font-variant-ligatures:normal;font-variant-caps:normal;font-variant-numeric:normal;font-feature-settings:normal;stroke-width:0.06654761" />
          <path
             inkscape:connector-curvature="0"
             d="m 404.40087,-48.643229 q 0.1318,0.0999 0.21143,0.238662 0.0824,0.138761 0.13179,0.385749 l 0.0631,0.321921 q 0.0193,0.09991 0.0412,0.185937 0.0247,0.08603 0.0549,0.166509 0.033,0.07771 0.0687,0.124887 0.0385,0.04717 0.0796,0.0777 0.0439,0.03055 0.0961,0.04994 0.0549,0.01662 0.13728,0.03055 l -0.0275,0.135983 h -0.76055 q -0.0879,-0.246988 -0.1565,-0.588338 l -0.12081,-0.588338 q -0.0302,-0.152635 -0.0741,-0.255315 -0.0412,-0.105457 -0.10159,-0.16096 -0.0576,-0.05825 -0.13728,-0.07493 -0.0769,-0.01939 -0.18945,-0.01939 h -0.31302 l -0.19219,0.879747 q -0.0247,0.108228 -0.0357,0.172057 -0.008,0.06379 -0.0164,0.135982 -0.006,0.06941 -0.006,0.124887 0,0.08603 0.0275,0.135983 0.0275,0.04717 0.0824,0.06941 0.0549,0.02223 0.18945,0.03332 l -0.0302,0.135983 h -1.12849 l 0.0302,-0.135983 q 0.10433,-0.01662 0.1565,-0.05271 0.0521,-0.03886 0.0879,-0.105458 0.0357,-0.06664 0.0659,-0.16096 0.0302,-0.09713 0.0906,-0.371875 l 0.46676,-2.136855 q 0.0604,-0.277514 0.0604,-0.438474 0,-0.135983 -0.0632,-0.188715 -0.0631,-0.05271 -0.20592,-0.06102 l 0.0302,-0.135983 h 1.22183 q 0.29104,0 0.475,0.03609 0.18396,0.03332 0.31301,0.102687 0.13179,0.06941 0.21965,0.180382 0.0879,0.108236 0.1318,0.246996 0.0439,0.135983 0.0439,0.291388 0,0.246996 -0.0824,0.438481 -0.0796,0.191486 -0.21966,0.335795 -0.14002,0.144309 -0.32674,0.244218 -0.18396,0.0999 -0.38989,0.163731 z m -0.62052,-0.208138 q 0.29928,0 0.49697,-0.05825 0.19769,-0.06102 0.32948,-0.18316 0.1318,-0.122109 0.21691,-0.32192 0.0851,-0.199819 0.0851,-0.432933 0,-0.119332 -0.022,-0.210915 -0.0219,-0.09435 -0.0576,-0.155405 -0.0357,-0.06102 -0.0906,-0.108235 -0.0549,-0.04717 -0.13729,-0.08048 -0.0824,-0.03609 -0.1922,-0.04994 -0.10708,-0.01662 -0.29379,-0.01662 -0.14552,0 -0.30751,0.01108 l -0.35145,1.606832 z"
             id="path1085"
             style="font-variant-ligatures:normal;font-variant-caps:normal;font-variant-numeric:normal;font-feature-settings:normal;stroke-width:0.06654761" />
          <path
             id="path1091"
             d="m 415.31572,-12.955049 q -0.0933,0.432926 -0.23888,0.688241 -0.14552,0.258092 -0.3789,0.380201 -0.23064,0.124886 -0.56837,0.124886 -0.0741,0 -0.14551,-0.0083 -0.0714,-0.0057 -0.11533,-0.01947 l 0.0714,-0.266417 q 0.0439,0.01385 0.0989,0.01662 0.0521,0.0057 0.10983,0.0057 0.15925,0 0.27731,-0.07493 0.11532,-0.07493 0.20868,-0.26087 0.0961,-0.18316 0.16748,-0.505081 l 0.6425,-2.925032 q 0.0275,-0.122109 0.0439,-0.241441 0.0165,-0.122109 0.0165,-0.205359 0,-0.130435 -0.0659,-0.18039 -0.0659,-0.05271 -0.20318,-0.06102 l 0.0302,-0.135983 h 1.09827 l -0.0302,0.135983 q -0.10433,0.02216 -0.15101,0.04994 -0.0439,0.02778 -0.0824,0.08325 -0.0357,0.05548 -0.0741,0.174834 -0.0357,0.116561 -0.0933,0.382978 z"
             inkscape:connector-curvature="0"
             style="font-variant-ligatures:normal;font-variant-caps:normal;font-variant-numeric:normal;font-feature-settings:normal;stroke-width:0.06654761" />
          <path
             id="path1093"
             d="m 417.94029,-14.738129 0.94729,-0.821425 0.23338,0.305269 -0.961,0.818654 0.60405,0.829807 -0.31301,0.249766 -0.59033,-0.824194 -0.95277,0.824194 -0.23339,-0.305268 0.96648,-0.824195 -0.59856,-0.824195 0.31301,-0.249767 z"
             inkscape:connector-curvature="0"
             style="font-variant-ligatures:normal;font-variant-caps:normal;font-variant-numeric:normal;font-feature-settings:normal;stroke-width:0.06654761" />
          <path
             id="path1095"
             d="m 421.73158,-14.553428 q 0.1318,0.0999 0.21142,0.238663 0.0824,0.138761 0.13179,0.385749 l 0.0631,0.321921 q 0.0192,0.09991 0.0412,0.185937 0.0247,0.08603 0.0549,0.166509 0.033,0.07771 0.0687,0.124886 0.0385,0.04717 0.0796,0.0777 0.0439,0.03055 0.0961,0.04994 0.0549,0.01662 0.13729,0.03055 l -0.0275,0.135983 h -0.76054 q -0.0879,-0.246989 -0.15651,-0.588338 l -0.12081,-0.588338 q -0.0302,-0.152635 -0.0741,-0.255315 -0.0412,-0.105457 -0.10158,-0.16096 -0.0576,-0.05825 -0.13729,-0.07493 -0.0769,-0.01939 -0.18945,-0.01939 h -0.31302 l -0.1922,0.879748 q -0.0247,0.108235 -0.0357,0.172063 -0.008,0.06379 -0.0165,0.135983 -0.006,0.06941 -0.006,0.124887 0,0.08603 0.0275,0.135983 0.0275,0.04717 0.0824,0.06941 0.0549,0.02216 0.18945,0.03332 l -0.0302,0.135983 h -1.12849 l 0.0302,-0.135983 q 0.10434,-0.01662 0.1565,-0.05271 0.0521,-0.03886 0.0879,-0.105457 0.0357,-0.06663 0.0659,-0.16096 0.0302,-0.09713 0.0906,-0.371875 l 0.46677,-2.136855 q 0.0604,-0.277514 0.0604,-0.438474 0,-0.135983 -0.0632,-0.188715 -0.0631,-0.05271 -0.20593,-0.06102 l 0.0302,-0.135983 h 1.22183 q 0.29104,0 0.475,0.03609 0.18397,0.03332 0.31302,0.10268 0.13179,0.0694 0.21965,0.180389 0.0879,0.108235 0.1318,0.246989 0.0439,0.135983 0.0439,0.291395 0,0.246989 -0.0824,0.438481 -0.0796,0.191486 -0.21966,0.335795 -0.14003,0.144309 -0.32674,0.244218 -0.18396,0.0999 -0.38989,0.163731 z m -0.62053,-0.208144 q 0.29928,0 0.49697,-0.05825 0.19769,-0.06102 0.32948,-0.183167 0.1318,-0.122102 0.21692,-0.321921 0.0851,-0.199811 0.0851,-0.432926 0,-0.119331 -0.0219,-0.210915 -0.0219,-0.09435 -0.0576,-0.155405 -0.0357,-0.06109 -0.0906,-0.108235 -0.0549,-0.04717 -0.13729,-0.08048 -0.0824,-0.03609 -0.1922,-0.04994 -0.10709,-0.01662 -0.29379,-0.01662 -0.14553,0 -0.30752,0.01108 l -0.35145,1.606832 z"
             inkscape:connector-curvature="0"
             style="font-variant-ligatures:normal;font-variant-caps:normal;font-variant-numeric:normal;font-feature-settings:normal;stroke-width:0.06654761" />
          <g
             id="g1107"
             transform="matrix(0.30424941,0,0,0.7103904,226.69277,-235.61389)"
             style="stroke-width:1.00450003">
            <path
               id="path1101"
               style="color:#000000;font-variant-ligatures:normal;font-variant-position:normal;font-variant-caps:normal;font-variant-numeric:normal;font-variant-alternates:normal;font-feature-settings:normal;text-indent:0;text-decoration:none;text-decoration-line:none;text-decoration-style:solid;text-decoration-color:#000000;text-transform:none;text-orientation:mixed;dominant-baseline:auto;white-space:normal;shape-padding:0;isolation:auto;mix-blend-mode:normal;solid-color:#000000;fill:#ff3b3b;color-rendering:auto;image-rendering:auto;shape-rendering:auto"
               dominant-baseline="auto"
               d="m 141.95,317.44085 -0.926,0.0396 c 0,0 0.0656,1.5572 0.24852,3.1353 0.0915,0.78913 0.21032,1.5823 0.37424,2.2134 0.0819,0.31555 0.17191,0.58953 0.29742,0.82355 0.12549,0.23403 0.31,0.50176 0.68096,0.53547 l 0.0209,0.003 h 90.763 c 0.0901,0.2679 0.56222,2.7565 0.56222,2.7565 l 0.45981,2.4712 0.46503,-2.4706 c 0,0 0.47218,-2.4896 0.56224,-2.7576 h 90.764 l 0.0209,-0.003 c 0.37094,-0.0338 0.55486,-0.30201 0.68038,-0.53606 0.12548,-0.23401 0.21545,-0.50799 0.2974,-0.82354 0.16392,-0.63115 0.2828,-1.4243 0.37425,-2.2134 0.1829,-1.5782 0.24909,-3.1353 0.24909,-3.1353 l -0.92658,-0.0384 c 0,0 -0.0656,1.5344 -0.24329,3.0684 -0.0889,0.76704 -0.2077,1.535 -0.35095,2.0866 -0.0716,0.2758 -0.15272,0.49864 -0.21709,0.61868 -0.0211,0.0391 -0.025,0.0397 -0.0332,0.0489 h -91.122 c -0.41591,0 -0.43669,1.6355 -0.51742,1.9358 -0.0902,-0.36814 -0.16474,-1.9352 -0.54313,-1.9352 h -91.097 c -0.009,-0.01 -0.0123,-0.01 -0.0332,-0.0489 -0.0644,-0.12003 -0.14546,-0.34291 -0.21709,-0.6187 -0.14326,-0.55159 -0.26147,-1.3195 -0.35039,-2.0865 -0.17779,-1.534 -0.24385,-3.0684 -0.24385,-3.0684 z"
               inkscape:connector-curvature="0" />
            <g
               id="g1105"
               aria-label="R"
               style="font-variant-ligatures:normal;font-variant-caps:normal;font-variant-numeric:normal;font-feature-settings:normal"
               transform="matrix(1.9967452,0,0,1,-259.96496,-1.9814672)">
              <path
                 id="path1103"
                 d="m 249.1,336.87 q 0.33313,0.24984 0.5344,0.59685 0.2082,0.34701 0.33313,0.96468 l 0.15962,0.80506 q 0.0486,0.24985 0.1041,0.46499 0.0625,0.21515 0.13881,0.41641 0.0833,0.19433 0.1735,0.31231 0.0972,0.11798 0.20126,0.19433 0.11105,0.0763 0.24291,0.12492 0.1388,0.0416 0.34701,0.0763 l -0.0694,0.34007 h -1.9224 q -0.22208,-0.61768 -0.39559,-1.4713 l -0.30537,-1.4713 q -0.0763,-0.38171 -0.18738,-0.6385 -0.1041,-0.26372 -0.25679,-0.40253 -0.14574,-0.14574 -0.347,-0.18738 -0.19433,-0.0486 -0.47888,-0.0486 h -0.79118 l -0.48581,2.2 q -0.0625,0.27067 -0.0902,0.43029 -0.0208,0.15963 -0.0416,0.34007 -0.0139,0.1735 -0.0139,0.31231 0,0.21514 0.0694,0.34007 0.0694,0.11798 0.20821,0.1735 0.1388,0.0555 0.47887,0.0833 l -0.0763,0.34007 h -2.8524 l 0.0763,-0.34007 q 0.26373,-0.0416 0.39559,-0.13186 0.13186,-0.0972 0.22208,-0.26373 0.0902,-0.16656 0.16657,-0.40253 0.0763,-0.2429 0.22902,-0.92998 l 1.1798,-5.3439 q 0.15269,-0.69401 0.15269,-1.0965 0,-0.34007 -0.15963,-0.47194 -0.15962,-0.13186 -0.52051,-0.15268 l 0.0763,-0.34007 h 3.0884 q 0.73566,0 1.2006,0.0902 0.46499,0.0833 0.79118,0.25678 0.33313,0.17351 0.55522,0.45111 0.22208,0.27067 0.33312,0.61768 0.11105,0.34006 0.11105,0.72871 0,0.61768 -0.20821,1.0966 -0.20126,0.47887 -0.55521,0.83976 -0.35395,0.36089 -0.82588,0.61074 -0.46499,0.24984 -0.98551,0.40946 z m -1.5685,-0.52052 q 0.75648,0 1.2562,-0.14574 0.49969,-0.15268 0.83282,-0.45805 0.33313,-0.30537 0.54827,-0.80506 0.21515,-0.49969 0.21515,-1.0827 0,-0.29842 -0.0555,-0.52745 -0.0555,-0.23596 -0.14574,-0.38865 -0.0902,-0.15268 -0.22902,-0.27066 -0.13881,-0.11799 -0.34701,-0.20127 -0.20821,-0.0902 -0.48581,-0.12492 -0.27067,-0.0416 -0.7426,-0.0416 -0.36783,0 -0.7773,0.0278 l -0.88834,4.0184 z"
                 inkscape:connector-curvature="0"
                 style="stroke-width:0.16731" />
            </g>
          </g>
        </g>
      </g>
    </g>
  </g>
  <style
     type="text/css"
     id="style1111">.st0{fill:none;stroke:#ED2124;stroke-miterlimit:10;}</style>
  <style
     type="text/css"
     id="style2">
	.st0{fill:none;stroke:#ED2124;stroke-miterlimit:10;}
</style>
</svg>
