<?xml version="1.0" encoding="UTF-8" standalone="no"?>
<!-- Created with Inkscape (http://www.inkscape.org/) -->

<svg
   xmlns:dc="http://purl.org/dc/elements/1.1/"
   xmlns:cc="http://creativecommons.org/ns#"
   xmlns:rdf="http://www.w3.org/1999/02/22-rdf-syntax-ns#"
   xmlns:svg="http://www.w3.org/2000/svg"
   xmlns="http://www.w3.org/2000/svg"
   xmlns:sodipodi="http://sodipodi.sourceforge.net/DTD/sodipodi-0.dtd"
   xmlns:inkscape="http://www.inkscape.org/namespaces/inkscape"
   width="210mm"
   height="297mm"
   viewBox="0 0 210 297"
   version="1.1"
   id="svg8"
   inkscape:version="0.92.3 (2405546, 2018-03-11)"
   sodipodi:docname="tensor3D.svg">
  <defs
     id="defs2" />
  <sodipodi:namedview
     id="base"
     pagecolor="#ffffff"
     bordercolor="#666666"
     borderopacity="1.0"
     inkscape:pageopacity="0.0"
     inkscape:pageshadow="2"
     inkscape:zoom="0.35"
     inkscape:cx="-81.428571"
     inkscape:cy="674.28571"
     inkscape:document-units="mm"
     inkscape:current-layer="layer1"
     showgrid="false"
     inkscape:window-width="1920"
     inkscape:window-height="1001"
     inkscape:window-x="-9"
     inkscape:window-y="-9"
     inkscape:window-maximized="1" />
  <metadata
     id="metadata5">
    <rdf:RDF>
      <cc:Work
         rdf:about="">
        <dc:format>image/svg+xml</dc:format>
        <dc:type
           rdf:resource="http://purl.org/dc/dcmitype/StillImage" />
        <dc:title></dc:title>
      </cc:Work>
    </rdf:RDF>
  </metadata>
  <g
     inkscape:label="Layer 1"
     inkscape:groupmode="layer"
     id="layer1">
    <g
       id="layer1-0"
       inkscape:label="Layer 1"
       transform="matrix(0.36601724,0,0,0.42701047,58.595223,-1.7619653)">
      <g
         transform="translate(437.44178,127.39242)"
         id="g827"
         style="fill:none">
        <ellipse
           id="ellipse817"
           ry="2.0243001"
           rx="2.8619001"
           cy="-51.608002"
           cx="-512.21997"
           style="opacity:0.831;stroke:#000000;stroke-width:1.27489996;stroke-linecap:round" />
        <g
           id="g825"
           style="stroke-width:1.24179995">
          <path
             id="path819"
             d="m -512.7,-48.34 -0.0189,26.661"
             inkscape:connector-curvature="0"
             style="stroke:#ff3b3b" />
          <path
             id="path821"
             d="m -481.69,-51.419 -26.466,-0.01904"
             inkscape:connector-curvature="0"
             style="stroke:#38d370" />
          <path
             id="path823"
             d="M -490.82,-73.186 -509.196,-54"
             inkscape:connector-curvature="0"
             style="stroke:#479afe" />
        </g>
      </g>
      <g
         transform="translate(437.44178,127.39242)"
         id="g847"
         style="stroke-width:0.13221">
        <g
           id="g833"
           aria-label="b1"
           style="font-variant-ligatures:normal;font-variant-caps:normal;font-variant-numeric:normal;font-feature-settings:normal"
           transform="matrix(1.3216,0,0,1.3313,-713.84,-428.97)">
          <path
             id="path829"
             d="m 172.33,285.71 -0.6252,2.1827 q 0.47438,-0.51825 0.89392,-0.51825 0.41954,0 0.65262,0.31808 0.21114,0.28243 0.21114,0.71843 0,0.97892 -0.70746,1.744 -0.62794,0.67729 -1.4341,0.67729 -0.59778,0 -1.2641,-0.35099 l 1.1078,-3.8417 q 0.0795,-0.27421 0.0795,-0.37293 0,-0.21936 -0.38115,-0.19743 l 0.0411,-0.14533 1.2093,-0.21388 z m -1.3902,4.8069 q 0.17001,0.10968 0.30711,0.10968 0.19469,0 0.32357,-0.0768 0.5018,-0.29615 0.81166,-1.223 0.15081,-0.45518 0.15081,-0.91037 0,-0.52374 -0.38389,-0.52374 -0.24953,0 -0.44148,0.24679 -0.12613,0.16178 -0.27421,0.6773 z"
             inkscape:connector-curvature="0" />
          <path
             id="path831"
             baseline-shift="sub"
             d="m 175.84,289.72 -0.77889,2.6771 q -0.0624,0.21032 -0.0624,0.26557 0,0.14615 0.13902,0.19428 0.0499,0.0178 0.30301,0.0321 l -0.025,0.0873 h -1.6077 l 0.0267,-0.0873 q 0.18715,-0.004 0.26557,-0.0214 0.14616,-0.0321 0.2228,-0.13368 0.0606,-0.082 0.13546,-0.33686 l 0.57035,-1.9731 q 0.0143,-0.0624 0.0143,-0.11586 0,-0.22992 -0.24953,-0.22992 -0.0588,0 -0.23171,0.0178 l -0.0196,-0.0873 1.1977,-0.28874 z"
             inkscape:connector-curvature="0"
             style="baseline-shift:sub" />
        </g>
        <g
           id="g839"
           aria-label="c1"
           style="font-variant-ligatures:normal;font-variant-caps:normal;font-variant-numeric:normal;font-feature-settings:normal"
           transform="matrix(1.3216,0,0,1.3313,-713.84,-428.97)">
          <path
             id="path835"
             d="m 173.16,271.89 0.10968,0.0987 q -0.35099,0.41679 -0.69101,0.61422 -0.45518,0.2605 -0.93779,0.2605 -0.69649,0 -0.94876,-0.52922 -0.12066,-0.25227 -0.12066,-0.51826 0,-0.606 0.32906,-1.1818 0.32356,-0.56212 0.8473,-0.89392 0.52648,-0.33453 1.0365,-0.33453 0.81988,0 0.81988,0.63068 0,0.21937 -0.1371,0.39486 -0.15081,0.1892 -0.3647,0.1892 -0.38663,0 -0.38663,-0.36744 0,-0.19468 0.19469,-0.34002 0.13436,-0.0987 0.13436,-0.17823 0,-0.0631 -0.0548,-0.1042 -0.074,-0.0576 -0.18921,-0.0576 -0.30163,0 -0.57035,0.24678 -0.73214,0.67182 -0.73214,1.7741 0,0.30986 0.16453,0.53197 0.18097,0.24405 0.4826,0.24405 0.53471,0 1.0146,-0.47987 z"
             inkscape:connector-curvature="0" />
          <path
             id="path837"
             baseline-shift="sub"
             d="m 175.81,271.76 -0.77889,2.6771 q -0.0624,0.21032 -0.0624,0.26557 0,0.14615 0.13902,0.19428 0.0499,0.0178 0.303,0.0321 l -0.0249,0.0873 h -1.6077 l 0.0267,-0.0873 q 0.18714,-0.004 0.26557,-0.0214 0.14615,-0.0321 0.22279,-0.13368 0.0606,-0.082 0.13546,-0.33686 l 0.57036,-1.9731 q 0.0143,-0.0624 0.0143,-0.11586 0,-0.22992 -0.24953,-0.22992 -0.0588,0 -0.23171,0.0178 l -0.0196,-0.0873 1.1978,-0.28874 z"
             inkscape:connector-curvature="0"
             style="baseline-shift:sub" />
        </g>
        <g
           id="g845"
           aria-label="a1"
           style="font-variant-ligatures:normal;font-variant-caps:normal;font-variant-numeric:normal;font-feature-settings:normal"
           transform="matrix(1.3216,0,0,1.3313,-713.84,-428.97)">
          <path
             id="path841"
             d="m 147.47,299.97 -0.77601,2.701 q -0.008,0.0439 -0.008,0.0795 0,0.10694 0.0932,0.10694 0.0768,0 0.2084,-0.11517 0.0548,-0.0466 0.2605,-0.33179 l 0.12887,0.0631 q -0.49357,0.90215 -1.1764,0.90215 -0.42503,0 -0.42503,-0.37567 0,-0.13436 0.11517,-0.52648 l 0.0877,-0.2934 q -0.41954,0.72117 -0.80618,1.0228 -0.22485,0.17276 -0.47986,0.17276 -0.62794,0 -0.62794,-0.89118 0,-0.5731 0.33728,-1.2285 0.32905,-0.63616 0.79246,-1.0036 0.4168,-0.33454 0.7815,-0.33454 0.40583,0 0.50728,0.54842 l 0.12888,-0.44696 z m -1.1572,0.68827 q 0,-0.51552 -0.26872,-0.51552 -0.33728,0 -0.75408,1.0201 -0.28243,0.68552 -0.28243,1.1846 0,0.36196 0.20291,0.36196 0.16179,0 0.32905,-0.18921 0.23857,-0.26598 0.43051,-0.65261 0.34276,-0.68552 0.34276,-1.2093 z"
             inkscape:connector-curvature="0" />
          <path
             id="path843"
             baseline-shift="sub"
             d="m 149.77,302.26 -0.77889,2.6771 q -0.0624,0.21032 -0.0624,0.26557 0,0.14616 0.13902,0.19428 0.0499,0.0178 0.303,0.0321 l -0.0249,0.0873 h -1.6077 l 0.0267,-0.0873 q 0.18714,-0.004 0.26557,-0.0214 0.14615,-0.0321 0.22279,-0.13367 0.0606,-0.082 0.13546,-0.33687 l 0.57036,-1.9731 q 0.0143,-0.0624 0.0143,-0.11585 0,-0.22993 -0.24953,-0.22993 -0.0588,0 -0.23171,0.0178 l -0.0196,-0.0873 1.1978,-0.28874 z"
             inkscape:connector-curvature="0"
             style="baseline-shift:sub" />
        </g>
      </g>
      <g
         transform="translate(437.44178,127.39242)"
         id="g859"
         style="fill:none">
        <ellipse
           id="ellipse849"
           ry="2.0243001"
           rx="2.8619001"
           cy="-51.608002"
           cx="-429.60001"
           style="opacity:0.831;stroke:#000000;stroke-width:1.27489996;stroke-linecap:round" />
        <g
           id="g857"
           style="stroke-width:1.24179995">
          <path
             id="path851"
             d="m -430.08,-48.34 -0.0189,26.661"
             inkscape:connector-curvature="0"
             style="stroke:#ff3b3b" />
          <path
             id="path853"
             d="m -399.07,-51.419 -26.466,-0.01904"
             inkscape:connector-curvature="0"
             style="stroke:#38d370" />
          <path
             id="path855"
             d="M -408.2,-73.186 -426.576,-54"
             inkscape:connector-curvature="0"
             style="stroke:#479afe" />
        </g>
      </g>
      <g
         transform="translate(437.44178,127.39242)"
         id="g879"
         style="stroke-width:0.13221">
        <g
           id="g865"
           aria-label="b2"
           style="font-variant-ligatures:normal;font-variant-caps:normal;font-variant-numeric:normal;font-feature-settings:normal"
           transform="matrix(1.3216,0,0,1.3313,-717.81,-428.97)">
          <path
             id="path861"
             d="m 237.84,285.71 -0.6252,2.1827 q 0.47438,-0.51825 0.89392,-0.51825 0.41954,0 0.65262,0.31808 0.21114,0.28243 0.21114,0.71843 0,0.97892 -0.70746,1.744 -0.62794,0.67729 -1.4341,0.67729 -0.59778,0 -1.2641,-0.35099 l 1.1078,-3.8417 q 0.0795,-0.27421 0.0795,-0.37293 0,-0.21936 -0.38115,-0.19743 l 0.0411,-0.14533 1.2093,-0.21388 z m -1.3902,4.8069 q 0.17001,0.10968 0.30711,0.10968 0.19469,0 0.32357,-0.0768 0.5018,-0.29615 0.81166,-1.223 0.15081,-0.45518 0.15081,-0.91037 0,-0.52374 -0.38389,-0.52374 -0.24953,0 -0.44148,0.24679 -0.12613,0.16178 -0.27421,0.6773 z"
             inkscape:connector-curvature="0" />
          <path
             id="path863"
             baseline-shift="sub"
             d="m 240.92,292.98 h -1.6932 v -0.0873 q 0.647,-0.59887 1.114,-1.1247 0.2923,-0.32617 0.39746,-0.50084 0.18002,-0.29587 0.18002,-0.60244 0,-0.20854 -0.1319,-0.34578 -0.13189,-0.13724 -0.34221,-0.13724 -0.32617,0 -0.55966,0.36004 l -0.0873,-0.0392 q 0.12298,-0.34935 0.31904,-0.52936 0.26913,-0.24953 0.63452,-0.24953 0.31013,0 0.54005,0.18893 0.24418,0.2014 0.24418,0.5044 0,0.48837 -0.55609,1.073 -0.25844,0.2727 -1.0498,0.94822 h 0.61491 q 0.26914,0 0.38499,-0.0535 0.14081,-0.0659 0.2531,-0.28162 h 0.1105 z"
             inkscape:connector-curvature="0"
             style="baseline-shift:sub" />
        </g>
        <g
           id="g871"
           aria-label="c2"
           style="font-variant-ligatures:normal;font-variant-caps:normal;font-variant-numeric:normal;font-feature-settings:normal"
           transform="matrix(1.3216,0,0,1.3313,-717.81,-428.97)">
          <path
             id="path867"
             d="m 238.68,271.89 0.10969,0.0987 q -0.35099,0.41679 -0.69101,0.61422 -0.45518,0.2605 -0.93779,0.2605 -0.69649,0 -0.94877,-0.52922 -0.12065,-0.25227 -0.12065,-0.51826 0,-0.606 0.32905,-1.1818 0.32357,-0.56212 0.84731,-0.89392 0.52648,-0.33453 1.0365,-0.33453 0.81988,0 0.81988,0.63068 0,0.21937 -0.1371,0.39486 -0.15082,0.1892 -0.3647,0.1892 -0.38663,0 -0.38663,-0.36744 0,-0.19468 0.19468,-0.34002 0.13437,-0.0987 0.13437,-0.17823 0,-0.0631 -0.0548,-0.1042 -0.074,-0.0576 -0.18921,-0.0576 -0.30163,0 -0.57035,0.24678 -0.73214,0.67182 -0.73214,1.7741 0,0.30986 0.16452,0.53197 0.18098,0.24405 0.48261,0.24405 0.53471,0 1.0146,-0.47987 z"
             inkscape:connector-curvature="0" />
          <path
             id="path869"
             baseline-shift="sub"
             d="m 240.9,275.01 h -1.6932 v -0.0873 q 0.64699,-0.59887 1.114,-1.1247 0.29231,-0.32617 0.39747,-0.50084 0.18001,-0.29587 0.18001,-0.60244 0,-0.20853 -0.13189,-0.34578 -0.13189,-0.13724 -0.34221,-0.13724 -0.32617,0 -0.55966,0.36004 l -0.0873,-0.0392 q 0.12298,-0.34935 0.31904,-0.52936 0.26914,-0.24953 0.63452,-0.24953 0.31013,0 0.54006,0.18893 0.24418,0.2014 0.24418,0.5044 0,0.48837 -0.5561,1.073 -0.25844,0.2727 -1.0498,0.94822 h 0.61491 q 0.26914,0 0.38499,-0.0535 0.1408,-0.0659 0.25309,-0.28162 h 0.11051 z"
             inkscape:connector-curvature="0"
             style="baseline-shift:sub" />
        </g>
        <g
           id="g877"
           aria-label="a2"
           style="font-variant-ligatures:normal;font-variant-caps:normal;font-variant-numeric:normal;font-feature-settings:normal"
           transform="matrix(1.3216,0,0,1.3313,-717.81,-428.97)">
          <path
             id="path873"
             d="m 212.99,299.97 -0.77601,2.701 q -0.008,0.0439 -0.008,0.0795 0,0.10694 0.0932,0.10694 0.0768,0 0.2084,-0.11517 0.0548,-0.0466 0.26049,-0.33179 l 0.12888,0.0631 q -0.49357,0.90215 -1.1764,0.90215 -0.42503,0 -0.42503,-0.37567 0,-0.13436 0.11517,-0.52648 l 0.0877,-0.2934 q -0.41954,0.72117 -0.80618,1.0228 -0.22485,0.17276 -0.47986,0.17276 -0.62794,0 -0.62794,-0.89118 0,-0.5731 0.33728,-1.2285 0.32905,-0.63616 0.79246,-1.0036 0.4168,-0.33454 0.78149,-0.33454 0.40583,0 0.50729,0.54842 l 0.12888,-0.44696 z m -1.1572,0.68827 q 0,-0.51552 -0.26872,-0.51552 -0.33728,0 -0.75408,1.0201 -0.28243,0.68552 -0.28243,1.1846 0,0.36196 0.20291,0.36196 0.16178,0 0.32905,-0.18921 0.23856,-0.26598 0.43051,-0.65261 0.34276,-0.68552 0.34276,-1.2093 z"
             inkscape:connector-curvature="0" />
          <path
             id="path875"
             baseline-shift="sub"
             d="m 214.86,305.52 h -1.6932 v -0.0873 q 0.64699,-0.59887 1.114,-1.1247 0.29231,-0.32618 0.39747,-0.50085 0.18001,-0.29587 0.18001,-0.60243 0,-0.20854 -0.13189,-0.34578 -0.13189,-0.13724 -0.34221,-0.13724 -0.32617,0 -0.55966,0.36003 l -0.0873,-0.0392 q 0.12298,-0.34934 0.31904,-0.52936 0.26914,-0.24953 0.63452,-0.24953 0.31013,0 0.54006,0.18893 0.24418,0.20141 0.24418,0.50441 0,0.48836 -0.55609,1.073 -0.25845,0.2727 -1.0498,0.94821 h 0.61491 q 0.26914,0 0.38499,-0.0535 0.14081,-0.066 0.25309,-0.28161 h 0.11051 z"
             inkscape:connector-curvature="0"
             style="baseline-shift:sub" />
        </g>
      </g>
      <g
         id="g949"
         transform="translate(481.2601,147.51595)">
        <g
           id="g899"
           style="stroke-width:1.24179995">
          <path
             id="path881"
             d="m -626.51,-76.756 h 24.174"
             inkscape:connector-curvature="0"
             style="fill:#008000;stroke:#38d370" />
          <path
             id="path883"
             d="m -627.13,-77.376 v 24.351"
             inkscape:connector-curvature="0"
             style="fill:#c83737;stroke:#ff3b3b" />
          <path
             id="path885"
             d="m -602.34,-53.67 h -24.174"
             inkscape:connector-curvature="0"
             style="fill:#0000ff;stroke:#38d370" />
          <path
             id="path887"
             d="m -602.95,-77.376 v 24.351"
             inkscape:connector-curvature="0"
             style="fill:#c83737;stroke:#ff3b3b" />
          <path
             id="path889"
             d="m -615.03,-88.849 h 24.174"
             inkscape:connector-curvature="0"
             style="fill:#008000;stroke:#38d370" />
          <path
             id="path891"
             d="m -615.64,-89.469 v 24.351"
             inkscape:connector-curvature="0"
             style="fill:#c83737;stroke:#ff3b3b" />
          <path
             id="path893"
             d="m -590.85,-65.763 h -24.174"
             inkscape:connector-curvature="0"
             style="fill:#0000ff;stroke:#38d370" />
          <path
             id="path895"
             d="m -591.47,-89.469 v 24.351"
             inkscape:connector-curvature="0"
             style="fill:#c83737;stroke:#ff3b3b" />
          <path
             id="path897"
             d="m -615.71,-89.206 -11.483,12.093"
             inkscape:connector-curvature="0"
             style="fill:#00ffff;stroke:#69adfe" />
        </g>
        <g
           id="g907"
           style="fill:#69adfe;stroke:#479afe;stroke-width:1.24179995">
          <path
             id="path901"
             d="m -591.44,-89.206 -11.483,12.093"
             inkscape:connector-curvature="0" />
          <path
             id="path903"
             d="m -615.71,-65.599 -11.483,12.093"
             inkscape:connector-curvature="0" />
          <path
             id="path905"
             d="m -591.44,-65.599 -11.483,12.093"
             inkscape:connector-curvature="0" />
        </g>
        <g
           id="g933"
           style="stroke-width:1.00450003">
          <g
             id="g913"
             transform="matrix(0.41059,0,0,0.41361,-705.6,-125.89)">
            <circle
               id="circle909"
               r="4.4942999"
               cy="118.88"
               cx="191.67999" />
            <circle
               id="circle911"
               r="4.4942999"
               cy="118.88"
               cx="250.11" />
          </g>
          <g
             id="g919"
             transform="matrix(0.41059,0,0,0.41361,-694.51,-138.38)">
            <circle
               id="circle915"
               r="4.4942999"
               cy="118.88"
               cx="191.67999" />
            <circle
               id="circle917"
               r="4.4942999"
               cy="118.88"
               cx="250.11" />
          </g>
          <g
             id="g925"
             transform="matrix(0.41059,0,0,0.41361,-694.51,-138.38)">
            <circle
               id="circle921"
               r="4.4942999"
               cy="174.81"
               cx="191.67999" />
            <circle
               id="circle923"
               r="4.4942999"
               cy="174.81"
               cx="250.11" />
          </g>
          <g
             id="g931"
             transform="matrix(0.41059,0,0,0.41361,-705.6,-103.28)">
            <circle
               id="circle927"
               r="4.4942999"
               cy="118.88"
               cx="191.67999" />
            <circle
               id="circle929"
               r="4.4942999"
               cy="118.88"
               cx="250.11" />
          </g>
        </g>
        <g
           id="g947">
          <g
             id="g937"
             aria-label="K"
             style="font-variant-ligatures:normal;font-variant-caps:normal;font-variant-numeric:normal;font-feature-settings:normal"
             transform="matrix(1.3216,0,0,1.3313,-702.31,-428.97)">
            <path
               id="path935"
               d="m 54.729,256.23 h 0.10334 q 0.1309,0 0.2377,-0.0413 0.11024,-0.0413 0.24458,-0.15502 0.13435,-0.11368 0.40994,-0.42372 0.3307,-0.36859 0.45128,-0.53395 0.15157,-0.19635 0.20325,-0.3307 0.04134,-0.0999 0.04134,-0.19291 0,-0.1378 -0.07923,-0.1998 -0.07923,-0.0655 -0.21702,-0.0792 v -0.16879 h 1.502 v 0.16879 q -0.11024,0.0241 -0.21702,0.0861 -0.10679,0.0586 -0.22047,0.16535 -0.11024,0.10334 -0.32726,0.34448 l -1.1575,1.3022 1.2539,1.8223 q 0.1998,0.28936 0.31348,0.40649 0.11368,0.11368 0.21702,0.1688 0.10335,0.0517 0.22047,0.0689 v 0.1688 h -1.5192 v -0.1688 q 0.12746,-0.0103 0.18602,-0.0482 0.05856,-0.0379 0.05856,-0.11368 0,-0.062 -0.04134,-0.14812 -0.03789,-0.0896 -0.12401,-0.21358 l -0.80265,-1.1954 q -0.14124,-0.21359 -0.20669,-0.28248 -0.06545,-0.0689 -0.14124,-0.0999 -0.07579,-0.0344 -0.20325,-0.0344 h -0.18258 v 1.4434 q 0,0.2308 0.01378,0.33759 0.01723,0.10679 0.05167,0.1688 0.03789,0.062 0.10679,0.10335 0.07234,0.0413 0.2308,0.0827 v 0.1688 h -1.4503 v -0.1688 q 0.21358,-0.0551 0.28592,-0.12057 0.07234,-0.0689 0.09301,-0.19291 0.02411,-0.12401 0.02411,-0.37893 v -2.9798 q 0,-0.2377 -0.01722,-0.34449 -0.01722,-0.11023 -0.05856,-0.16879 -0.03789,-0.062 -0.10334,-0.0965 -0.06545,-0.0379 -0.22392,-0.0827 v -0.16879 h 1.4503 v 0.16879 q -0.15157,0.0379 -0.22047,0.0758 -0.06545,0.0379 -0.10679,0.0965 -0.03789,0.0551 -0.05856,0.16879 -0.01722,0.11368 -0.01722,0.35138 z"
               inkscape:connector-curvature="0"
               style="stroke-width:0.083048" />
          </g>
          <g
             id="g941"
             aria-label="I"
             style="font-variant-ligatures:normal;font-variant-caps:normal;font-variant-numeric:normal;font-feature-settings:normal"
             transform="matrix(1.3216,0,0,1.3313,-702.31,-428.97)">
            <path
               id="path939"
               d="m 51.121,273.77 q 0,0.2308 0.01378,0.33759 0.01722,0.10679 0.05167,0.1688 0.03789,0.062 0.10679,0.10335 0.07234,0.0413 0.2308,0.0827 v 0.1688 h -1.4537 v -0.1688 q 0.21358,-0.0551 0.28592,-0.12057 0.07234,-0.0689 0.09301,-0.19291 0.02411,-0.12401 0.02411,-0.37893 v -2.9798 q 0,-0.2377 -0.01722,-0.34449 -0.01722,-0.11023 -0.05856,-0.16879 -0.03789,-0.062 -0.10334,-0.0965 -0.06545,-0.0379 -0.22392,-0.0827 v -0.16879 h 1.4537 v 0.16879 q -0.15157,0.0379 -0.22047,0.0758 -0.06545,0.0379 -0.10679,0.0965 -0.03789,0.0551 -0.05856,0.16879 -0.01722,0.11368 -0.01722,0.35138 z"
               inkscape:connector-curvature="0"
               style="stroke-width:0.083048" />
          </g>
          <g
             id="g945"
             aria-label="J"
             style="font-variant-ligatures:normal;font-variant-caps:normal;font-variant-numeric:normal;font-feature-settings:normal"
             transform="matrix(1.3216,0,0,1.3313,-702.31,-428.97)">
            <path
               id="path943"
               d="m 64.498,288.77 q 0,0.46505 -0.11024,0.75442 -0.10679,0.28937 -0.36515,0.48917 -0.25492,0.1998 -0.71653,0.34104 l -0.11368,-0.30315 q 0.30315,-0.11712 0.43061,-0.23769 0.12746,-0.11713 0.17569,-0.29626 0.05167,-0.17913 0.05167,-0.48228 v -3.872 q 0,-0.2997 -0.031,-0.40994 -0.02756,-0.11023 -0.09646,-0.1688 -0.06545,-0.0586 -0.27559,-0.11368 v -0.16879 h 1.4537 v 0.16879 q -0.15157,0.0379 -0.22047,0.0758 -0.06545,0.0379 -0.10679,0.0965 -0.03789,0.0551 -0.05856,0.16879 -0.01722,0.11368 -0.01722,0.35138 z"
               inkscape:connector-curvature="0"
               style="stroke-width:0.083048" />
          </g>
        </g>
      </g>
      <g
         id="g953"
         aria-label="="
         style="font-variant-ligatures:normal;font-variant-caps:normal;font-variant-numeric:normal;font-feature-settings:normal"
         transform="matrix(1.3216,0,0,1.3313,-261.58822,-301.57758)">
        <path
           id="path951"
           d="m 121.41,282.54 v -0.91253 h 5.8166 V 282.54 Z m 0,2.7245 v -0.91253 h 5.8166 v 0.91253 z"
           inkscape:connector-curvature="0"
           style="stroke-width:0.15827" />
      </g>
      <g
         id="g961"
         transform="matrix(1.3216,0,0,1.3313,-286.97822,-301.57758)"
         style="stroke-width:1.00450003">
        <path
           id="path955"
           d="m 272.63,283.44 a 0.97737,0.97737 0 0 1 -0.97737,0.97737 0.97737,0.97737 0 0 1 -0.97737,-0.97737 0.97737,0.97737 0 0 1 0.97737,-0.97737 0.97737,0.97737 0 0 1 0.97737,0.97737 z"
           inkscape:connector-curvature="0" />
        <path
           id="path957"
           d="m 277.44,283.44 a 0.97737,0.97737 0 0 1 -0.97737,0.97737 0.97737,0.97737 0 0 1 -0.97737,-0.97737 0.97737,0.97737 0 0 1 0.97737,-0.97737 0.97737,0.97737 0 0 1 0.97737,0.97737 z"
           inkscape:connector-curvature="0" />
        <path
           id="path959"
           d="m 282.26,283.44 a 0.97737,0.97737 0 0 1 -0.97737,0.97737 0.97737,0.97737 0 0 1 -0.97737,-0.97737 0.97737,0.97737 0 0 1 0.97737,-0.97737 0.97737,0.97737 0 0 1 0.97737,0.97737 z"
           inkscape:connector-curvature="0" />
      </g>
      <g
         transform="translate(437.44178,127.39242)"
         id="g973"
         style="fill:none">
        <ellipse
           id="ellipse963"
           ry="2.0243001"
           rx="2.8619001"
           cy="-51.608002"
           cx="-302.88"
           style="opacity:0.831;stroke:#000000;stroke-width:1.27489996;stroke-linecap:round" />
        <g
           id="g971"
           style="stroke-width:1.24179995">
          <path
             id="path965"
             d="m -303.36,-48.34 -0.0189,26.661"
             inkscape:connector-curvature="0"
             style="stroke:#ff3b3b" />
          <path
             id="path967"
             d="m -272.35,-51.419 -26.466,-0.01904"
             inkscape:connector-curvature="0"
             style="stroke:#38d370" />
          <path
             id="path969"
             d="M -281.48,-73.186 -299.856,-54"
             inkscape:connector-curvature="0"
             style="stroke:#479afe" />
        </g>
      </g>
      <g
         transform="translate(437.44178,127.39242)"
         id="g1001">
        <g
           id="g979"
           aria-label="bR"
           style="font-variant-ligatures:normal;font-variant-caps:normal;font-variant-numeric:normal;font-feature-settings:normal;stroke-width:0.13221"
           transform="matrix(1.3216,0,0,1.3313,-728.38,-428.97)">
          <path
             id="path975"
             d="m 341.72,285.71 -0.6252,2.1827 q 0.47438,-0.51825 0.89392,-0.51825 0.41954,0 0.65262,0.31808 0.21114,0.28243 0.21114,0.71843 0,0.97892 -0.70746,1.744 -0.62794,0.67729 -1.4341,0.67729 -0.59778,0 -1.2641,-0.35099 l 1.1078,-3.8417 q 0.0795,-0.27421 0.0795,-0.37293 0,-0.21936 -0.38115,-0.19743 l 0.0411,-0.14533 1.2093,-0.21388 z m -1.3902,4.8069 q 0.17001,0.10968 0.30711,0.10968 0.19469,0 0.32357,-0.0768 0.5018,-0.29615 0.81166,-1.223 0.15081,-0.45518 0.15081,-0.91037 0,-0.52374 -0.38389,-0.52374 -0.24953,0 -0.44148,0.24679 -0.12613,0.16178 -0.2742,0.6773 z"
             inkscape:connector-curvature="0" />
          <path
             id="path977"
             baseline-shift="sub"
             d="m 344.47,291.42 -0.28161,0.96782 q -0.0624,0.20854 -0.0624,0.30122 0,0.19428 0.37786,0.20141 l -0.0339,0.0873 h -1.5364 l 0.0285,-0.0873 q 0.25488,0 0.36895,-0.1212 0.0856,-0.0927 0.16576,-0.36717 l 0.59174,-2.0479 q 0.0499,-0.1711 0.0499,-0.27092 0,-0.18358 -0.34578,-0.20853 l 0.0232,-0.0873 h 1.3225 q 1.0284,0 1.0284,0.70582 0,0.32795 -0.26913,0.58996 -0.16754,0.16576 -0.59888,0.28517 l 0.28696,0.96782 q 0.0945,0.31905 0.14081,0.39034 0.10338,0.15507 0.34578,0.16398 v 0.0873 h -0.99278 l -0.45093,-1.5578 -0.0784,0.005 q -0.0143,0 -0.0802,-0.005 z m 0.0339,-0.1408 q 0.082,0.005 0.13903,0.005 0.36003,0 0.57748,-0.24953 0.20675,-0.23705 0.20675,-0.60243 0,-0.46163 -0.42776,-0.46163 -0.0463,0 -0.11051,0.002 z"
             inkscape:connector-curvature="0"
             style="baseline-shift:sub" />
        </g>
        <g
           id="g985"
           aria-label="cR"
           style="font-variant-ligatures:normal;font-variant-caps:normal;font-variant-numeric:normal;font-feature-settings:normal;stroke-width:0.13221"
           transform="matrix(1.3216,0,0,1.3313,-728.38,-428.97)">
          <path
             id="path981"
             d="m 342.56,271.89 0.10969,0.0987 q -0.35099,0.41679 -0.69101,0.61422 -0.45519,0.2605 -0.93779,0.2605 -0.6965,0 -0.94877,-0.52922 -0.12065,-0.25227 -0.12065,-0.51826 0,-0.606 0.32905,-1.1818 0.32357,-0.56212 0.84731,-0.89392 0.52648,-0.33453 1.0365,-0.33453 0.81988,0 0.81988,0.63068 0,0.21937 -0.1371,0.39486 -0.15082,0.1892 -0.3647,0.1892 -0.38664,0 -0.38664,-0.36744 0,-0.19468 0.19469,-0.34002 0.13436,-0.0987 0.13436,-0.17823 0,-0.0631 -0.0548,-0.1042 -0.074,-0.0576 -0.1892,-0.0576 -0.30163,0 -0.57036,0.24678 -0.73213,0.67182 -0.73213,1.7741 0,0.30986 0.16452,0.53197 0.18098,0.24405 0.48261,0.24405 0.53471,0 1.0146,-0.47987 z"
             inkscape:connector-curvature="0" />
          <path
             id="path983"
             baseline-shift="sub"
             d="m 344.45,273.45 -0.28161,0.96782 q -0.0624,0.20854 -0.0624,0.30122 0,0.19428 0.37786,0.20141 l -0.0339,0.0873 h -1.5364 l 0.0285,-0.0873 q 0.25488,0 0.36895,-0.1212 0.0856,-0.0927 0.16576,-0.36717 l 0.59174,-2.0479 q 0.0499,-0.1711 0.0499,-0.27092 0,-0.18358 -0.34578,-0.20853 l 0.0232,-0.0873 h 1.3225 q 1.0284,0 1.0284,0.70582 0,0.32795 -0.26913,0.58996 -0.16754,0.16576 -0.59888,0.28517 l 0.28696,0.96782 q 0.0945,0.31905 0.14081,0.39034 0.10338,0.15507 0.34578,0.16398 v 0.0873 h -0.99278 l -0.45093,-1.5578 -0.0784,0.005 q -0.0143,0 -0.0802,-0.005 z m 0.0339,-0.1408 q 0.082,0.005 0.13903,0.005 0.36003,0 0.57748,-0.24953 0.20675,-0.23705 0.20675,-0.60243 0,-0.46163 -0.42776,-0.46163 -0.0463,0 -0.11051,0.002 z"
             inkscape:connector-curvature="0"
             style="baseline-shift:sub" />
        </g>
        <g
           id="g991"
           aria-label="aR"
           style="font-variant-ligatures:normal;font-variant-caps:normal;font-variant-numeric:normal;font-feature-settings:normal;stroke-width:0.13221"
           transform="matrix(1.3216,0,0,1.3313,-728.38,-428.97)">
          <path
             id="path987"
             d="m 316.87,299.97 -0.77602,2.701 q -0.008,0.0439 -0.008,0.0795 0,0.10694 0.0932,0.10694 0.0768,0 0.2084,-0.11517 0.0548,-0.0466 0.2605,-0.33179 l 0.12887,0.0631 q -0.49357,0.90215 -1.1764,0.90215 -0.42503,0 -0.42503,-0.37567 0,-0.13436 0.11517,-0.52648 l 0.0878,-0.2934 q -0.41954,0.72117 -0.80617,1.0228 -0.22486,0.17276 -0.47987,0.17276 -0.62794,0 -0.62794,-0.89118 0,-0.5731 0.33728,-1.2285 0.32905,-0.63616 0.79246,-1.0036 0.4168,-0.33454 0.7815,-0.33454 0.40583,0 0.50728,0.54842 l 0.12888,-0.44696 z m -1.1572,0.68827 q 0,-0.51552 -0.26872,-0.51552 -0.33728,0 -0.75407,1.0201 -0.28244,0.68552 -0.28244,1.1846 0,0.36196 0.20291,0.36196 0.16179,0 0.32906,-0.18921 0.23856,-0.26598 0.4305,-0.65261 0.34276,-0.68552 0.34276,-1.2093 z"
             inkscape:connector-curvature="0" />
          <path
             id="path989"
             baseline-shift="sub"
             d="m 318.41,303.96 -0.28161,0.96782 q -0.0624,0.20853 -0.0624,0.30122 0,0.19427 0.37786,0.2014 l -0.0339,0.0873 h -1.5364 l 0.0285,-0.0873 q 0.25488,0 0.36895,-0.1212 0.0856,-0.0927 0.16576,-0.36716 l 0.59174,-2.0479 q 0.0499,-0.17111 0.0499,-0.27092 0,-0.18358 -0.34578,-0.20854 l 0.0232,-0.0873 h 1.3225 q 1.0284,0 1.0284,0.70581 0,0.32796 -0.26914,0.58996 -0.16754,0.16576 -0.59887,0.28518 l 0.28696,0.96782 q 0.0945,0.31904 0.14081,0.39034 0.10337,0.15506 0.34577,0.16397 v 0.0873 h -0.99277 l -0.45094,-1.5578 -0.0784,0.005 q -0.0143,0 -0.0802,-0.005 z m 0.0339,-0.14081 q 0.082,0.005 0.13902,0.005 0.36004,0 0.57749,-0.24953 0.20675,-0.23706 0.20675,-0.60244 0,-0.46163 -0.42777,-0.46163 -0.0463,0 -0.1105,0.002 z"
             inkscape:connector-curvature="0"
             style="baseline-shift:sub" />
        </g>
        <g
           id="g995"
           aria-label="+"
           style="font-variant-ligatures:normal;font-variant-caps:normal;font-variant-numeric:normal;font-feature-settings:normal"
           transform="matrix(1.3216,0,0,1.3313,-716.49,-428.97)">
          <path
             id="path993"
             d="m 191.51,283.9 v 2.4881 h -0.96505 V 283.9 h -2.4225 v -0.91253 h 2.4225 v -2.4816 H 191.51 v 2.4816 h 2.429 V 283.9 Z"
             inkscape:connector-curvature="0"
             style="stroke-width:0.15827" />
        </g>
        <g
           id="g999"
           aria-label="+"
           style="font-variant-ligatures:normal;font-variant-caps:normal;font-variant-numeric:normal;font-feature-settings:normal"
           transform="matrix(1.3216,0,0,1.3313,-719.13,-428.97)">
          <path
             id="path997"
             d="m 256.02,283.9 v 2.4881 h -0.96505 V 283.9 h -2.4225 v -0.91253 h 2.4225 v -2.4816 H 256.02 v 2.4816 h 2.429 V 283.9 Z"
             inkscape:connector-curvature="0"
             style="stroke-width:0.15827" />
        </g>
      </g>
      <g
         transform="translate(437.44178,127.39242)"
         id="g1017">
        <g
           id="g1005"
           aria-label="Σ"
           style="font-variant-ligatures:normal;font-variant-caps:normal;font-variant-numeric:normal;font-feature-settings:normal"
           transform="matrix(1.3216,0,0,1.3313,-738.96,-428.97)">
          <path
             id="path1003"
             d="m 379.25,278.18 3.0581,4.6183 v 0.52603 l -3.4326,4.7342 h 4.0388 q 0.77567,0 1.1234,-0.34771 0.34773,-0.34771 0.5706,-1.5781 h 0.89157 l -0.19614,3.3969 h -8.4521 v -0.43687 l 3.9942,-5.4921 -3.7446,-5.8041 v -0.43687 h 8.2381 v 3.1116 h -0.83807 q -0.36555,-1.4354 -0.75784,-1.8634 -0.38337,-0.42796 -1.1145,-0.42796 z"
             inkscape:connector-curvature="0"
             style="stroke-width:0.21494" />
        </g>
        <g
           id="g1009"
           aria-label="R"
           style="font-variant-ligatures:normal;font-variant-caps:normal;font-variant-numeric:normal;font-feature-settings:normal"
           transform="matrix(1.3216,0,0,1.3313,-738.96,-428.97)">
          <path
             id="path1007"
             d="m 381.05,272.79 -0.43325,1.489 q -0.096,0.32082 -0.096,0.46341 0,0.29889 0.58132,0.30986 l -0.0521,0.13436 h -2.3637 l 0.0439,-0.13436 q 0.39212,0 0.56761,-0.18647 0.13162,-0.14258 0.25501,-0.56487 l 0.91038,-3.1507 q 0.0768,-0.26324 0.0768,-0.41679 0,-0.28244 -0.53196,-0.32083 l 0.0356,-0.13436 h 2.0346 q 1.5822,0 1.5822,1.0859 0,0.50454 -0.41405,0.90763 -0.25776,0.25501 -0.92135,0.43873 l 0.44148,1.489 q 0.14533,0.49083 0.21663,0.60051 0.15904,0.23857 0.53196,0.25228 v 0.13436 h -1.5273 l -0.69375,-2.3966 -0.12065,0.008 q -0.0219,0 -0.1234,-0.008 z m 0.0521,-0.21662 q 0.12614,0.008 0.21389,0.008 0.5539,0 0.88843,-0.38389 0.31808,-0.3647 0.31808,-0.92682 0,-0.71021 -0.6581,-0.71021 -0.0713,0 -0.17001,0.003 z"
             inkscape:connector-curvature="0"
             style="stroke-width:0.13221" />
        </g>
        <path
           id="path1011"
           style="font-variant-ligatures:normal;font-variant-caps:normal;font-variant-numeric:normal;font-feature-settings:normal"
           d="m -239.84,-38.555 -0.72119,2.7088 q 0.8879,-1.9787 1.3409,-2.4386 0.26093,-0.27014 0.55448,-0.27014 0.44938,0 0.44938,0.56585 0,0.46729 -0.22469,0.78489 -0.14497,0.20079 -0.32255,0.20079 -0.17395,0 -0.2718,-0.15333 -0.14134,-0.22634 -0.14858,-0.23364 -0.0362,-0.02916 -0.0797,-0.02916 -0.14134,0 -0.37691,0.31031 -0.36602,0.48188 -0.80453,1.6355 -0.14133,0.36507 -0.38776,1.3873 h -1.1597 l 0.79003,-3.1943 q 0.087,-0.35046 0.087,-0.47458 0,-0.23365 -0.17032,-0.30666 -0.0797,-0.03288 -0.32978,-0.03288 l 0.0435,-0.14237 1.446,-0.31761 z"
           inkscape:connector-curvature="0" />
        <path
           id="path1013"
           style="font-variant-ligatures:normal;font-variant-caps:normal;font-variant-numeric:normal;font-feature-settings:normal"
           d="m -237.95,-38.442 h 5.2331 v 0.62425 h -5.2331 z m 0,1.5734 h 5.2331 v 0.6279 h -5.2331 z"
           inkscape:connector-curvature="0" />
        <path
           id="path1015"
           style="font-variant-ligatures:normal;font-variant-caps:normal;font-variant-numeric:normal;font-feature-settings:normal"
           d="m -228.37,-40.756 -1.5837,5.4833 q -0.12687,0.43077 -0.12687,0.54395 0,0.29935 0.28267,0.39793 0.1015,0.03648 0.61609,0.06577 l -0.0507,0.17889 h -3.2689 l 0.0543,-0.17889 q 0.38052,-0.0067 0.53998,-0.0438 0.29717,-0.06577 0.453,-0.2738 0.12318,-0.16792 0.27543,-0.68997 l 1.1597,-4.0413 q 0.0289,-0.12781 0.0289,-0.2373 0,-0.47094 -0.50736,-0.47094 -0.1196,0 -0.47112,0.03648 l -0.0399,-0.17888 2.4353,-0.59141 z"
           inkscape:connector-curvature="0" />
      </g>
      <ellipse
         id="ellipse1019"
         ry="1.9493001"
         rx="2.3615"
         cy="74.855423"
         cx="224.03177"
         style="opacity:0.831;fill:none;stroke:#000000;stroke-width:0.57477999;stroke-linecap:round" />
      <g
         id="g1025"
         aria-label="ar"
         style="font-variant-ligatures:normal;font-variant-caps:normal;font-variant-numeric:normal;font-feature-settings:normal;stroke-width:0.13221"
         transform="matrix(1.3216,0,0,1.3313,-300.56822,-301.57758)">
        <path
           id="path1021"
           d="m 392.08,280.69 -0.77601,2.701 q -0.008,0.0439 -0.008,0.0795 0,0.10694 0.0932,0.10694 0.0768,0 0.2084,-0.11516 0.0548,-0.0466 0.2605,-0.3318 l 0.12888,0.0631 q -0.49358,0.90215 -1.1764,0.90215 -0.42502,0 -0.42502,-0.37567 0,-0.13436 0.11516,-0.52648 l 0.0877,-0.2934 q -0.41954,0.72117 -0.80617,1.0228 -0.22485,0.17275 -0.47987,0.17275 -0.62794,0 -0.62794,-0.89118 0,-0.5731 0.33728,-1.2284 0.32905,-0.63617 0.79246,-1.0036 0.4168,-0.33453 0.7815,-0.33453 0.40583,0 0.50729,0.54841 l 0.12887,-0.44696 z m -1.1572,0.68826 q 0,-0.51551 -0.26873,-0.51551 -0.33728,0 -0.75407,1.02 -0.28244,0.68553 -0.28244,1.1846 0,0.36195 0.20292,0.36195 0.16178,0 0.32905,-0.1892 0.23856,-0.26598 0.43051,-0.65262 0.34276,-0.68552 0.34276,-1.2093 z"
           inkscape:connector-curvature="0" />
        <path
           id="path1023"
           baseline-shift="sub"
           d="m 393.38,284.06 -0.35469,1.3225 q 0.43667,-0.96604 0.65947,-1.1906 0.12833,-0.13189 0.2727,-0.13189 0.22101,0 0.22101,0.27626 0,0.22814 -0.1105,0.38321 -0.0713,0.098 -0.15863,0.098 -0.0856,0 -0.13368,-0.0749 -0.0695,-0.11051 -0.0731,-0.11407 -0.0178,-0.0143 -0.0392,-0.0143 -0.0695,0 -0.18536,0.1515 -0.18002,0.23527 -0.39569,0.7985 -0.0695,0.17823 -0.19071,0.67729 h -0.57035 l 0.38855,-1.5596 q 0.0428,-0.17111 0.0428,-0.23171 0,-0.11407 -0.0838,-0.14972 -0.0392,-0.016 -0.16219,-0.016 l 0.0214,-0.0695 0.71116,-0.15506 z"
           inkscape:connector-curvature="0"
           style="baseline-shift:sub" />
      </g>
      <g
         id="g1031"
         transform="matrix(1.3216,0,0,1.3313,-263.18822,-301.57758)"
         style="stroke-width:1.00450003">
        <path
           id="path1027"
           style="font-variant-ligatures:normal;font-variant-caps:normal;font-variant-numeric:normal;font-feature-settings:normal"
           d="m 374.58,279.81 -0.62519,2.1827 q 0.47438,-0.51826 0.89392,-0.51826 0.41954,0 0.65262,0.31808 0.21114,0.28244 0.21114,0.71843 0,0.97893 -0.70746,1.744 -0.62794,0.67729 -1.4341,0.67729 -0.59777,0 -1.2641,-0.35098 l 1.1078,-3.8417 q 0.0795,-0.27421 0.0795,-0.37292 0,-0.21937 -0.38115,-0.19743 l 0.0411,-0.14533 1.2093,-0.21389 z m -1.3902,4.8069 q 0.17001,0.10969 0.30712,0.10969 0.19469,0 0.32356,-0.0768 0.50181,-0.29615 0.81166,-1.223 0.15082,-0.45519 0.15082,-0.91038 0,-0.52373 -0.38389,-0.52373 -0.24953,0 -0.44148,0.24678 -0.12614,0.16179 -0.27421,0.6773 z"
           inkscape:connector-curvature="0" />
        <path
           id="path1029"
           style="font-variant-ligatures:normal;font-variant-caps:normal;font-variant-numeric:normal;font-feature-settings:normal;baseline-shift:sub"
           baseline-shift="sub"
           d="m 376.77,284.9 -0.35469,1.3225 q 0.43668,-0.96604 0.65948,-1.1906 0.12833,-0.13189 0.2727,-0.13189 0.22101,0 0.22101,0.27627 0,0.22814 -0.11051,0.3832 -0.0713,0.098 -0.15863,0.098 -0.0856,0 -0.13367,-0.0749 -0.0695,-0.1105 -0.0731,-0.11407 -0.0178,-0.0143 -0.0392,-0.0143 -0.0695,0 -0.18537,0.1515 -0.18002,0.23528 -0.39568,0.7985 -0.0695,0.17824 -0.19071,0.6773 h -0.57036 l 0.38856,-1.5596 q 0.0428,-0.1711 0.0428,-0.2317 0,-0.11407 -0.0838,-0.14972 -0.0392,-0.016 -0.16219,-0.016 l 0.0214,-0.0695 0.71116,-0.15507 z"
           inkscape:connector-curvature="0" />
      </g>
      <g
         id="g1037"
         transform="matrix(1.3216,0,0,1.3313,-263.18822,-301.57758)"
         style="stroke-width:1.00450003">
        <path
           id="path1033"
           style="font-variant-ligatures:normal;font-variant-caps:normal;font-variant-numeric:normal;font-feature-settings:normal"
           d="m 386.64,283.13 0.10968,0.0987 q -0.35098,0.4168 -0.691,0.61423 -0.45519,0.2605 -0.9378,0.2605 -0.69649,0 -0.94876,-0.52922 -0.12065,-0.25228 -0.12065,-0.51826 0,-0.606 0.32905,-1.1818 0.32357,-0.56213 0.8473,-0.89392 0.52649,-0.33453 1.0365,-0.33453 0.81989,0 0.81989,0.63068 0,0.21936 -0.13711,0.39486 -0.15081,0.1892 -0.36469,0.1892 -0.38664,0 -0.38664,-0.36744 0,-0.19469 0.19469,-0.34002 0.13436,-0.0987 0.13436,-0.17823 0,-0.0631 -0.0548,-0.1042 -0.074,-0.0576 -0.1892,-0.0576 -0.30163,0 -0.57036,0.24679 -0.73214,0.67181 -0.73214,1.7741 0,0.30986 0.16453,0.53197 0.18098,0.24404 0.48261,0.24404 0.5347,0 1.0146,-0.47986 z"
           inkscape:connector-curvature="0" />
        <path
           id="path1035"
           style="font-variant-ligatures:normal;font-variant-caps:normal;font-variant-numeric:normal;font-feature-settings:normal;baseline-shift:sub"
           baseline-shift="sub"
           d="m 388.05,284.06 -0.35469,1.3225 q 0.43667,-0.96604 0.65947,-1.1906 0.12833,-0.13189 0.2727,-0.13189 0.22101,0 0.22101,0.27626 0,0.22814 -0.1105,0.38321 -0.0713,0.098 -0.15863,0.098 -0.0856,0 -0.13368,-0.0749 -0.0695,-0.11051 -0.0731,-0.11407 -0.0178,-0.0143 -0.0392,-0.0143 -0.0695,0 -0.18536,0.1515 -0.18002,0.23527 -0.39569,0.7985 -0.0695,0.17823 -0.19071,0.67729 h -0.57035 l 0.38855,-1.5596 q 0.0428,-0.17111 0.0428,-0.23171 0,-0.11407 -0.0838,-0.14972 -0.0392,-0.016 -0.1622,-0.016 l 0.0214,-0.0695 0.71116,-0.15506 z"
           inkscape:connector-curvature="0" />
      </g>
      <ellipse
         id="ellipse1039"
         ry="1.9493001"
         rx="2.3615"
         cy="74.855423"
         cx="239.46178"
         style="opacity:0.831;fill:none;stroke:#000000;stroke-width:0.57477999;stroke-linecap:round" />
      <g
         transform="translate(437.44178,127.39242)"
         id="g1053">
        <g
           id="g1043"
           aria-label="+"
           style="font-variant-ligatures:normal;font-variant-caps:normal;font-variant-numeric:normal;font-feature-settings:normal"
           transform="matrix(1.3216,0,0,1.3313,-729.7,-428.97)">
          <path
             id="path1041"
             d="m 297.88,283.9 v 2.4881 h -0.96505 V 283.9 h -2.4225 v -0.91253 h 2.4225 v -2.4816 H 297.88 v 2.4816 h 2.429 V 283.9 Z"
             inkscape:connector-curvature="0"
             style="stroke-width:0.15827" />
        </g>
        <g
           id="g1047"
           aria-label="="
           style="font-variant-ligatures:normal;font-variant-caps:normal;font-variant-numeric:normal;font-feature-settings:normal"
           transform="matrix(1.3216,0,0,1.3313,-727.06,-428.97)">
          <path
             id="path1045"
             d="m 354.78,282.54 v -0.91253 h 5.8166 V 282.54 Z m 0,2.7245 v -0.91253 h 5.8166 v 0.91253 z"
             inkscape:connector-curvature="0"
             style="stroke-width:0.15827" />
        </g>
        <g
           id="g1051"
           aria-label="="
           style="font-variant-ligatures:normal;font-variant-caps:normal;font-variant-numeric:normal;font-feature-settings:normal"
           transform="matrix(1.3216,0,0,1.3313,-766.2,-428.97)">
          <path
             id="path1049"
             d="m 445.59,282.54 v -0.91253 h 5.8166 V 282.54 Z m 0,2.7245 v -0.91253 h 5.8166 v 0.91253 z"
             inkscape:connector-curvature="0"
             style="stroke-width:0.15827" />
        </g>
      </g>
      <g
         id="g1099"
         transform="translate(400.92878,127.39242)">
        <rect
           id="rect1055"
           height="22.004"
           width="48.289001"
           y="81.500999"
           x="-57.789001"
           transform="rotate(90)"
           style="fill:none;stroke:#ff3b3b;stroke-width:1.24179995;stroke-linecap:round" />
        <g
           id="g1059"
           aria-label="A"
           style="font-variant-ligatures:normal;font-variant-caps:normal;font-variant-numeric:normal;font-feature-settings:normal"
           transform="matrix(1.3216,0,0,1.3313,-769.35,-428.97)">
          <path
             id="path1057"
             d="m 513.45,302.46 v -0.39177 q 0.39976,-0.0799 0.59164,-0.17589 0.19988,-0.0959 0.29583,-0.26384 0.0959,-0.1759 0.0959,-0.46373 0,-0.27183 -0.064,-0.58365 -0.064,-0.31981 -0.18389,-0.71157 l -0.29583,-1.0314 h -3.7258 l -0.27184,0.78353 q -0.20788,0.59164 -0.27184,0.89546 -0.064,0.30382 -0.064,0.55167 0,0.47971 0.23986,0.70358 0.24785,0.22386 0.75155,0.29582 v 0.39177 h -3.414 v -0.39177 q 0.44773,-0.072 0.77554,-0.51969 0.3358,-0.44773 0.64761,-1.2792 l 3.334,-8.8507 h 1.2632 l 2.7184,8.9147 q 0.19188,0.62363 0.3358,0.95143 0.1519,0.3278 0.35978,0.51169 0.20788,0.18389 0.56766,0.27184 v 0.39177 z m -3.0702,-4.3174 h 3.342 l -1.5191,-5.1569 z"
             inkscape:connector-curvature="0"
             style="stroke-width:0.19275001" />
        </g>
        <rect
           id="rect1061"
           height="22.166"
           width="47.936001"
           y="-57.789001"
           x="-65.403999"
           style="fill:none;stroke:#38d370;stroke-width:1.24179995;stroke-linecap:round" />
        <g
           id="g1065"
           aria-label="B"
           style="font-variant-ligatures:normal;font-variant-caps:normal;font-variant-numeric:normal;font-feature-settings:normal"
           transform="matrix(1.3216,0,0,1.3313,-769.35,-428.97)">
          <path
             id="path1063"
             d="m 547.16,292.01 v -0.34561 q 0.43729,-0.11285 0.58541,-0.24686 0.14812,-0.14106 0.19043,-0.39497 0.0494,-0.25392 0.0494,-0.77585 v -6.101 q 0,-0.48667 -0.0353,-0.70532 -0.0353,-0.2257 -0.1199,-0.3456 -0.0776,-0.12696 -0.2116,-0.19749 -0.13401,-0.0776 -0.45845,-0.16928 v -0.3456 h 3.8581 q 1.1214,0 1.7986,0.23981 0.68416,0.2398 1.0157,0.71237 0.33149,0.4655 0.33149,1.2061 0,0.61363 -0.2398,1.065 -0.23276,0.4514 -0.61363,0.74763 -0.38087,0.29624 -0.98038,0.55015 v 0.0635 q 0.95922,0.28918 1.4529,0.89575 0.49372,0.59951 0.49372,1.4318 0,0.95922 -0.43024,1.5658 -0.42319,0.60658 -1.192,0.88165 -0.76879,0.26802 -1.862,0.26802 z m 3.3785,-5.311 q 1.0721,0 1.6363,-0.51488 0.5713,-0.52194 0.5713,-1.5094 0,-0.48666 -0.16222,-0.80406 -0.15517,-0.32444 -0.4373,-0.51488 -0.27507,-0.19043 -0.65594,-0.26801 -0.38087,-0.0846 -0.82522,-0.0846 -0.26802,0 -0.70531,0.0141 -0.4373,0.0141 -0.65595,0.0282 v 3.6535 z m -1.2343,4.641 q 0.51488,0.0494 1.1497,0.0494 0.92396,0 1.4318,-0.23275 0.51488,-0.23276 0.74058,-0.68416 0.23275,-0.45845 0.23275,-1.1426 0,-0.68415 -0.25391,-1.1285 -0.24686,-0.44435 -0.76879,-0.663 -0.52194,-0.21865 -1.4388,-0.21865 h -1.0932 z"
             inkscape:connector-curvature="0"
             style="stroke-width:0.17004" />
        </g>
        <rect
           id="rect1067"
           height="22.113001"
           width="48.051998"
           y="-120.63"
           x="-23.721001"
           transform="matrix(0.81712,-0.57647,0.57083,0.82106,0,0)"
           style="fill:none;stroke:#479afe;stroke-width:1.24189997;stroke-linecap:round" />
        <g
           id="g1075"
           aria-label="I × R"
           style="font-variant-ligatures:normal;font-variant-caps:normal;font-variant-numeric:normal;font-feature-settings:normal;stroke-width:0.094179"
           transform="matrix(1.3216,0,0,1.3313,-769.35,-428.97)">
          <path
             id="path1069"
             d="m 485.11,298.47 q -0.0508,0.23048 -0.0664,0.36721 -0.0156,0.13283 -0.0156,0.24221 0,0.17579 0.0859,0.25002 0.0899,0.0703 0.29689,0.0859 l -0.043,0.19142 h -1.5626 l 0.043,-0.19142 q 0.14845,-0.0234 0.22268,-0.0742 0.0742,-0.0547 0.12501,-0.14845 0.0508,-0.0938 0.0937,-0.22658 0.043,-0.13673 0.12892,-0.52348 l 0.66411,-3.008 q 0.0391,-0.17971 0.0625,-0.34378 0.0234,-0.16798 0.0234,-0.28518 0,-0.18361 -0.0938,-0.25393 -0.0938,-0.0742 -0.28908,-0.0859 l 0.043,-0.19142 h 1.5626 l -0.043,0.19142 q -0.14845,0.0312 -0.21486,0.0703 -0.0625,0.0391 -0.1172,0.1172 -0.0508,0.0781 -0.10548,0.24611 -0.0508,0.16407 -0.13282,0.5391 z"
             inkscape:connector-curvature="0" />
          <path
             id="path1071"
             d="m 490.23,296.92 1.3478,-1.1563 0.33206,0.42972 -1.3673,1.1524 0.85944,1.1681 -0.44534,0.35159 -0.83991,-1.1602 -1.3556,1.1602 -0.33205,-0.42972 1.3751,-1.1602 -0.85163,-1.1602 0.44535,-0.35159 z"
             inkscape:connector-curvature="0" />
          <path
             id="path1073"
             d="m 497.13,297.18 q 0.18752,0.14063 0.30081,0.33596 0.1172,0.19533 0.18751,0.54301 l 0.0898,0.45316 q 0.0274,0.14064 0.0586,0.26174 0.0352,0.12111 0.0781,0.2344 0.0469,0.10938 0.0977,0.17579 0.0547,0.0664 0.11329,0.10938 0.0625,0.043 0.13673,0.0703 0.0781,0.0234 0.19532,0.043 l -0.0391,0.19142 h -1.0821 q -0.12501,-0.34768 -0.22267,-0.82818 l -0.17189,-0.82819 q -0.043,-0.21486 -0.10548,-0.35941 -0.0586,-0.14845 -0.14454,-0.22658 -0.082,-0.082 -0.19533,-0.10547 -0.10938,-0.0274 -0.26955,-0.0274 h -0.44534 l -0.27346,1.2384 q -0.0352,0.15235 -0.0508,0.2422 -0.0117,0.0898 -0.0234,0.19143 -0.008,0.0977 -0.008,0.17579 0,0.1211 0.0391,0.19142 0.0391,0.0664 0.1172,0.0977 0.0781,0.0312 0.26955,0.0469 l -0.043,0.19142 h -1.6056 l 0.043,-0.19142 q 0.14845,-0.0234 0.22267,-0.0742 0.0742,-0.0547 0.12501,-0.14845 0.0508,-0.0938 0.0938,-0.22658 0.043,-0.13673 0.12892,-0.52348 l 0.66411,-3.008 q 0.0859,-0.39066 0.0859,-0.61724 0,-0.19142 -0.0899,-0.26565 -0.0899,-0.0742 -0.29299,-0.0859 l 0.043,-0.19142 h 1.7384 q 0.4141,0 0.67583,0.0508 0.26174,0.0469 0.44535,0.14455 0.18752,0.0977 0.31253,0.25392 0.12501,0.15236 0.18751,0.34769 0.0625,0.19142 0.0625,0.41018 0,0.34769 -0.1172,0.61724 -0.11329,0.26955 -0.31253,0.47269 -0.19923,0.20314 -0.46488,0.34378 -0.26173,0.14064 -0.55473,0.23049 z m -0.88288,-0.29299 q 0.42582,0 0.70709,-0.082 0.28127,-0.0859 0.46879,-0.25783 0.18751,-0.17189 0.30861,-0.45316 0.12111,-0.28128 0.12111,-0.60943 0,-0.16798 -0.0313,-0.29689 -0.0312,-0.13283 -0.082,-0.21877 -0.0508,-0.0859 -0.12892,-0.15236 -0.0781,-0.0664 -0.19533,-0.11329 -0.11719,-0.0508 -0.27346,-0.0703 -0.15235,-0.0234 -0.418,-0.0234 -0.20704,0 -0.43753,0.0156 l -0.50004,2.2619 z"
             inkscape:connector-curvature="0" />
        </g>
        <g
           id="g1089"
           transform="translate(-21.923,5.2917)">
          <g
             id="g1079"
             aria-label="C"
             style="font-variant-ligatures:normal;font-variant-caps:normal;font-variant-numeric:normal;font-feature-settings:normal"
             transform="matrix(1.0825,-0.76373,0.75816,1.0905,-769.35,-428.97)">
            <path
               id="path1077"
               d="m 311.07,516.26 v 2.1015 h -0.75108 q -0.18208,-0.66004 -0.46278,-1.047 -0.2807,-0.3945 -0.65245,-0.56141 -0.37174,-0.1669 -0.89522,-0.1669 -0.78142,0 -1.3959,0.52348 -0.60693,0.51588 -0.95592,1.5628 -0.34898,1.0394 -0.34898,2.5188 0,1.487 0.28829,2.5415 0.28829,1.047 0.8497,1.5856 0.56141,0.53106 1.3808,0.53106 0.62211,0 1.0166,-0.17449 0.3945,-0.18208 0.66003,-0.56899 0.27312,-0.38692 0.51589,-1.138 h 0.75108 v 2.1698 q -0.71314,0.18966 -1.4642,0.2807 -0.74349,0.0986 -1.6387,0.0986 -1.927,0 -2.9132,-1.3049 -0.9862,-1.3049 -0.98626,-3.8919 0,-1.6235 0.5083,-2.845 0.51589,-1.2214 1.5097,-1.8891 0.99384,-0.66762 2.3746,-0.66762 0.69039,0 1.2746,0.0759 0.58417,0.0683 1.3352,0.26554 z"
               inkscape:connector-curvature="0"
               style="stroke-width:0.1829" />
          </g>
          <g
             id="g1087"
             aria-label="K × R"
             style="font-variant-ligatures:normal;font-variant-caps:normal;font-variant-numeric:normal;font-feature-settings:normal;stroke-width:0.094179"
             transform="matrix(1.3216,0,0,1.3313,-769.35,-428.97)">
            <path
               id="path1081"
               d="m 529.91,234.55 h 0.12892 q 0.16407,0 0.2969,-0.0547 0.13673,-0.0547 0.31643,-0.19923 0.1797,-0.14455 0.57035,-0.5313 0.39457,-0.38674 0.55864,-0.58598 0.16798,-0.20314 0.24221,-0.34768 0.0781,-0.14845 0.0781,-0.26955 0,-0.0977 -0.0781,-0.15627 -0.0781,-0.0625 -0.22268,-0.0742 l 0.043,-0.19142 h 1.6759 l -0.043,0.19142 q -0.15627,0.0234 -0.3555,0.16407 -0.19533,0.13673 -0.60161,0.53911 l -1.5157,1.4767 0.83209,2.0002 q 0.10548,0.25393 0.16799,0.37503 0.0664,0.1172 0.14063,0.19923 0.0742,0.0781 0.16798,0.12892 0.0938,0.0469 0.22658,0.0664 l -0.043,0.19142 h -1.5079 l 0.043,-0.19142 q 0.21096,-0.0195 0.21096,-0.18751 0,-0.0508 -0.0117,-0.10548 -0.008,-0.0547 -0.043,-0.16017 -0.0313,-0.10547 -0.0898,-0.25392 l -0.50786,-1.2423 q -0.0898,-0.22267 -0.15626,-0.31252 -0.0664,-0.0898 -0.14063,-0.12501 -0.0742,-0.0352 -0.23049,-0.0352 h -0.21877 l -0.32424,1.4767 q -0.0508,0.23439 -0.0664,0.37112 -0.0156,0.13282 -0.0156,0.2383 0,0.17579 0.0859,0.25002 0.0898,0.0703 0.2969,0.0859 l -0.043,0.19142 h -1.5626 l 0.043,-0.19142 q 0.14845,-0.0234 0.22267,-0.0742 0.0742,-0.0547 0.12501,-0.14845 0.0508,-0.0938 0.0938,-0.22658 0.043,-0.13673 0.12892,-0.52348 l 0.66411,-3.008 q 0.0391,-0.1797 0.0625,-0.34377 0.0234,-0.16798 0.0234,-0.28518 0,-0.18361 -0.0938,-0.25393 -0.0938,-0.0742 -0.28909,-0.0859 l 0.043,-0.19142 h 1.5626 l -0.043,0.19142 q -0.14845,0.0312 -0.21487,0.0703 -0.0625,0.0391 -0.11719,0.11719 -0.0508,0.0781 -0.10548,0.24612 -0.0508,0.16407 -0.13282,0.5391 z"
               inkscape:connector-curvature="0" />
            <path
               id="path1083"
               d="m 536.91,234.79 1.3478,-1.1563 0.33205,0.42972 -1.3673,1.1524 0.85944,1.1681 -0.44534,0.35159 -0.83991,-1.1602 -1.3556,1.1602 -0.33205,-0.42972 1.3751,-1.1602 -0.85163,-1.1602 0.44535,-0.35159 z"
               inkscape:connector-curvature="0" />
            <path
               id="path1085"
               d="m 543.81,235.05 q 0.18752,0.14063 0.30081,0.33596 0.11719,0.19533 0.18751,0.54301 l 0.0898,0.45316 q 0.0274,0.14064 0.0586,0.26174 0.0352,0.1211 0.0781,0.23439 0.0469,0.10939 0.0977,0.1758 0.0547,0.0664 0.11329,0.10938 0.0625,0.043 0.13673,0.0703 0.0781,0.0234 0.19532,0.043 l -0.0391,0.19142 h -1.0821 q -0.12501,-0.34768 -0.22267,-0.82819 l -0.17189,-0.82819 q -0.043,-0.21486 -0.10548,-0.3594 -0.0586,-0.14845 -0.14454,-0.22658 -0.082,-0.082 -0.19533,-0.10548 -0.10938,-0.0273 -0.26955,-0.0273 h -0.44535 l -0.27345,1.2384 q -0.0352,0.15235 -0.0508,0.2422 -0.0117,0.0898 -0.0234,0.19142 -0.008,0.0977 -0.008,0.1758 0,0.1211 0.0391,0.19142 0.0391,0.0664 0.1172,0.0977 0.0781,0.0313 0.26955,0.0469 l -0.043,0.19142 h -1.6056 l 0.043,-0.19142 q 0.14845,-0.0234 0.22267,-0.0742 0.0742,-0.0547 0.12501,-0.14845 0.0508,-0.0938 0.0938,-0.22658 0.043,-0.13673 0.12892,-0.52348 l 0.66411,-3.008 q 0.0859,-0.39065 0.0859,-0.61723 0,-0.19142 -0.0899,-0.26565 -0.0898,-0.0742 -0.29299,-0.0859 l 0.043,-0.19142 h 1.7384 q 0.41409,0 0.67583,0.0508 0.26174,0.0469 0.44535,0.14455 0.18751,0.0977 0.31252,0.25392 0.12501,0.15236 0.18752,0.34769 0.0625,0.19142 0.0625,0.41018 0,0.34769 -0.11719,0.61724 -0.11329,0.26955 -0.31253,0.47269 -0.19923,0.20314 -0.46488,0.34378 -0.26174,0.14063 -0.55473,0.23048 z m -0.88288,-0.29299 q 0.42582,0 0.70709,-0.082 0.28127,-0.0859 0.46878,-0.25783 0.18752,-0.17189 0.30862,-0.45316 0.12111,-0.28128 0.12111,-0.60943 0,-0.16798 -0.0313,-0.2969 -0.0312,-0.13282 -0.082,-0.21876 -0.0508,-0.0859 -0.12891,-0.15236 -0.0781,-0.0664 -0.19533,-0.11329 -0.1172,-0.0508 -0.27346,-0.0703 -0.15235,-0.0234 -0.418,-0.0234 -0.20705,0 -0.43753,0.0156 l -0.50004,2.2619 z"
               inkscape:connector-curvature="0" />
          </g>
        </g>
        <g
           id="g1097"
           aria-label="J × R"
           style="font-variant-ligatures:normal;font-variant-caps:normal;font-variant-numeric:normal;font-feature-settings:normal;stroke-width:0.094179"
           transform="matrix(1.3216,0,0,1.3313,-769.35,-428.97)">
          <path
             id="path1091"
             d="m 545.01,305.65 q -0.13282,0.60942 -0.33987,0.96882 -0.20704,0.36331 -0.5391,0.5352 -0.32815,0.1758 -0.80866,0.1758 -0.10547,0 -0.20704,-0.0117 -0.10157,-0.008 -0.16408,-0.0274 l 0.10157,-0.37503 q 0.0625,0.0195 0.14064,0.0234 0.0742,0.008 0.15626,0.008 0.22658,0 0.39456,-0.10548 0.16408,-0.10548 0.2969,-0.36722 0.13673,-0.25783 0.2383,-0.71099 l 0.91413,-4.1175 q 0.0391,-0.17189 0.0625,-0.33987 0.0234,-0.17189 0.0234,-0.28908 0,-0.18361 -0.0938,-0.25393 -0.0938,-0.0742 -0.28909,-0.0859 l 0.043,-0.19142 h 1.5626 l -0.043,0.19142 q -0.14844,0.0312 -0.21486,0.0703 -0.0625,0.0391 -0.11719,0.11719 -0.0508,0.0781 -0.10548,0.24611 -0.0508,0.16408 -0.13282,0.53911 z"
             inkscape:connector-curvature="0" />
          <path
             id="path1093"
             d="m 550.25,303.14 1.3478,-1.1563 0.33205,0.42972 -1.3673,1.1524 0.85944,1.1681 -0.44535,0.35159 -0.83991,-1.1602 -1.3556,1.1602 -0.33206,-0.42972 1.3751,-1.1602 -0.85163,-1.1602 0.44535,-0.35159 z"
             inkscape:connector-curvature="0" />
          <path
             id="path1095"
             d="m 557.15,303.4 q 0.18752,0.14063 0.30081,0.33596 0.11719,0.19533 0.18751,0.54301 l 0.0898,0.45316 q 0.0274,0.14064 0.0586,0.26174 0.0352,0.1211 0.0781,0.23439 0.0469,0.10939 0.0977,0.1758 0.0547,0.0664 0.11329,0.10938 0.0625,0.043 0.13673,0.0703 0.0781,0.0234 0.19533,0.043 l -0.0391,0.19142 h -1.0821 q -0.12501,-0.34768 -0.22267,-0.82819 l -0.17189,-0.82819 q -0.043,-0.21486 -0.10548,-0.3594 -0.0586,-0.14845 -0.14454,-0.22658 -0.082,-0.082 -0.19533,-0.10548 -0.10938,-0.0273 -0.26955,-0.0273 h -0.44535 l -0.27346,1.2384 q -0.0352,0.15236 -0.0508,0.24221 -0.0117,0.0898 -0.0234,0.19142 -0.008,0.0977 -0.008,0.1758 0,0.1211 0.0391,0.19142 0.0391,0.0664 0.1172,0.0977 0.0781,0.0312 0.26955,0.0469 l -0.043,0.19142 h -1.6056 l 0.043,-0.19142 q 0.14845,-0.0234 0.22267,-0.0742 0.0742,-0.0547 0.12501,-0.14845 0.0508,-0.0938 0.0938,-0.22658 0.043,-0.13673 0.12891,-0.52348 l 0.66412,-3.008 q 0.0859,-0.39065 0.0859,-0.61723 0,-0.19142 -0.0899,-0.26565 -0.0898,-0.0742 -0.29299,-0.0859 l 0.043,-0.19142 h 1.7384 q 0.41409,0 0.67583,0.0508 0.26174,0.0469 0.44535,0.14454 0.18751,0.0977 0.31252,0.25393 0.12501,0.15236 0.18752,0.34768 0.0625,0.19142 0.0625,0.41019 0,0.34768 -0.11719,0.61724 -0.11329,0.26955 -0.31253,0.47269 -0.19923,0.20314 -0.46488,0.34378 -0.26174,0.14063 -0.55473,0.23048 z m -0.88288,-0.293 q 0.42581,0 0.70709,-0.082 0.28127,-0.0859 0.46878,-0.25784 0.18752,-0.17188 0.30862,-0.45316 0.1211,-0.28127 0.1211,-0.60942 0,-0.16798 -0.0312,-0.2969 -0.0312,-0.13282 -0.082,-0.21876 -0.0508,-0.086 -0.12891,-0.15236 -0.0781,-0.0664 -0.19533,-0.11329 -0.1172,-0.0508 -0.27346,-0.0703 -0.15236,-0.0234 -0.418,-0.0234 -0.20705,0 -0.43754,0.0156 l -0.50003,2.2619 z"
             inkscape:connector-curvature="0" />
        </g>
      </g>
      <g
         id="g1107"
         transform="matrix(1.3216,0,0,1.3313,-265.30822,-306.86758)"
         style="stroke-width:1.00450003">
        <path
           id="path1101"
           style="color:#000000;font-variant-ligatures:normal;font-variant-position:normal;font-variant-caps:normal;font-variant-numeric:normal;font-variant-alternates:normal;font-feature-settings:normal;text-indent:0;text-decoration:none;text-decoration-line:none;text-decoration-style:solid;text-decoration-color:#000000;text-transform:none;text-orientation:mixed;dominant-baseline:auto;white-space:normal;shape-padding:0;isolation:auto;mix-blend-mode:normal;solid-color:#000000;fill:#ff3b3b;color-rendering:auto;image-rendering:auto;shape-rendering:auto"
           dominant-baseline="auto"
           d="m 141.95,316.51 -0.926,0.0396 c 0,0 0.0656,1.5572 0.24852,3.1353 0.0915,0.78913 0.21032,1.5823 0.37424,2.2134 0.0819,0.31555 0.17191,0.58953 0.29742,0.82355 0.12549,0.23403 0.31,0.50176 0.68096,0.53547 l 0.0209,0.003 h 90.763 c 0.0901,0.2679 0.56222,2.7565 0.56222,2.7565 l 0.45981,2.4712 0.46503,-2.4706 c 0,0 0.47218,-2.4896 0.56224,-2.7576 h 90.764 l 0.0209,-0.003 c 0.37094,-0.0338 0.55486,-0.30201 0.68038,-0.53606 0.12548,-0.23401 0.21545,-0.50799 0.2974,-0.82354 0.16392,-0.63115 0.2828,-1.4243 0.37425,-2.2134 0.1829,-1.5782 0.24909,-3.1353 0.24909,-3.1353 l -0.92658,-0.0384 c 0,0 -0.0656,1.5344 -0.24329,3.0684 -0.0889,0.76704 -0.2077,1.535 -0.35095,2.0866 -0.0716,0.2758 -0.15272,0.49864 -0.21709,0.61868 -0.0211,0.0391 -0.025,0.0397 -0.0332,0.0489 h -91.122 c -0.41591,0 -0.43669,1.6355 -0.51742,1.9358 -0.0902,-0.36814 -0.16474,-1.9352 -0.54313,-1.9352 h -91.097 c -0.009,-0.01 -0.0123,-0.01 -0.0332,-0.0489 -0.0644,-0.12003 -0.14546,-0.34291 -0.21709,-0.6187 -0.14326,-0.55159 -0.26147,-1.3195 -0.35039,-2.0865 -0.17779,-1.534 -0.24385,-3.0684 -0.24385,-3.0684 z"
           inkscape:connector-curvature="0" />
        <g
           id="g1105"
           aria-label="R"
           style="font-variant-ligatures:normal;font-variant-caps:normal;font-variant-numeric:normal;font-feature-settings:normal"
           transform="translate(-13.299)">
          <path
             id="path1103"
             d="m 249.1,336.87 q 0.33313,0.24984 0.5344,0.59685 0.2082,0.34701 0.33313,0.96468 l 0.15962,0.80506 q 0.0486,0.24985 0.1041,0.46499 0.0625,0.21515 0.13881,0.41641 0.0833,0.19433 0.1735,0.31231 0.0972,0.11798 0.20126,0.19433 0.11105,0.0763 0.24291,0.12492 0.1388,0.0416 0.34701,0.0763 l -0.0694,0.34007 h -1.9224 q -0.22208,-0.61768 -0.39559,-1.4713 l -0.30537,-1.4713 q -0.0763,-0.38171 -0.18738,-0.6385 -0.1041,-0.26372 -0.25679,-0.40253 -0.14574,-0.14574 -0.347,-0.18738 -0.19433,-0.0486 -0.47888,-0.0486 h -0.79118 l -0.48581,2.2 q -0.0625,0.27067 -0.0902,0.43029 -0.0208,0.15963 -0.0416,0.34007 -0.0139,0.1735 -0.0139,0.31231 0,0.21514 0.0694,0.34007 0.0694,0.11798 0.20821,0.1735 0.1388,0.0555 0.47887,0.0833 l -0.0763,0.34007 h -2.8524 l 0.0763,-0.34007 q 0.26373,-0.0416 0.39559,-0.13186 0.13186,-0.0972 0.22208,-0.26373 0.0902,-0.16656 0.16657,-0.40253 0.0763,-0.2429 0.22902,-0.92998 l 1.1798,-5.3439 q 0.15269,-0.69401 0.15269,-1.0965 0,-0.34007 -0.15963,-0.47194 -0.15962,-0.13186 -0.52051,-0.15268 l 0.0763,-0.34007 h 3.0884 q 0.73566,0 1.2006,0.0902 0.46499,0.0833 0.79118,0.25678 0.33313,0.17351 0.55522,0.45111 0.22208,0.27067 0.33312,0.61768 0.11105,0.34006 0.11105,0.72871 0,0.61768 -0.20821,1.0966 -0.20126,0.47887 -0.55521,0.83976 -0.35395,0.36089 -0.82588,0.61074 -0.46499,0.24984 -0.98551,0.40946 z m -1.5685,-0.52052 q 0.75648,0 1.2562,-0.14574 0.49969,-0.15268 0.83282,-0.45805 0.33313,-0.30537 0.54827,-0.80506 0.21515,-0.49969 0.21515,-1.0827 0,-0.29842 -0.0555,-0.52745 -0.0555,-0.23596 -0.14574,-0.38865 -0.0902,-0.15268 -0.22902,-0.27066 -0.13881,-0.11799 -0.34701,-0.20127 -0.20821,-0.0902 -0.48581,-0.12492 -0.27067,-0.0416 -0.7426,-0.0416 -0.36783,0 -0.7773,0.0278 l -0.88834,4.0184 z"
             inkscape:connector-curvature="0"
             style="stroke-width:0.16731" />
        </g>
      </g>
    </g>
  </g>
  <style
     type="text/css"
     id="style1111">.st0{fill:none;stroke:#ED2124;stroke-miterlimit:10;}</style>
  <style
     type="text/css"
     id="style2">
	.st0{fill:none;stroke:#ED2124;stroke-miterlimit:10;}
</style>
</svg>
